<svg width="434" height="305" viewBox="0 0 434 305" fill="none" xmlns="http://www.w3.org/2000/svg">
<path d="M44.0994 235.5H42.7784C42.7003 235.12 42.5636 234.786 42.3683 234.499C42.1765 234.211 41.9421 233.969 41.6651 233.774C41.3917 233.575 41.0881 233.426 40.7543 233.327C40.4205 233.227 40.0724 233.178 39.7102 233.178C39.0497 233.178 38.4513 233.344 37.9151 233.678C37.3825 234.012 36.9581 234.504 36.642 235.154C36.3295 235.804 36.1733 236.601 36.1733 237.545C36.1733 238.49 36.3295 239.287 36.642 239.937C36.9581 240.587 37.3825 241.079 37.9151 241.413C38.4513 241.746 39.0497 241.913 39.7102 241.913C40.0724 241.913 40.4205 241.864 40.7543 241.764C41.0881 241.665 41.3917 241.517 41.6651 241.322C41.9421 241.123 42.1765 240.88 42.3683 240.592C42.5636 240.301 42.7003 239.967 42.7784 239.591H44.0994C44 240.148 43.8189 240.647 43.5561 241.088C43.2933 241.528 42.9666 241.903 42.576 242.212C42.1854 242.517 41.7468 242.75 41.2603 242.909C40.7773 243.069 40.2607 243.149 39.7102 243.149C38.7798 243.149 37.9524 242.922 37.228 242.467C36.5036 242.013 35.9336 241.366 35.5181 240.528C35.1026 239.69 34.8949 238.696 34.8949 237.545C34.8949 236.395 35.1026 235.401 35.5181 234.562C35.9336 233.724 36.5036 233.078 37.228 232.624C37.9524 232.169 38.7798 231.942 39.7102 231.942C40.2607 231.942 40.7773 232.022 41.2603 232.181C41.7468 232.341 42.1854 232.576 42.576 232.885C42.9666 233.19 43.2933 233.563 43.5561 234.003C43.8189 234.44 44 234.939 44.0994 235.5ZM49.2375 243.17C48.4989 243.17 47.8508 242.995 47.2933 242.643C46.7393 242.292 46.3061 241.8 45.9936 241.168C45.6846 240.536 45.5301 239.797 45.5301 238.952C45.5301 238.099 45.6846 237.355 45.9936 236.72C46.3061 236.084 46.7393 235.591 47.2933 235.239C47.8508 234.887 48.4989 234.712 49.2375 234.712C49.9762 234.712 50.6225 234.887 51.1764 235.239C51.734 235.591 52.1672 236.084 52.4762 236.72C52.7887 237.355 52.9449 238.099 52.9449 238.952C52.9449 239.797 52.7887 240.536 52.4762 241.168C52.1672 241.8 51.734 242.292 51.1764 242.643C50.6225 242.995 49.9762 243.17 49.2375 243.17ZM49.2375 242.041C49.7986 242.041 50.2602 241.897 50.6225 241.61C50.9847 241.322 51.2528 240.944 51.4268 240.475C51.6008 240.006 51.6878 239.499 51.6878 238.952C51.6878 238.405 51.6008 237.895 51.4268 237.423C51.2528 236.951 50.9847 236.569 50.6225 236.278C50.2602 235.987 49.7986 235.841 49.2375 235.841C48.6764 235.841 48.2148 235.987 47.8526 236.278C47.4904 236.569 47.2222 236.951 47.0482 237.423C46.8742 237.895 46.7872 238.405 46.7872 238.952C46.7872 239.499 46.8742 240.006 47.0482 240.475C47.2222 240.944 47.4904 241.322 47.8526 241.61C48.2148 241.897 48.6764 242.041 49.2375 242.041ZM55.971 238.078V243H54.7139V234.818H55.9283V236.097H56.0349C56.2266 235.681 56.5178 235.347 56.9085 235.095C57.2991 234.839 57.8033 234.712 58.4212 234.712C58.9752 234.712 59.4599 234.825 59.8754 235.053C60.2909 235.276 60.6141 235.617 60.8449 236.075C61.0757 236.53 61.1911 237.105 61.1911 237.801V243H59.934V237.886C59.934 237.244 59.7671 236.743 59.4333 236.384C59.0995 236.022 58.6414 235.841 58.059 235.841C57.6577 235.841 57.2991 235.928 56.983 236.102C56.6705 236.276 56.4237 236.53 56.2426 236.864C56.0615 237.197 55.971 237.602 55.971 238.078ZM69.1337 236.651L68.0045 236.97C67.9334 236.782 67.8287 236.599 67.6902 236.422C67.5552 236.24 67.3706 236.091 67.1362 235.974C66.9018 235.857 66.6018 235.798 66.236 235.798C65.7353 235.798 65.318 235.914 64.9842 236.145C64.654 236.372 64.4888 236.661 64.4888 237.013C64.4888 237.325 64.6025 237.572 64.8297 237.753C65.057 237.934 65.4121 238.085 65.8951 238.206L67.1096 238.504C67.8411 238.682 68.3862 238.953 68.7449 239.319C69.1035 239.681 69.2829 240.148 69.2829 240.72C69.2829 241.189 69.1479 241.608 68.878 241.977C68.6117 242.347 68.2388 242.638 67.7594 242.851C67.28 243.064 66.7225 243.17 66.0868 243.17C65.2523 243.17 64.5616 242.989 64.0148 242.627C63.4679 242.265 63.1216 241.736 62.976 241.04L64.1692 240.741C64.2829 241.182 64.4977 241.512 64.8138 241.732C65.1334 241.952 65.5506 242.062 66.0655 242.062C66.6515 242.062 67.1167 241.938 67.4611 241.69C67.8091 241.437 67.9831 241.136 67.9831 240.784C67.9831 240.5 67.8837 240.262 67.6849 240.07C67.486 239.875 67.1806 239.729 66.7687 239.634L65.405 239.314C64.6557 239.136 64.1053 238.861 63.7537 238.488C63.4057 238.112 63.2317 237.641 63.2317 237.077C63.2317 236.615 63.3613 236.207 63.6206 235.852C63.8834 235.496 64.2403 235.218 64.6912 235.015C65.1458 234.813 65.6607 234.712 66.236 234.712C67.0456 234.712 67.6813 234.889 68.143 235.244C68.6081 235.599 68.9384 236.068 69.1337 236.651ZM74.349 243.17C73.6104 243.17 72.9623 242.995 72.4048 242.643C71.8508 242.292 71.4176 241.8 71.1051 241.168C70.7961 240.536 70.6417 239.797 70.6417 238.952C70.6417 238.099 70.7961 237.355 71.1051 236.72C71.4176 236.084 71.8508 235.591 72.4048 235.239C72.9623 234.887 73.6104 234.712 74.349 234.712C75.0877 234.712 75.734 234.887 76.288 235.239C76.8455 235.591 77.2787 236.084 77.5877 236.72C77.9002 237.355 78.0564 238.099 78.0564 238.952C78.0564 239.797 77.9002 240.536 77.5877 241.168C77.2787 241.8 76.8455 242.292 76.288 242.643C75.734 242.995 75.0877 243.17 74.349 243.17ZM74.349 242.041C74.9101 242.041 75.3718 241.897 75.734 241.61C76.0962 241.322 76.3643 240.944 76.5383 240.475C76.7123 240.006 76.7993 239.499 76.7993 238.952C76.7993 238.405 76.7123 237.895 76.5383 237.423C76.3643 236.951 76.0962 236.569 75.734 236.278C75.3718 235.987 74.9101 235.841 74.349 235.841C73.788 235.841 73.3263 235.987 72.9641 236.278C72.6019 236.569 72.3338 236.951 72.1598 237.423C71.9858 237.895 71.8988 238.405 71.8988 238.952C71.8988 239.499 71.9858 240.006 72.1598 240.475C72.3338 240.944 72.6019 241.322 72.9641 241.61C73.3263 241.897 73.788 242.041 74.349 242.041ZM79.8254 243V234.818H81.0399V236.054H81.1251C81.2742 235.649 81.5441 235.321 81.9347 235.069C82.3254 234.816 82.7657 234.69 83.2558 234.69C83.3481 234.69 83.4635 234.692 83.602 234.696C83.7405 234.699 83.8453 234.705 83.9163 234.712V235.99C83.8737 235.979 83.776 235.963 83.6233 235.942C83.4742 235.917 83.3161 235.905 83.1492 235.905C82.7515 235.905 82.3964 235.988 82.0839 236.155C81.7749 236.319 81.5299 236.546 81.3488 236.837C81.1713 237.125 81.0825 237.453 81.0825 237.822V243H79.8254ZM89.3274 234.818V235.884H85.0873V234.818H89.3274ZM86.3231 232.858H87.5802V240.656C87.5802 241.011 87.6317 241.278 87.7347 241.455C87.8412 241.629 87.9762 241.746 88.1395 241.807C88.3064 241.864 88.4822 241.892 88.6668 241.892C88.8053 241.892 88.919 241.885 89.0078 241.871C89.0965 241.853 89.1676 241.839 89.2208 241.828L89.4765 242.957C89.3913 242.989 89.2723 243.021 89.1196 243.053C88.9669 243.089 88.7734 243.107 88.539 243.107C88.1839 243.107 87.8359 243.03 87.495 242.877C87.1576 242.725 86.8771 242.492 86.6534 242.18C86.4332 241.867 86.3231 241.473 86.3231 240.997V232.858ZM91.0683 243V234.818H92.3254V243H91.0683ZM91.7075 233.455C91.4625 233.455 91.2512 233.371 91.0737 233.204C90.8997 233.037 90.8127 232.837 90.8127 232.602C90.8127 232.368 90.8997 232.167 91.0737 232C91.2512 231.833 91.4625 231.75 91.7075 231.75C91.9526 231.75 92.1621 231.833 92.3361 232C92.5137 232.167 92.6024 232.368 92.6024 232.602C92.6024 232.837 92.5137 233.037 92.3361 233.204C92.1621 233.371 91.9526 233.455 91.7075 233.455ZM99.6342 239.655V234.818H100.891V243H99.6342V241.615H99.5489C99.3572 242.031 99.0589 242.384 98.654 242.675C98.2492 242.963 97.7379 243.107 97.12 243.107C96.6086 243.107 96.154 242.995 95.7563 242.771C95.3586 242.544 95.0461 242.203 94.8188 241.748C94.5915 241.29 94.4779 240.713 94.4779 240.017V234.818H95.735V239.932C95.735 240.528 95.9019 241.004 96.2357 241.359C96.5731 241.714 97.0028 241.892 97.5248 241.892C97.8373 241.892 98.1551 241.812 98.4783 241.652C98.805 241.493 99.0784 241.248 99.2986 240.917C99.5223 240.587 99.6342 240.166 99.6342 239.655ZM103.044 243V234.818H104.258V236.097H104.365C104.535 235.66 104.81 235.321 105.19 235.079C105.57 234.834 106.027 234.712 106.559 234.712C107.099 234.712 107.548 234.834 107.907 235.079C108.269 235.321 108.552 235.66 108.754 236.097H108.839C109.049 235.674 109.363 235.338 109.782 235.09C110.201 234.838 110.704 234.712 111.289 234.712C112.021 234.712 112.619 234.941 113.085 235.399C113.55 235.853 113.782 236.562 113.782 237.524V243H112.525V237.524C112.525 236.92 112.36 236.489 112.03 236.23C111.7 235.971 111.311 235.841 110.863 235.841C110.288 235.841 109.842 236.015 109.526 236.363C109.21 236.707 109.052 237.144 109.052 237.673V243H107.774V237.396C107.774 236.931 107.623 236.556 107.321 236.272C107.019 235.985 106.63 235.841 106.155 235.841C105.828 235.841 105.522 235.928 105.238 236.102C104.958 236.276 104.731 236.517 104.557 236.826C104.386 237.132 104.301 237.485 104.301 237.886V243H103.044ZM125.156 239.655V234.818H126.413V243H125.156V241.615H125.071C124.879 242.031 124.581 242.384 124.176 242.675C123.771 242.963 123.26 243.107 122.642 243.107C122.13 243.107 121.676 242.995 121.278 242.771C120.88 242.544 120.568 242.203 120.34 241.748C120.113 241.29 120 240.713 120 240.017V234.818H121.257V239.932C121.257 240.528 121.424 241.004 121.757 241.359C122.095 241.714 122.524 241.892 123.046 241.892C123.359 241.892 123.677 241.812 124 241.652C124.327 241.493 124.6 241.248 124.82 240.917C125.044 240.587 125.156 240.166 125.156 239.655ZM129.823 238.078V243H128.565V234.818H129.78V236.097H129.886C130.078 235.681 130.369 235.347 130.76 235.095C131.151 234.839 131.655 234.712 132.273 234.712C132.827 234.712 133.312 234.825 133.727 235.053C134.142 235.276 134.466 235.617 134.696 236.075C134.927 236.53 135.043 237.105 135.043 237.801V243H133.786V237.886C133.786 237.244 133.619 236.743 133.285 236.384C132.951 236.022 132.493 235.841 131.911 235.841C131.509 235.841 131.151 235.928 130.835 236.102C130.522 236.276 130.275 236.53 130.094 236.864C129.913 237.197 129.823 237.602 129.823 238.078ZM137.19 243V234.818H138.447V243H137.19ZM137.829 233.455C137.584 233.455 137.373 233.371 137.195 233.204C137.021 233.037 136.934 232.837 136.934 232.602C136.934 232.368 137.021 232.167 137.195 232C137.373 231.833 137.584 231.75 137.829 231.75C138.074 231.75 138.284 231.833 138.458 232C138.635 232.167 138.724 232.368 138.724 232.602C138.724 232.837 138.635 233.037 138.458 233.204C138.284 233.371 138.074 233.455 137.829 233.455ZM144.243 234.818V235.884H139.832V234.818H144.243ZM141.153 243V233.689C141.153 233.22 141.263 232.83 141.484 232.517C141.704 232.205 141.99 231.97 142.341 231.814C142.693 231.658 143.064 231.58 143.455 231.58C143.763 231.58 144.016 231.604 144.211 231.654C144.406 231.704 144.552 231.75 144.648 231.793L144.285 232.879C144.222 232.858 144.133 232.831 144.019 232.799C143.909 232.767 143.763 232.751 143.582 232.751C143.167 232.751 142.867 232.856 142.682 233.066C142.501 233.275 142.41 233.582 142.41 233.987V243H141.153ZM145.855 243V234.818H147.112V243H145.855ZM146.494 233.455C146.249 233.455 146.038 233.371 145.86 233.204C145.686 233.037 145.599 232.837 145.599 232.602C145.599 232.368 145.686 232.167 145.86 232C146.038 231.833 146.249 231.75 146.494 231.75C146.739 231.75 146.948 231.833 147.122 232C147.3 232.167 147.389 232.368 147.389 232.602C147.389 232.837 147.3 233.037 147.122 233.204C146.948 233.371 146.739 233.455 146.494 233.455ZM152.695 243.17C151.906 243.17 151.226 242.996 150.655 242.648C150.086 242.297 149.648 241.807 149.339 241.178C149.033 240.546 148.881 239.811 148.881 238.973C148.881 238.135 149.033 237.396 149.339 236.757C149.648 236.114 150.077 235.614 150.628 235.255C151.182 234.893 151.828 234.712 152.567 234.712C152.993 234.712 153.414 234.783 153.829 234.925C154.245 235.067 154.623 235.298 154.964 235.617C155.305 235.933 155.576 236.352 155.779 236.874C155.981 237.396 156.082 238.039 156.082 238.803V239.335H149.776V238.249H154.804C154.804 237.787 154.712 237.375 154.527 237.013C154.346 236.651 154.087 236.365 153.749 236.155C153.416 235.946 153.021 235.841 152.567 235.841C152.066 235.841 151.633 235.965 151.267 236.214C150.905 236.459 150.626 236.778 150.431 237.173C150.235 237.567 150.138 237.989 150.138 238.44V239.165C150.138 239.783 150.244 240.306 150.457 240.736C150.674 241.162 150.974 241.487 151.358 241.711C151.741 241.931 152.187 242.041 152.695 242.041C153.025 242.041 153.323 241.995 153.59 241.903C153.859 241.807 154.092 241.665 154.287 241.477C154.483 241.285 154.634 241.047 154.74 240.763L155.955 241.104C155.827 241.516 155.612 241.878 155.31 242.19C155.008 242.499 154.635 242.741 154.191 242.915C153.748 243.085 153.249 243.17 152.695 243.17ZM151.928 233.71L153.227 231.239H154.697L153.036 233.71H151.928ZM165.003 243.17C164.321 243.17 163.719 242.998 163.197 242.654C162.675 242.306 162.267 241.816 161.972 241.184C161.677 240.548 161.53 239.797 161.53 238.93C161.53 238.071 161.677 237.325 161.972 236.693C162.267 236.061 162.677 235.573 163.203 235.228C163.728 234.884 164.335 234.712 165.024 234.712C165.557 234.712 165.978 234.8 166.287 234.978C166.599 235.152 166.837 235.351 167 235.575C167.167 235.795 167.297 235.976 167.389 236.118H167.496V232.091H168.753V243H167.538V241.743H167.389C167.297 241.892 167.166 242.08 166.995 242.308C166.825 242.531 166.581 242.732 166.265 242.909C165.949 243.083 165.529 243.17 165.003 243.17ZM165.173 242.041C165.678 242.041 166.104 241.91 166.452 241.647C166.8 241.381 167.064 241.013 167.245 240.544C167.427 240.072 167.517 239.527 167.517 238.909C167.517 238.298 167.428 237.764 167.251 237.306C167.073 236.844 166.81 236.485 166.462 236.23C166.114 235.971 165.685 235.841 165.173 235.841C164.641 235.841 164.197 235.978 163.842 236.251C163.49 236.521 163.226 236.888 163.048 237.354C162.874 237.815 162.787 238.334 162.787 238.909C162.787 239.491 162.876 240.021 163.053 240.496C163.234 240.969 163.501 241.345 163.852 241.626C164.207 241.903 164.648 242.041 165.173 242.041ZM174.51 243.17C173.722 243.17 173.042 242.996 172.47 242.648C171.902 242.297 171.463 241.807 171.154 241.178C170.849 240.546 170.696 239.811 170.696 238.973C170.696 238.135 170.849 237.396 171.154 236.757C171.463 236.114 171.893 235.614 172.443 235.255C172.997 234.893 173.644 234.712 174.382 234.712C174.809 234.712 175.229 234.783 175.645 234.925C176.06 235.067 176.439 235.298 176.779 235.617C177.12 235.933 177.392 236.352 177.594 236.874C177.797 237.396 177.898 238.039 177.898 238.803V239.335H171.591V238.249H176.62C176.62 237.787 176.527 237.375 176.343 237.013C176.162 236.651 175.902 236.365 175.565 236.155C175.231 235.946 174.837 235.841 174.382 235.841C173.882 235.841 173.448 235.965 173.083 236.214C172.72 236.459 172.442 236.778 172.246 237.173C172.051 237.567 171.953 237.989 171.953 238.44V239.165C171.953 239.783 172.06 240.306 172.273 240.736C172.49 241.162 172.79 241.487 173.173 241.711C173.557 241.931 174.002 242.041 174.51 242.041C174.841 242.041 175.139 241.995 175.405 241.903C175.675 241.807 175.908 241.665 176.103 241.477C176.298 241.285 176.449 241.047 176.556 240.763L177.77 241.104C177.642 241.516 177.428 241.878 177.126 242.19C176.824 242.499 176.451 242.741 176.007 242.915C175.563 243.085 175.064 243.17 174.51 243.17ZM185.456 236.651L184.327 236.97C184.256 236.782 184.151 236.599 184.012 236.422C183.877 236.24 183.693 236.091 183.458 235.974C183.224 235.857 182.924 235.798 182.558 235.798C182.057 235.798 181.64 235.914 181.306 236.145C180.976 236.372 180.811 236.661 180.811 237.013C180.811 237.325 180.925 237.572 181.152 237.753C181.379 237.934 181.734 238.085 182.217 238.206L183.432 238.504C184.163 238.682 184.708 238.953 185.067 239.319C185.426 239.681 185.605 240.148 185.605 240.72C185.605 241.189 185.47 241.608 185.2 241.977C184.934 242.347 184.561 242.638 184.081 242.851C183.602 243.064 183.045 243.17 182.409 243.17C181.574 243.17 180.884 242.989 180.337 242.627C179.79 242.265 179.444 241.736 179.298 241.04L180.491 240.741C180.605 241.182 180.82 241.512 181.136 241.732C181.455 241.952 181.873 242.062 182.388 242.062C182.974 242.062 183.439 241.938 183.783 241.69C184.131 241.437 184.305 241.136 184.305 240.784C184.305 240.5 184.206 240.262 184.007 240.07C183.808 239.875 183.503 239.729 183.091 239.634L181.727 239.314C180.978 239.136 180.427 238.861 180.076 238.488C179.728 238.112 179.554 237.641 179.554 237.077C179.554 236.615 179.683 236.207 179.943 235.852C180.205 235.496 180.562 235.218 181.013 235.015C181.468 234.813 181.983 234.712 182.558 234.712C183.368 234.712 184.003 234.889 184.465 235.244C184.93 235.599 185.26 236.068 185.456 236.651ZM194.846 243.17C194.058 243.17 193.378 242.996 192.806 242.648C192.238 242.297 191.8 241.807 191.491 241.178C191.185 240.546 191.032 239.811 191.032 238.973C191.032 238.135 191.185 237.396 191.491 236.757C191.8 236.114 192.229 235.614 192.78 235.255C193.334 234.893 193.98 234.712 194.719 234.712C195.145 234.712 195.565 234.783 195.981 234.925C196.396 235.067 196.775 235.298 197.116 235.617C197.456 235.933 197.728 236.352 197.931 236.874C198.133 237.396 198.234 238.039 198.234 238.803V239.335H191.927V238.249H196.956C196.956 237.787 196.863 237.375 196.679 237.013C196.498 236.651 196.238 236.365 195.901 236.155C195.567 235.946 195.173 235.841 194.719 235.841C194.218 235.841 193.785 235.965 193.419 236.214C193.057 236.459 192.778 236.778 192.583 237.173C192.387 237.567 192.29 237.989 192.29 238.44V239.165C192.29 239.783 192.396 240.306 192.609 240.736C192.826 241.162 193.126 241.487 193.509 241.711C193.893 241.931 194.339 242.041 194.846 242.041C195.177 242.041 195.475 241.995 195.741 241.903C196.011 241.807 196.244 241.665 196.439 241.477C196.634 241.285 196.785 241.047 196.892 240.763L198.106 241.104C197.978 241.516 197.764 241.878 197.462 242.19C197.16 242.499 196.787 242.741 196.343 242.915C195.899 243.085 195.4 243.17 194.846 243.17ZM194.079 233.71L195.379 231.239H196.849L195.187 233.71H194.079ZM203.555 234.818V235.884H199.315V234.818H203.555ZM200.55 232.858H201.808V240.656C201.808 241.011 201.859 241.278 201.962 241.455C202.069 241.629 202.204 241.746 202.367 241.807C202.534 241.864 202.71 241.892 202.894 241.892C203.033 241.892 203.146 241.885 203.235 241.871C203.324 241.853 203.395 241.839 203.448 241.828L203.704 242.957C203.619 242.989 203.5 243.021 203.347 243.053C203.194 243.089 203.001 243.107 202.766 243.107C202.411 243.107 202.063 243.03 201.722 242.877C201.385 242.725 201.104 242.492 200.881 242.18C200.661 241.867 200.55 241.473 200.55 240.997V232.858ZM207.703 243.192C207.185 243.192 206.714 243.094 206.292 242.899C205.869 242.7 205.534 242.414 205.285 242.041C205.036 241.665 204.912 241.21 204.912 240.678C204.912 240.209 205.004 239.829 205.189 239.538C205.374 239.243 205.621 239.012 205.93 238.845C206.239 238.678 206.579 238.554 206.952 238.472C207.329 238.387 207.707 238.32 208.087 238.27C208.584 238.206 208.987 238.158 209.296 238.126C209.609 238.091 209.836 238.032 209.978 237.95C210.123 237.869 210.196 237.727 210.196 237.524V237.482C210.196 236.956 210.052 236.548 209.765 236.256C209.481 235.965 209.049 235.82 208.47 235.82C207.87 235.82 207.4 235.951 207.059 236.214C206.718 236.477 206.478 236.757 206.34 237.055L205.147 236.629C205.36 236.132 205.644 235.745 205.999 235.468C206.357 235.187 206.748 234.992 207.171 234.882C207.597 234.768 208.016 234.712 208.428 234.712C208.691 234.712 208.992 234.744 209.333 234.808C209.678 234.868 210.01 234.994 210.329 235.186C210.653 235.377 210.921 235.667 211.134 236.054C211.347 236.441 211.453 236.96 211.453 237.609V243H210.196V241.892H210.132C210.047 242.07 209.905 242.26 209.706 242.462C209.507 242.664 209.243 242.837 208.913 242.979C208.582 243.121 208.179 243.192 207.703 243.192ZM207.895 242.062C208.392 242.062 208.811 241.965 209.152 241.77C209.497 241.574 209.756 241.322 209.93 241.013C210.107 240.704 210.196 240.379 210.196 240.038V238.888C210.143 238.952 210.026 239.01 209.845 239.064C209.667 239.113 209.461 239.158 209.227 239.197C208.996 239.232 208.77 239.264 208.55 239.293C208.334 239.317 208.158 239.339 208.023 239.357C207.696 239.399 207.391 239.468 207.107 239.564C206.826 239.657 206.599 239.797 206.425 239.985C206.254 240.17 206.169 240.422 206.169 240.741C206.169 241.178 206.331 241.509 206.654 241.732C206.981 241.952 207.394 242.062 207.895 242.062ZM213.768 243V232.091H215.025V236.118H215.132C215.224 235.976 215.352 235.795 215.515 235.575C215.682 235.351 215.92 235.152 216.229 234.978C216.542 234.8 216.964 234.712 217.497 234.712C218.186 234.712 218.793 234.884 219.319 235.228C219.844 235.573 220.254 236.061 220.549 236.693C220.844 237.325 220.991 238.071 220.991 238.93C220.991 239.797 220.844 240.548 220.549 241.184C220.254 241.816 219.846 242.306 219.324 242.654C218.802 242.998 218.2 243.17 217.518 243.17C216.993 243.17 216.572 243.083 216.256 242.909C215.94 242.732 215.697 242.531 215.526 242.308C215.356 242.08 215.224 241.892 215.132 241.743H214.983V243H213.768ZM215.004 238.909C215.004 239.527 215.095 240.072 215.276 240.544C215.457 241.013 215.721 241.381 216.069 241.647C216.417 241.91 216.844 242.041 217.348 242.041C217.873 242.041 218.312 241.903 218.664 241.626C219.019 241.345 219.285 240.969 219.463 240.496C219.644 240.021 219.734 239.491 219.734 238.909C219.734 238.334 219.645 237.815 219.468 237.354C219.294 236.888 219.029 236.521 218.674 236.251C218.323 235.978 217.881 235.841 217.348 235.841C216.836 235.841 216.407 235.971 216.059 236.23C215.711 236.485 215.448 236.844 215.27 237.306C215.093 237.764 215.004 238.298 215.004 238.909ZM224.021 232.091V243H222.764V232.091H224.021ZM226.174 243V234.818H227.431V243H226.174ZM226.813 233.455C226.568 233.455 226.357 233.371 226.179 233.204C226.005 233.037 225.918 232.837 225.918 232.602C225.918 232.368 226.005 232.167 226.179 232C226.357 231.833 226.568 231.75 226.813 231.75C227.058 231.75 227.268 231.833 227.442 232C227.619 232.167 227.708 232.368 227.708 232.602C227.708 232.837 227.619 233.037 227.442 233.204C227.268 233.371 227.058 233.455 226.813 233.455ZM235.379 236.651L234.25 236.97C234.179 236.782 234.074 236.599 233.935 236.422C233.8 236.24 233.616 236.091 233.381 235.974C233.147 235.857 232.847 235.798 232.481 235.798C231.98 235.798 231.563 235.914 231.229 236.145C230.899 236.372 230.734 236.661 230.734 237.013C230.734 237.325 230.848 237.572 231.075 237.753C231.302 237.934 231.657 238.085 232.14 238.206L233.355 238.504C234.086 238.682 234.631 238.953 234.99 239.319C235.349 239.681 235.528 240.148 235.528 240.72C235.528 241.189 235.393 241.608 235.123 241.977C234.857 242.347 234.484 242.638 234.005 242.851C233.525 243.064 232.968 243.17 232.332 243.17C231.497 243.17 230.807 242.989 230.26 242.627C229.713 242.265 229.367 241.736 229.221 241.04L230.414 240.741C230.528 241.182 230.743 241.512 231.059 241.732C231.378 241.952 231.796 242.062 232.311 242.062C232.897 242.062 233.362 241.938 233.706 241.69C234.054 241.437 234.228 241.136 234.228 240.784C234.228 240.5 234.129 240.262 233.93 240.07C233.731 239.875 233.426 239.729 233.014 239.634L231.65 239.314C230.901 239.136 230.35 238.861 229.999 238.488C229.651 238.112 229.477 237.641 229.477 237.077C229.477 236.615 229.606 236.207 229.866 235.852C230.128 235.496 230.485 235.218 230.936 235.015C231.391 234.813 231.906 234.712 232.481 234.712C233.291 234.712 233.926 234.889 234.388 235.244C234.853 235.599 235.184 236.068 235.379 236.651ZM243.066 236.651L241.936 236.97C241.865 236.782 241.761 236.599 241.622 236.422C241.487 236.24 241.303 236.091 241.068 235.974C240.834 235.857 240.534 235.798 240.168 235.798C239.667 235.798 239.25 235.914 238.916 236.145C238.586 236.372 238.421 236.661 238.421 237.013C238.421 237.325 238.534 237.572 238.762 237.753C238.989 237.934 239.344 238.085 239.827 238.206L241.042 238.504C241.773 238.682 242.318 238.953 242.677 239.319C243.036 239.681 243.215 240.148 243.215 240.72C243.215 241.189 243.08 241.608 242.81 241.977C242.544 242.347 242.171 242.638 241.691 242.851C241.212 243.064 240.655 243.17 240.019 243.17C239.184 243.17 238.494 242.989 237.947 242.627C237.4 242.265 237.054 241.736 236.908 241.04L238.101 240.741C238.215 241.182 238.43 241.512 238.746 241.732C239.065 241.952 239.483 242.062 239.998 242.062C240.583 242.062 241.049 241.938 241.393 241.69C241.741 241.437 241.915 241.136 241.915 240.784C241.915 240.5 241.816 240.262 241.617 240.07C241.418 239.875 241.113 239.729 240.701 239.634L239.337 239.314C238.588 239.136 238.037 238.861 237.686 238.488C237.338 238.112 237.164 237.641 237.164 237.077C237.164 236.615 237.293 236.207 237.553 235.852C237.815 235.496 238.172 235.218 238.623 235.015C239.078 234.813 239.593 234.712 240.168 234.712C240.978 234.712 241.613 234.889 242.075 235.244C242.54 235.599 242.87 236.068 243.066 236.651ZM248.388 243.17C247.599 243.17 246.919 242.996 246.347 242.648C245.779 242.297 245.341 241.807 245.032 241.178C244.726 240.546 244.574 239.811 244.574 238.973C244.574 238.135 244.726 237.396 245.032 236.757C245.341 236.114 245.77 235.614 246.321 235.255C246.875 234.893 247.521 234.712 248.26 234.712C248.686 234.712 249.107 234.783 249.522 234.925C249.938 235.067 250.316 235.298 250.657 235.617C250.998 235.933 251.269 236.352 251.472 236.874C251.674 237.396 251.775 238.039 251.775 238.803V239.335H245.469V238.249H250.497C250.497 237.787 250.405 237.375 250.22 237.013C250.039 236.651 249.78 236.365 249.442 236.155C249.108 235.946 248.714 235.841 248.26 235.841C247.759 235.841 247.326 235.965 246.96 236.214C246.598 236.459 246.319 236.778 246.124 237.173C245.928 237.567 245.831 237.989 245.831 238.44V239.165C245.831 239.783 245.937 240.306 246.15 240.736C246.367 241.162 246.667 241.487 247.051 241.711C247.434 241.931 247.88 242.041 248.388 242.041C248.718 242.041 249.016 241.995 249.282 241.903C249.552 241.807 249.785 241.665 249.98 241.477C250.176 241.285 250.327 241.047 250.433 240.763L251.648 241.104C251.52 241.516 251.305 241.878 251.003 242.19C250.701 242.499 250.328 242.741 249.884 242.915C249.441 243.085 248.942 243.17 248.388 243.17ZM253.538 243V234.818H254.752V236.097H254.859C255.029 235.66 255.304 235.321 255.684 235.079C256.064 234.834 256.521 234.712 257.053 234.712C257.593 234.712 258.042 234.834 258.401 235.079C258.763 235.321 259.045 235.66 259.248 236.097H259.333C259.543 235.674 259.857 235.338 260.276 235.09C260.695 234.838 261.197 234.712 261.783 234.712C262.515 234.712 263.113 234.941 263.579 235.399C264.044 235.853 264.276 236.562 264.276 237.524V243H263.019V237.524C263.019 236.92 262.854 236.489 262.524 236.23C262.194 235.971 261.805 235.841 261.357 235.841C260.782 235.841 260.336 236.015 260.02 236.363C259.704 236.707 259.546 237.144 259.546 237.673V243H258.268V237.396C258.268 236.931 258.117 236.556 257.815 236.272C257.513 235.985 257.124 235.841 256.648 235.841C256.322 235.841 256.016 235.928 255.732 236.102C255.452 236.276 255.224 236.517 255.05 236.826C254.88 237.132 254.795 237.485 254.795 237.886V243H253.538ZM269.855 243.17C269.067 243.17 268.387 242.996 267.815 242.648C267.247 242.297 266.808 241.807 266.499 241.178C266.194 240.546 266.041 239.811 266.041 238.973C266.041 238.135 266.194 237.396 266.499 236.757C266.808 236.114 267.238 235.614 267.788 235.255C268.342 234.893 268.989 234.712 269.727 234.712C270.153 234.712 270.574 234.783 270.99 234.925C271.405 235.067 271.783 235.298 272.124 235.617C272.465 235.933 272.737 236.352 272.939 236.874C273.142 237.396 273.243 238.039 273.243 238.803V239.335H266.936V238.249H271.965C271.965 237.787 271.872 237.375 271.688 237.013C271.506 236.651 271.247 236.365 270.91 236.155C270.576 235.946 270.182 235.841 269.727 235.841C269.227 235.841 268.793 235.965 268.428 236.214C268.065 236.459 267.787 236.778 267.591 237.173C267.396 237.567 267.298 237.989 267.298 238.44V239.165C267.298 239.783 267.405 240.306 267.618 240.736C267.835 241.162 268.135 241.487 268.518 241.711C268.902 241.931 269.347 242.041 269.855 242.041C270.185 242.041 270.484 241.995 270.75 241.903C271.02 241.807 271.253 241.665 271.448 241.477C271.643 241.285 271.794 241.047 271.901 240.763L273.115 241.104C272.987 241.516 272.772 241.878 272.471 242.19C272.169 242.499 271.796 242.741 271.352 242.915C270.908 243.085 270.409 243.17 269.855 243.17ZM276.262 238.078V243H275.005V234.818H276.22V236.097H276.326C276.518 235.681 276.809 235.347 277.2 235.095C277.59 234.839 278.095 234.712 278.713 234.712C279.267 234.712 279.751 234.825 280.167 235.053C280.582 235.276 280.905 235.617 281.136 236.075C281.367 236.53 281.483 237.105 281.483 237.801V243H280.225V237.886C280.225 237.244 280.059 236.743 279.725 236.384C279.391 236.022 278.933 235.841 278.35 235.841C277.949 235.841 277.59 235.928 277.274 236.102C276.962 236.276 276.715 236.53 276.534 236.864C276.353 237.197 276.262 237.602 276.262 238.078ZM287.188 234.818V235.884H282.948V234.818H287.188ZM284.184 232.858H285.441V240.656C285.441 241.011 285.492 241.278 285.595 241.455C285.702 241.629 285.837 241.746 286 241.807C286.167 241.864 286.343 241.892 286.527 241.892C286.666 241.892 286.78 241.885 286.868 241.871C286.957 241.853 287.028 241.839 287.081 241.828L287.337 242.957C287.252 242.989 287.133 243.021 286.98 243.053C286.827 243.089 286.634 243.107 286.4 243.107C286.044 243.107 285.696 243.03 285.356 242.877C285.018 242.725 284.738 242.492 284.514 242.18C284.294 241.867 284.184 241.473 284.184 240.997V232.858ZM294.578 236.651L293.449 236.97C293.378 236.782 293.273 236.599 293.134 236.422C292.999 236.24 292.815 236.091 292.58 235.974C292.346 235.857 292.046 235.798 291.68 235.798C291.179 235.798 290.762 235.914 290.428 236.145C290.098 236.372 289.933 236.661 289.933 237.013C289.933 237.325 290.047 237.572 290.274 237.753C290.501 237.934 290.856 238.085 291.339 238.206L292.554 238.504C293.285 238.682 293.83 238.953 294.189 239.319C294.548 239.681 294.727 240.148 294.727 240.72C294.727 241.189 294.592 241.608 294.322 241.977C294.056 242.347 293.683 242.638 293.204 242.851C292.724 243.064 292.167 243.17 291.531 243.17C290.696 243.17 290.006 242.989 289.459 242.627C288.912 242.265 288.566 241.736 288.42 241.04L289.613 240.741C289.727 241.182 289.942 241.512 290.258 241.732C290.578 241.952 290.995 242.062 291.51 242.062C292.096 242.062 292.561 241.938 292.905 241.69C293.253 241.437 293.427 241.136 293.427 240.784C293.427 240.5 293.328 240.262 293.129 240.07C292.93 239.875 292.625 239.729 292.213 239.634L290.849 239.314C290.1 239.136 289.549 238.861 289.198 238.488C288.85 238.112 288.676 237.641 288.676 237.077C288.676 236.615 288.805 236.207 289.065 235.852C289.328 235.496 289.684 235.218 290.135 235.015C290.59 234.813 291.105 234.712 291.68 234.712C292.49 234.712 293.125 234.889 293.587 235.244C294.052 235.599 294.383 236.068 294.578 236.651ZM305.694 239.655V234.818H306.951V243H305.694V241.615H305.609C305.417 242.031 305.119 242.384 304.714 242.675C304.309 242.963 303.798 243.107 303.18 243.107C302.669 243.107 302.214 242.995 301.816 242.771C301.419 242.544 301.106 242.203 300.879 241.748C300.652 241.29 300.538 240.713 300.538 240.017V234.818H301.795V239.932C301.795 240.528 301.962 241.004 302.296 241.359C302.633 241.714 303.063 241.892 303.585 241.892C303.897 241.892 304.215 241.812 304.538 241.652C304.865 241.493 305.139 241.248 305.359 240.917C305.582 240.587 305.694 240.166 305.694 239.655ZM310.361 238.078V243H309.104V234.818H310.318V236.097H310.425C310.617 235.681 310.908 235.347 311.298 235.095C311.689 234.839 312.193 234.712 312.811 234.712C313.365 234.712 313.85 234.825 314.265 235.053C314.681 235.276 315.004 235.617 315.235 236.075C315.466 236.53 315.581 237.105 315.581 237.801V243H314.324V237.886C314.324 237.244 314.157 236.743 313.823 236.384C313.49 236.022 313.031 235.841 312.449 235.841C312.048 235.841 311.689 235.928 311.373 236.102C311.061 236.276 310.814 236.53 310.633 236.864C310.452 237.197 310.361 237.602 310.361 238.078ZM317.728 243V234.818H318.985V243H317.728ZM318.368 233.455C318.122 233.455 317.911 233.371 317.734 233.204C317.56 233.037 317.473 232.837 317.473 232.602C317.473 232.368 317.56 232.167 317.734 232C317.911 231.833 318.122 231.75 318.368 231.75C318.613 231.75 318.822 231.833 318.996 232C319.174 232.167 319.262 232.368 319.262 232.602C319.262 232.837 319.174 233.037 318.996 233.204C318.822 233.371 318.613 233.455 318.368 233.455ZM327.828 234.818L324.803 243H323.524L320.499 234.818H321.862L324.121 241.338H324.206L326.465 234.818H327.828ZM332.475 243.17C331.687 243.17 331.007 242.996 330.435 242.648C329.867 242.297 329.428 241.807 329.119 241.178C328.814 240.546 328.661 239.811 328.661 238.973C328.661 238.135 328.814 237.396 329.119 236.757C329.428 236.114 329.858 235.614 330.408 235.255C330.962 234.893 331.608 234.712 332.347 234.712C332.773 234.712 333.194 234.783 333.61 234.925C334.025 235.067 334.403 235.298 334.744 235.617C335.085 235.933 335.357 236.352 335.559 236.874C335.761 237.396 335.863 238.039 335.863 238.803V239.335H329.556V238.249H334.584C334.584 237.787 334.492 237.375 334.307 237.013C334.126 236.651 333.867 236.365 333.53 236.155C333.196 235.946 332.802 235.841 332.347 235.841C331.846 235.841 331.413 235.965 331.047 236.214C330.685 236.459 330.406 236.778 330.211 237.173C330.016 237.567 329.918 237.989 329.918 238.44V239.165C329.918 239.783 330.025 240.306 330.238 240.736C330.454 241.162 330.754 241.487 331.138 241.711C331.521 241.931 331.967 242.041 332.475 242.041C332.805 242.041 333.103 241.995 333.37 241.903C333.64 241.807 333.872 241.665 334.068 241.477C334.263 241.285 334.414 241.047 334.52 240.763L335.735 241.104C335.607 241.516 335.392 241.878 335.09 242.19C334.788 242.499 334.416 242.741 333.972 242.915C333.528 243.085 333.029 243.17 332.475 243.17ZM337.625 243V234.818H338.839V236.054H338.925C339.074 235.649 339.344 235.321 339.734 235.069C340.125 234.816 340.565 234.69 341.055 234.69C341.148 234.69 341.263 234.692 341.402 234.696C341.54 234.699 341.645 234.705 341.716 234.712V235.99C341.673 235.979 341.576 235.963 341.423 235.942C341.274 235.917 341.116 235.905 340.949 235.905C340.551 235.905 340.196 235.988 339.884 236.155C339.575 236.319 339.33 236.546 339.148 236.837C338.971 237.125 338.882 237.453 338.882 237.822V243H337.625ZM348.851 236.651L347.722 236.97C347.651 236.782 347.546 236.599 347.408 236.422C347.273 236.24 347.088 236.091 346.854 235.974C346.62 235.857 346.32 235.798 345.954 235.798C345.453 235.798 345.036 235.914 344.702 236.145C344.372 236.372 344.207 236.661 344.207 237.013C344.207 237.325 344.32 237.572 344.548 237.753C344.775 237.934 345.13 238.085 345.613 238.206L346.827 238.504C347.559 238.682 348.104 238.953 348.463 239.319C348.821 239.681 349.001 240.148 349.001 240.72C349.001 241.189 348.866 241.608 348.596 241.977C348.329 242.347 347.957 242.638 347.477 242.851C346.998 243.064 346.44 243.17 345.805 243.17C344.97 243.17 344.279 242.989 343.733 242.627C343.186 242.265 342.839 241.736 342.694 241.04L343.887 240.741C344.001 241.182 344.215 241.512 344.532 241.732C344.851 241.952 345.268 242.062 345.783 242.062C346.369 242.062 346.834 241.938 347.179 241.69C347.527 241.437 347.701 241.136 347.701 240.784C347.701 240.5 347.601 240.262 347.403 240.07C347.204 239.875 346.898 239.729 346.486 239.634L345.123 239.314C344.373 239.136 343.823 238.861 343.472 238.488C343.123 238.112 342.949 237.641 342.949 237.077C342.949 236.615 343.079 236.207 343.338 235.852C343.601 235.496 343.958 235.218 344.409 235.015C344.864 234.813 345.378 234.712 345.954 234.712C346.763 234.712 347.399 234.889 347.861 235.244C348.326 235.599 348.656 236.068 348.851 236.651ZM350.743 243V234.818H352V243H350.743ZM351.382 233.455C351.137 233.455 350.926 233.371 350.748 233.204C350.574 233.037 350.487 232.837 350.487 232.602C350.487 232.368 350.574 232.167 350.748 232C350.926 231.833 351.137 231.75 351.382 231.75C351.627 231.75 351.837 231.833 352.011 232C352.188 232.167 352.277 232.368 352.277 232.602C352.277 232.837 352.188 233.037 352.011 233.204C351.837 233.371 351.627 233.455 351.382 233.455ZM357.711 234.818V235.884H353.471V234.818H357.711ZM354.706 232.858H355.964V240.656C355.964 241.011 356.015 241.278 356.118 241.455C356.225 241.629 356.36 241.746 356.523 241.807C356.69 241.864 356.866 241.892 357.05 241.892C357.189 241.892 357.302 241.885 357.391 241.871C357.48 241.853 357.551 241.839 357.604 241.828L357.86 242.957C357.775 242.989 357.656 243.021 357.503 243.053C357.35 243.089 357.157 243.107 356.922 243.107C356.567 243.107 356.219 243.03 355.878 242.877C355.541 242.725 355.26 242.492 355.037 242.18C354.817 241.867 354.706 241.473 354.706 240.997V232.858ZM361.859 243.192C361.341 243.192 360.87 243.094 360.448 242.899C360.025 242.7 359.69 242.414 359.441 242.041C359.193 241.665 359.068 241.21 359.068 240.678C359.068 240.209 359.161 239.829 359.345 239.538C359.53 239.243 359.777 239.012 360.086 238.845C360.395 238.678 360.735 238.554 361.108 238.472C361.485 238.387 361.863 238.32 362.243 238.27C362.74 238.206 363.143 238.158 363.452 238.126C363.765 238.091 363.992 238.032 364.134 237.95C364.28 237.869 364.352 237.727 364.352 237.524V237.482C364.352 236.956 364.208 236.548 363.921 236.256C363.637 235.965 363.205 235.82 362.626 235.82C362.026 235.82 361.556 235.951 361.215 236.214C360.874 236.477 360.634 236.757 360.496 237.055L359.303 236.629C359.516 236.132 359.8 235.745 360.155 235.468C360.514 235.187 360.904 234.992 361.327 234.882C361.753 234.768 362.172 234.712 362.584 234.712C362.847 234.712 363.148 234.744 363.489 234.808C363.834 234.868 364.166 234.994 364.485 235.186C364.809 235.377 365.077 235.667 365.29 236.054C365.503 236.441 365.609 236.96 365.609 237.609V243H364.352V241.892H364.288C364.203 242.07 364.061 242.26 363.862 242.462C363.663 242.664 363.399 242.837 363.069 242.979C362.738 243.121 362.335 243.192 361.859 243.192ZM362.051 242.062C362.548 242.062 362.967 241.965 363.308 241.77C363.653 241.574 363.912 241.322 364.086 241.013C364.264 240.704 364.352 240.379 364.352 240.038V238.888C364.299 238.952 364.182 239.01 364.001 239.064C363.823 239.113 363.617 239.158 363.383 239.197C363.152 239.232 362.927 239.264 362.706 239.293C362.49 239.317 362.314 239.339 362.179 239.357C361.852 239.399 361.547 239.468 361.263 239.564C360.982 239.657 360.755 239.797 360.581 239.985C360.411 240.17 360.325 240.422 360.325 240.741C360.325 241.178 360.487 241.509 360.81 241.732C361.137 241.952 361.55 242.062 362.051 242.062ZM367.754 243V234.818H369.011V243H367.754ZM368.393 233.455C368.148 233.455 367.937 233.371 367.759 233.204C367.585 233.037 367.498 232.837 367.498 232.602C367.498 232.368 367.585 232.167 367.759 232C367.937 231.833 368.148 231.75 368.393 231.75C368.638 231.75 368.848 231.833 369.022 232C369.199 232.167 369.288 232.368 369.288 232.602C369.288 232.837 369.199 233.037 369.022 233.204C368.848 233.371 368.638 233.455 368.393 233.455ZM371.163 243V234.818H372.378V236.054H372.463C372.612 235.649 372.882 235.321 373.273 235.069C373.663 234.816 374.104 234.69 374.594 234.69C374.686 234.69 374.802 234.692 374.94 234.696C375.079 234.699 375.183 234.705 375.254 234.712V235.99C375.212 235.979 375.114 235.963 374.961 235.942C374.812 235.917 374.654 235.905 374.487 235.905C374.09 235.905 373.734 235.988 373.422 236.155C373.113 236.319 372.868 236.546 372.687 236.837C372.509 237.125 372.421 237.453 372.421 237.822V243H371.163ZM379.776 243.17C378.988 243.17 378.307 242.996 377.736 242.648C377.168 242.297 376.729 241.807 376.42 241.178C376.115 240.546 375.962 239.811 375.962 238.973C375.962 238.135 376.115 237.396 376.42 236.757C376.729 236.114 377.159 235.614 377.709 235.255C378.263 234.893 378.909 234.712 379.648 234.712C380.074 234.712 380.495 234.783 380.91 234.925C381.326 235.067 381.704 235.298 382.045 235.617C382.386 235.933 382.658 236.352 382.86 236.874C383.062 237.396 383.164 238.039 383.164 238.803V239.335H376.857V238.249H381.885C381.885 237.787 381.793 237.375 381.608 237.013C381.427 236.651 381.168 236.365 380.831 236.155C380.497 235.946 380.103 235.841 379.648 235.841C379.147 235.841 378.714 235.965 378.348 236.214C377.986 236.459 377.707 236.778 377.512 237.173C377.317 237.567 377.219 237.989 377.219 238.44V239.165C377.219 239.783 377.326 240.306 377.539 240.736C377.755 241.162 378.055 241.487 378.439 241.711C378.822 241.931 379.268 242.041 379.776 242.041C380.106 242.041 380.404 241.995 380.671 241.903C380.941 241.807 381.173 241.665 381.369 241.477C381.564 241.285 381.715 241.047 381.821 240.763L383.036 241.104C382.908 241.516 382.693 241.878 382.391 242.19C382.089 242.499 381.717 242.741 381.273 242.915C380.829 243.085 380.33 243.17 379.776 243.17ZM390.721 236.651L389.592 236.97C389.521 236.782 389.416 236.599 389.278 236.422C389.143 236.24 388.958 236.091 388.724 235.974C388.49 235.857 388.189 235.798 387.824 235.798C387.323 235.798 386.906 235.914 386.572 236.145C386.242 236.372 386.077 236.661 386.077 237.013C386.077 237.325 386.19 237.572 386.417 237.753C386.645 237.934 387 238.085 387.483 238.206L388.697 238.504C389.429 238.682 389.974 238.953 390.333 239.319C390.691 239.681 390.871 240.148 390.871 240.72C390.871 241.189 390.736 241.608 390.466 241.977C390.199 242.347 389.827 242.638 389.347 242.851C388.868 243.064 388.31 243.17 387.675 243.17C386.84 243.17 386.149 242.989 385.602 242.627C385.056 242.265 384.709 241.736 384.564 241.04L385.757 240.741C385.871 241.182 386.085 241.512 386.401 241.732C386.721 241.952 387.138 242.062 387.653 242.062C388.239 242.062 388.704 241.938 389.049 241.69C389.397 241.437 389.571 241.136 389.571 240.784C389.571 240.5 389.471 240.262 389.273 240.07C389.074 239.875 388.768 239.729 388.356 239.634L386.993 239.314C386.243 239.136 385.693 238.861 385.341 238.488C384.993 238.112 384.819 237.641 384.819 237.077C384.819 236.615 384.949 236.207 385.208 235.852C385.471 235.496 385.828 235.218 386.279 235.015C386.733 234.813 387.248 234.712 387.824 234.712C388.633 234.712 389.269 234.889 389.731 235.244C390.196 235.599 390.526 236.068 390.721 236.651ZM38.581 261.17C37.7926 261.17 37.1126 260.996 36.5408 260.648C35.9727 260.297 35.5341 259.807 35.2251 259.178C34.9197 258.546 34.767 257.811 34.767 256.973C34.767 256.135 34.9197 255.396 35.2251 254.757C35.5341 254.114 35.9638 253.614 36.5142 253.255C37.0682 252.893 37.7145 252.712 38.4531 252.712C38.8793 252.712 39.3001 252.783 39.7156 252.925C40.131 253.067 40.5092 253.298 40.8501 253.617C41.1911 253.933 41.4627 254.352 41.6651 254.874C41.8675 255.396 41.9688 256.039 41.9688 256.803V257.335H35.6619V256.249H40.6903C40.6903 255.787 40.598 255.375 40.4134 255.013C40.2322 254.651 39.973 254.365 39.6357 254.155C39.3018 253.946 38.9077 253.841 38.4531 253.841C37.9524 253.841 37.5192 253.965 37.1534 254.214C36.7912 254.459 36.5124 254.778 36.3171 255.173C36.1218 255.567 36.0241 255.989 36.0241 256.44V257.165C36.0241 257.783 36.1307 258.306 36.3438 258.736C36.5604 259.162 36.8604 259.487 37.244 259.711C37.6275 259.931 38.0732 260.041 38.581 260.041C38.9112 260.041 39.2095 259.995 39.4759 259.903C39.7457 259.807 39.9783 259.665 40.1737 259.477C40.369 259.285 40.5199 259.047 40.6264 258.763L41.8409 259.104C41.7131 259.516 41.4982 259.878 41.1964 260.19C40.8945 260.499 40.5217 260.741 40.0778 260.915C39.6339 261.085 39.1349 261.17 38.581 261.17ZM47.2893 252.818V253.884H43.0492V252.818H47.2893ZM44.285 250.858H45.5421V258.656C45.5421 259.011 45.5936 259.278 45.6966 259.455C45.8031 259.629 45.9381 259.746 46.1014 259.807C46.2683 259.864 46.4441 259.892 46.6288 259.892C46.7673 259.892 46.8809 259.885 46.9697 259.871C47.0585 259.853 47.1295 259.839 47.1827 259.828L47.4384 260.957C47.3532 260.989 47.2342 261.021 47.0815 261.053C46.9288 261.089 46.7353 261.107 46.5009 261.107C46.1458 261.107 45.7978 261.03 45.4569 260.877C45.1195 260.725 44.839 260.492 44.6153 260.18C44.3951 259.867 44.285 259.473 44.285 258.997V250.858ZM56.1885 261.17C55.5067 261.17 54.9048 260.998 54.3827 260.654C53.8607 260.306 53.4523 259.816 53.1576 259.184C52.8629 258.548 52.7155 257.797 52.7155 256.93C52.7155 256.071 52.8629 255.325 53.1576 254.693C53.4523 254.061 53.8625 253.573 54.3881 253.228C54.9136 252.884 55.5209 252.712 56.2098 252.712C56.7425 252.712 57.1633 252.8 57.4722 252.978C57.7847 253.152 58.0227 253.351 58.186 253.575C58.3529 253.795 58.4825 253.976 58.5749 254.118H58.6814V250.091H59.9385V261H58.724V259.743H58.5749C58.4825 259.892 58.3511 260.08 58.1807 260.308C58.0102 260.531 57.767 260.732 57.4509 260.909C57.1349 261.083 56.7141 261.17 56.1885 261.17ZM56.3589 260.041C56.8632 260.041 57.2893 259.91 57.6374 259.647C57.9854 259.381 58.2499 259.013 58.431 258.544C58.6121 258.072 58.7027 257.527 58.7027 256.909C58.7027 256.298 58.6139 255.764 58.4364 255.306C58.2588 254.844 57.996 254.485 57.648 254.23C57.3 253.971 56.8703 253.841 56.3589 253.841C55.8263 253.841 55.3824 253.978 55.0273 254.251C54.6757 254.521 54.4111 254.888 54.2336 255.354C54.0596 255.815 53.9726 256.334 53.9726 256.909C53.9726 257.491 54.0614 258.021 54.2389 258.496C54.42 258.969 54.6864 259.345 55.0379 259.626C55.393 259.903 55.8334 260.041 56.3589 260.041ZM65.6958 261.17C64.9075 261.17 64.2274 260.996 63.6557 260.648C63.0875 260.297 62.6489 259.807 62.34 259.178C62.0346 258.546 61.8819 257.811 61.8819 256.973C61.8819 256.135 62.0346 255.396 62.34 254.757C62.6489 254.114 63.0786 253.614 63.629 253.255C64.183 252.893 64.8293 252.712 65.568 252.712C65.9941 252.712 66.4149 252.783 66.8304 252.925C67.2459 253.067 67.6241 253.298 67.965 253.617C68.3059 253.933 68.5776 254.352 68.78 254.874C68.9824 255.396 69.0836 256.039 69.0836 256.803V257.335H62.7768V256.249H67.8052C67.8052 255.787 67.7129 255.375 67.5282 255.013C67.3471 254.651 67.0879 254.365 66.7505 254.155C66.4167 253.946 66.0225 253.841 65.568 253.841C65.0673 253.841 64.634 253.965 64.2683 254.214C63.906 254.459 63.6273 254.778 63.432 255.173C63.2366 255.567 63.139 255.989 63.139 256.44V257.165C63.139 257.783 63.2455 258.306 63.4586 258.736C63.6752 259.162 63.9753 259.487 64.3588 259.711C64.7423 259.931 65.188 260.041 65.6958 260.041C66.0261 260.041 66.3244 259.995 66.5907 259.903C66.8606 259.807 67.0932 259.665 67.2885 259.477C67.4838 259.285 67.6347 259.047 67.7413 258.763L68.9558 259.104C68.8279 259.516 68.6131 259.878 68.3112 260.19C68.0094 260.499 67.6365 260.741 67.1926 260.915C66.7487 261.085 66.2498 261.17 65.6958 261.17ZM74.9146 261V252.818H76.1291V254.054H76.2143C76.3635 253.649 76.6334 253.321 77.024 253.069C77.4146 252.816 77.855 252.69 78.345 252.69C78.4374 252.69 78.5528 252.692 78.6913 252.696C78.8298 252.699 78.9345 252.705 79.0055 252.712V253.99C78.9629 253.979 78.8653 253.963 78.7126 253.942C78.5634 253.917 78.4054 253.905 78.2385 253.905C77.8408 253.905 77.4857 253.988 77.1732 254.155C76.8642 254.319 76.6192 254.546 76.4381 254.837C76.2605 255.125 76.1717 255.453 76.1717 255.822V261H74.9146ZM83.5271 261.17C82.7387 261.17 82.0587 260.996 81.4869 260.648C80.9188 260.297 80.4802 259.807 80.1712 259.178C79.8658 258.546 79.7131 257.811 79.7131 256.973C79.7131 256.135 79.8658 255.396 80.1712 254.757C80.4802 254.114 80.9099 253.614 81.4603 253.255C82.0143 252.893 82.6606 252.712 83.3992 252.712C83.8254 252.712 84.2462 252.783 84.6616 252.925C85.0771 253.067 85.4553 253.298 85.7962 253.617C86.1371 253.933 86.4088 254.352 86.6112 254.874C86.8136 255.396 86.9148 256.039 86.9148 256.803V257.335H80.608V256.249H85.6364C85.6364 255.787 85.5441 255.375 85.3594 255.013C85.1783 254.651 84.9191 254.365 84.5817 254.155C84.2479 253.946 83.8538 253.841 83.3992 253.841C82.8985 253.841 82.4653 253.965 82.0995 254.214C81.7373 254.459 81.4585 254.778 81.2632 255.173C81.0679 255.567 80.9702 255.989 80.9702 256.44V257.165C80.9702 257.783 81.0768 258.306 81.2898 258.736C81.5065 259.162 81.8065 259.487 82.1901 259.711C82.5736 259.931 83.0192 260.041 83.5271 260.041C83.8573 260.041 84.1556 259.995 84.4219 259.903C84.6918 259.807 84.9244 259.665 85.1197 259.477C85.3151 259.285 85.466 259.047 85.5725 258.763L86.787 259.104C86.6592 259.516 86.4443 259.878 86.1425 260.19C85.8406 260.499 85.4678 260.741 85.0239 260.915C84.58 261.085 84.081 261.17 83.5271 261.17ZM92.001 261.17C91.2339 261.17 90.5734 260.989 90.0195 260.627C89.4655 260.265 89.0393 259.766 88.7411 259.13C88.4428 258.495 88.2936 257.768 88.2936 256.952C88.2936 256.121 88.4463 255.387 88.7517 254.752C89.0607 254.113 89.4903 253.614 90.0408 253.255C90.5947 252.893 91.2411 252.712 91.9797 252.712C92.555 252.712 93.0734 252.818 93.5351 253.031C93.9967 253.244 94.3749 253.543 94.6697 253.926C94.9644 254.31 95.1473 254.757 95.2183 255.268H93.9612C93.8653 254.896 93.6523 254.565 93.322 254.278C92.9953 253.987 92.555 253.841 92.001 253.841C91.5109 253.841 91.0812 253.969 90.7119 254.224C90.3462 254.477 90.0603 254.833 89.8543 255.295C89.6519 255.753 89.5507 256.291 89.5507 256.909C89.5507 257.541 89.6501 258.092 89.849 258.56C90.0514 259.029 90.3355 259.393 90.7013 259.652C91.0706 259.912 91.5038 260.041 92.001 260.041C92.3277 260.041 92.6242 259.984 92.8906 259.871C93.1569 259.757 93.3824 259.594 93.567 259.381C93.7517 259.168 93.8831 258.912 93.9612 258.614H95.2183C95.1473 259.097 94.9715 259.532 94.691 259.919C94.414 260.302 94.0464 260.608 93.5884 260.835C93.1338 261.059 92.6047 261.17 92.001 261.17ZM98.1631 256.078V261H96.906V250.091H98.1631V254.097H98.2697C98.4614 253.674 98.7491 253.338 99.1326 253.09C99.5197 252.838 100.035 252.712 100.677 252.712C101.235 252.712 101.723 252.824 102.142 253.047C102.561 253.267 102.886 253.607 103.117 254.065C103.351 254.519 103.469 255.098 103.469 255.801V261H102.211V255.886C102.211 255.237 102.043 254.734 101.705 254.379C101.372 254.02 100.908 253.841 100.315 253.841C99.9032 253.841 99.5339 253.928 99.2072 254.102C98.884 254.276 98.6283 254.53 98.4401 254.864C98.2555 255.197 98.1631 255.602 98.1631 256.078ZM109.049 261.17C108.26 261.17 107.58 260.996 107.009 260.648C106.44 260.297 106.002 259.807 105.693 259.178C105.388 258.546 105.235 257.811 105.235 256.973C105.235 256.135 105.388 255.396 105.693 254.757C106.002 254.114 106.432 253.614 106.982 253.255C107.536 252.893 108.182 252.712 108.921 252.712C109.347 252.712 109.768 252.783 110.183 252.925C110.599 253.067 110.977 253.298 111.318 253.617C111.659 253.933 111.93 254.352 112.133 254.874C112.335 255.396 112.437 256.039 112.437 256.803V257.335H106.13V256.249H111.158C111.158 255.787 111.066 255.375 110.881 255.013C110.7 254.651 110.441 254.365 110.103 254.155C109.77 253.946 109.375 253.841 108.921 253.841C108.42 253.841 107.987 253.965 107.621 254.214C107.259 254.459 106.98 254.778 106.785 255.173C106.59 255.567 106.492 255.989 106.492 256.44V257.165C106.492 257.783 106.598 258.306 106.812 258.736C107.028 259.162 107.328 259.487 107.712 259.711C108.095 259.931 108.541 260.041 109.049 260.041C109.379 260.041 109.677 259.995 109.944 259.903C110.214 259.807 110.446 259.665 110.641 259.477C110.837 259.285 110.988 259.047 111.094 258.763L112.309 259.104C112.181 259.516 111.966 259.878 111.664 260.19C111.362 260.499 110.989 260.741 110.546 260.915C110.102 261.085 109.603 261.17 109.049 261.17ZM114.199 261V252.818H115.413V254.054H115.499C115.648 253.649 115.918 253.321 116.308 253.069C116.699 252.816 117.139 252.69 117.629 252.69C117.722 252.69 117.837 252.692 117.975 252.696C118.114 252.699 118.219 252.705 118.29 252.712V253.99C118.247 253.979 118.149 253.963 117.997 253.942C117.848 253.917 117.69 253.905 117.523 253.905C117.125 253.905 116.77 253.988 116.457 254.155C116.148 254.319 115.903 254.546 115.722 254.837C115.545 255.125 115.456 255.453 115.456 255.822V261H114.199ZM122.705 261.17C121.938 261.17 121.277 260.989 120.723 260.627C120.169 260.265 119.743 259.766 119.445 259.13C119.146 258.495 118.997 257.768 118.997 256.952C118.997 256.121 119.15 255.387 119.455 254.752C119.764 254.113 120.194 253.614 120.744 253.255C121.298 252.893 121.945 252.712 122.683 252.712C123.259 252.712 123.777 252.818 124.239 253.031C124.7 253.244 125.079 253.543 125.373 253.926C125.668 254.31 125.851 254.757 125.922 255.268H124.665C124.569 254.896 124.356 254.565 124.026 254.278C123.699 253.987 123.259 253.841 122.705 253.841C122.215 253.841 121.785 253.969 121.416 254.224C121.05 254.477 120.764 254.833 120.558 255.295C120.356 255.753 120.254 256.291 120.254 256.909C120.254 257.541 120.354 258.092 120.553 258.56C120.755 259.029 121.039 259.393 121.405 259.652C121.774 259.912 122.208 260.041 122.705 260.041C123.031 260.041 123.328 259.984 123.594 259.871C123.861 259.757 124.086 259.594 124.271 259.381C124.455 259.168 124.587 258.912 124.665 258.614H125.922C125.851 259.097 125.675 259.532 125.395 259.919C125.118 260.302 124.75 260.608 124.292 260.835C123.838 261.059 123.308 261.17 122.705 261.17ZM128.867 256.078V261H127.61V250.091H128.867V254.097H128.973C129.165 253.674 129.453 253.338 129.836 253.09C130.223 252.838 130.738 252.712 131.381 252.712C131.939 252.712 132.427 252.824 132.846 253.047C133.265 253.267 133.59 253.607 133.821 254.065C134.055 254.519 134.172 255.098 134.172 255.801V261H132.915V255.886C132.915 255.237 132.746 254.734 132.409 254.379C132.075 254.02 131.612 253.841 131.019 253.841C130.607 253.841 130.238 253.928 129.911 254.102C129.588 254.276 129.332 254.53 129.144 254.864C128.959 255.197 128.867 255.602 128.867 256.078ZM139.752 261.17C138.964 261.17 138.284 260.996 137.712 260.648C137.144 260.297 136.706 259.807 136.397 259.178C136.091 258.546 135.939 257.811 135.939 256.973C135.939 256.135 136.091 255.396 136.397 254.757C136.706 254.114 137.135 253.614 137.686 253.255C138.24 252.893 138.886 252.712 139.625 252.712C140.051 252.712 140.472 252.783 140.887 252.925C141.303 253.067 141.681 253.298 142.022 253.617C142.363 253.933 142.634 254.352 142.837 254.874C143.039 255.396 143.14 256.039 143.14 256.803V257.335H136.833V256.249H141.862C141.862 255.787 141.769 255.375 141.585 255.013C141.404 254.651 141.144 254.365 140.807 254.155C140.473 253.946 140.079 253.841 139.625 253.841C139.124 253.841 138.691 253.965 138.325 254.214C137.963 254.459 137.684 254.778 137.489 255.173C137.293 255.567 137.196 255.989 137.196 256.44V257.165C137.196 257.783 137.302 258.306 137.515 258.736C137.732 259.162 138.032 259.487 138.415 259.711C138.799 259.931 139.245 260.041 139.752 260.041C140.083 260.041 140.381 259.995 140.647 259.903C140.917 259.807 141.15 259.665 141.345 259.477C141.54 259.285 141.691 259.047 141.798 258.763L143.012 259.104C142.885 259.516 142.67 259.878 142.368 260.19C142.066 260.499 141.693 260.741 141.249 260.915C140.805 261.085 140.306 261.17 139.752 261.17ZM148.971 264.068V252.818H150.186V254.118H150.335C150.427 253.976 150.555 253.795 150.718 253.575C150.885 253.351 151.123 253.152 151.432 252.978C151.745 252.8 152.167 252.712 152.7 252.712C153.389 252.712 153.996 252.884 154.522 253.228C155.047 253.573 155.457 254.061 155.752 254.693C156.047 255.325 156.194 256.071 156.194 256.93C156.194 257.797 156.047 258.548 155.752 259.184C155.457 259.816 155.049 260.306 154.527 260.654C154.005 260.998 153.403 261.17 152.721 261.17C152.196 261.17 151.775 261.083 151.459 260.909C151.143 260.732 150.9 260.531 150.729 260.308C150.559 260.08 150.427 259.892 150.335 259.743H150.228V264.068H148.971ZM150.207 256.909C150.207 257.527 150.298 258.072 150.479 258.544C150.66 259.013 150.924 259.381 151.272 259.647C151.62 259.91 152.047 260.041 152.551 260.041C153.076 260.041 153.515 259.903 153.867 259.626C154.222 259.345 154.488 258.969 154.666 258.496C154.847 258.021 154.937 257.491 154.937 256.909C154.937 256.334 154.848 255.815 154.671 255.354C154.497 254.888 154.232 254.521 153.877 254.251C153.526 253.978 153.083 253.841 152.551 253.841C152.039 253.841 151.61 253.971 151.262 254.23C150.914 254.485 150.651 254.844 150.473 255.306C150.296 255.764 150.207 256.298 150.207 256.909ZM161.286 261.17C160.547 261.17 159.899 260.995 159.342 260.643C158.788 260.292 158.354 259.8 158.042 259.168C157.733 258.536 157.578 257.797 157.578 256.952C157.578 256.099 157.733 255.355 158.042 254.72C158.354 254.084 158.788 253.591 159.342 253.239C159.899 252.887 160.547 252.712 161.286 252.712C162.024 252.712 162.671 252.887 163.225 253.239C163.782 253.591 164.215 254.084 164.524 254.72C164.837 255.355 164.993 256.099 164.993 256.952C164.993 257.797 164.837 258.536 164.524 259.168C164.215 259.8 163.782 260.292 163.225 260.643C162.671 260.995 162.024 261.17 161.286 261.17ZM161.286 260.041C161.847 260.041 162.308 259.897 162.671 259.61C163.033 259.322 163.301 258.944 163.475 258.475C163.649 258.006 163.736 257.499 163.736 256.952C163.736 256.405 163.649 255.895 163.475 255.423C163.301 254.951 163.033 254.569 162.671 254.278C162.308 253.987 161.847 253.841 161.286 253.841C160.725 253.841 160.263 253.987 159.901 254.278C159.539 254.569 159.27 254.951 159.096 255.423C158.922 255.895 158.835 256.405 158.835 256.952C158.835 257.499 158.922 258.006 159.096 258.475C159.27 258.944 159.539 259.322 159.901 259.61C160.263 259.897 160.725 260.041 161.286 260.041ZM171.918 257.655V252.818H173.175V261H171.918V259.615H171.833C171.641 260.031 171.343 260.384 170.938 260.675C170.533 260.963 170.022 261.107 169.404 261.107C168.893 261.107 168.438 260.995 168.041 260.771C167.643 260.544 167.33 260.203 167.103 259.748C166.876 259.29 166.762 258.713 166.762 258.017V252.818H168.019V257.932C168.019 258.528 168.186 259.004 168.52 259.359C168.857 259.714 169.287 259.892 169.809 259.892C170.121 259.892 170.439 259.812 170.762 259.652C171.089 259.493 171.363 259.248 171.583 258.917C171.806 258.587 171.918 258.166 171.918 257.655ZM175.328 261V252.818H176.542V254.054H176.628C176.777 253.649 177.047 253.321 177.437 253.069C177.828 252.816 178.268 252.69 178.758 252.69C178.851 252.69 178.966 252.692 179.105 252.696C179.243 252.699 179.348 252.705 179.419 252.712V253.99C179.376 253.979 179.279 253.963 179.126 253.942C178.977 253.917 178.819 253.905 178.652 253.905C178.254 253.905 177.899 253.988 177.586 254.155C177.277 254.319 177.032 254.546 176.851 254.837C176.674 255.125 176.585 255.453 176.585 255.822V261H175.328ZM186.085 250.091V261H184.828V250.091H186.085ZM189.324 250.091V253.841H188.152V250.091H189.324ZM193.82 261.192C193.302 261.192 192.831 261.094 192.409 260.899C191.986 260.7 191.65 260.414 191.402 260.041C191.153 259.665 191.029 259.21 191.029 258.678C191.029 258.209 191.121 257.829 191.306 257.538C191.491 257.243 191.737 257.012 192.046 256.845C192.355 256.678 192.696 256.554 193.069 256.472C193.446 256.387 193.824 256.32 194.204 256.27C194.701 256.206 195.104 256.158 195.413 256.126C195.725 256.091 195.953 256.032 196.095 255.95C196.24 255.869 196.313 255.727 196.313 255.524V255.482C196.313 254.956 196.169 254.548 195.882 254.256C195.597 253.965 195.166 253.82 194.587 253.82C193.987 253.82 193.517 253.951 193.176 254.214C192.835 254.477 192.595 254.757 192.457 255.055L191.263 254.629C191.476 254.132 191.76 253.745 192.116 253.468C192.474 253.187 192.865 252.992 193.287 252.882C193.714 252.768 194.133 252.712 194.545 252.712C194.807 252.712 195.109 252.744 195.45 252.808C195.795 252.868 196.127 252.994 196.446 253.186C196.769 253.377 197.037 253.667 197.251 254.054C197.464 254.441 197.57 254.96 197.57 255.609V261H196.313V259.892H196.249C196.164 260.07 196.022 260.26 195.823 260.462C195.624 260.664 195.36 260.837 195.029 260.979C194.699 261.121 194.296 261.192 193.82 261.192ZM194.012 260.062C194.509 260.062 194.928 259.965 195.269 259.77C195.613 259.574 195.873 259.322 196.047 259.013C196.224 258.704 196.313 258.379 196.313 258.038V256.888C196.26 256.952 196.143 257.01 195.961 257.064C195.784 257.113 195.578 257.158 195.344 257.197C195.113 257.232 194.887 257.264 194.667 257.293C194.45 257.317 194.275 257.339 194.14 257.357C193.813 257.399 193.508 257.468 193.224 257.564C192.943 257.657 192.716 257.797 192.542 257.985C192.371 258.17 192.286 258.422 192.286 258.741C192.286 259.178 192.448 259.509 192.771 259.732C193.097 259.952 193.511 260.062 194.012 260.062ZM203.038 261.17C202.271 261.17 201.611 260.989 201.057 260.627C200.503 260.265 200.077 259.766 199.779 259.13C199.48 258.495 199.331 257.768 199.331 256.952C199.331 256.121 199.484 255.387 199.789 254.752C200.098 254.113 200.528 253.614 201.078 253.255C201.632 252.893 202.279 252.712 203.017 252.712C203.592 252.712 204.111 252.818 204.573 253.031C205.034 253.244 205.412 253.543 205.707 253.926C206.002 254.31 206.185 254.757 206.256 255.268H204.999C204.903 254.896 204.69 254.565 204.36 254.278C204.033 253.987 203.592 253.841 203.038 253.841C202.548 253.841 202.119 253.969 201.749 254.224C201.384 254.477 201.098 254.833 200.892 255.295C200.689 255.753 200.588 256.291 200.588 256.909C200.588 257.541 200.688 258.092 200.886 258.56C201.089 259.029 201.373 259.393 201.739 259.652C202.108 259.912 202.541 260.041 203.038 260.041C203.365 260.041 203.662 259.984 203.928 259.871C204.194 259.757 204.42 259.594 204.605 259.381C204.789 259.168 204.921 258.912 204.999 258.614H206.256C206.185 259.097 206.009 259.532 205.728 259.919C205.451 260.302 205.084 260.608 204.626 260.835C204.171 261.059 203.642 261.17 203.038 261.17ZM211.267 261.17C210.5 261.17 209.84 260.989 209.286 260.627C208.732 260.265 208.306 259.766 208.007 259.13C207.709 258.495 207.56 257.768 207.56 256.952C207.56 256.121 207.713 255.387 208.018 254.752C208.327 254.113 208.757 253.614 209.307 253.255C209.861 252.893 210.507 252.712 211.246 252.712C211.821 252.712 212.34 252.818 212.801 253.031C213.263 253.244 213.641 253.543 213.936 253.926C214.231 254.31 214.414 254.757 214.485 255.268H213.228C213.132 254.896 212.919 254.565 212.588 254.278C212.262 253.987 211.821 253.841 211.267 253.841C210.777 253.841 210.348 253.969 209.978 254.224C209.613 254.477 209.327 254.833 209.121 255.295C208.918 255.753 208.817 256.291 208.817 256.909C208.817 257.541 208.917 258.092 209.115 258.56C209.318 259.029 209.602 259.393 209.968 259.652C210.337 259.912 210.77 260.041 211.267 260.041C211.594 260.041 211.891 259.984 212.157 259.871C212.423 259.757 212.649 259.594 212.833 259.381C213.018 259.168 213.15 258.912 213.228 258.614H214.485C214.414 259.097 214.238 259.532 213.957 259.919C213.68 260.302 213.313 260.608 212.855 260.835C212.4 261.059 211.871 261.17 211.267 261.17ZM219.603 261.17C218.814 261.17 218.134 260.996 217.563 260.648C216.995 260.297 216.556 259.807 216.247 259.178C215.942 258.546 215.789 257.811 215.789 256.973C215.789 256.135 215.942 255.396 216.247 254.757C216.556 254.114 216.986 253.614 217.536 253.255C218.09 252.893 218.736 252.712 219.475 252.712C219.901 252.712 220.322 252.783 220.737 252.925C221.153 253.067 221.531 253.298 221.872 253.617C222.213 253.933 222.485 254.352 222.687 254.874C222.889 255.396 222.991 256.039 222.991 256.803V257.335H216.684V256.249H221.712C221.712 255.787 221.62 255.375 221.435 255.013C221.254 254.651 220.995 254.365 220.658 254.155C220.324 253.946 219.93 253.841 219.475 253.841C218.974 253.841 218.541 253.965 218.175 254.214C217.813 254.459 217.534 254.778 217.339 255.173C217.144 255.567 217.046 255.989 217.046 256.44V257.165C217.046 257.783 217.153 258.306 217.366 258.736C217.582 259.162 217.882 259.487 218.266 259.711C218.649 259.931 219.095 260.041 219.603 260.041C219.933 260.041 220.231 259.995 220.498 259.903C220.768 259.807 221 259.665 221.196 259.477C221.391 259.285 221.542 259.047 221.648 258.763L222.863 259.104C222.735 259.516 222.52 259.878 222.218 260.19C221.916 260.499 221.544 260.741 221.1 260.915C220.656 261.085 220.157 261.17 219.603 261.17ZM218.878 251.71L217.216 249.239H218.687L219.986 251.71H218.878ZM230.548 254.651L229.419 254.97C229.348 254.782 229.243 254.599 229.105 254.422C228.97 254.24 228.785 254.091 228.551 253.974C228.316 253.857 228.016 253.798 227.651 253.798C227.15 253.798 226.733 253.914 226.399 254.145C226.069 254.372 225.903 254.661 225.903 255.013C225.903 255.325 226.017 255.572 226.244 255.753C226.472 255.934 226.827 256.085 227.31 256.206L228.524 256.504C229.256 256.682 229.801 256.953 230.16 257.319C230.518 257.681 230.698 258.148 230.698 258.72C230.698 259.189 230.563 259.608 230.293 259.977C230.026 260.347 229.653 260.638 229.174 260.851C228.695 261.064 228.137 261.17 227.501 261.17C226.667 261.17 225.976 260.989 225.429 260.627C224.883 260.265 224.536 259.736 224.391 259.04L225.584 258.741C225.698 259.182 225.912 259.512 226.228 259.732C226.548 259.952 226.965 260.062 227.48 260.062C228.066 260.062 228.531 259.938 228.876 259.69C229.224 259.437 229.398 259.136 229.398 258.784C229.398 258.5 229.298 258.262 229.099 258.07C228.901 257.875 228.595 257.729 228.183 257.634L226.82 257.314C226.07 257.136 225.52 256.861 225.168 256.488C224.82 256.112 224.646 255.641 224.646 255.077C224.646 254.615 224.776 254.207 225.035 253.852C225.298 253.496 225.655 253.218 226.106 253.015C226.56 252.813 227.075 252.712 227.651 252.712C228.46 252.712 229.096 252.889 229.558 253.244C230.023 253.599 230.353 254.068 230.548 254.651ZM238.916 261.192C238.398 261.192 237.927 261.094 237.505 260.899C237.082 260.7 236.746 260.414 236.498 260.041C236.249 259.665 236.125 259.21 236.125 258.678C236.125 258.209 236.217 257.829 236.402 257.538C236.587 257.243 236.833 257.012 237.142 256.845C237.451 256.678 237.792 256.554 238.165 256.472C238.542 256.387 238.92 256.32 239.3 256.27C239.797 256.206 240.2 256.158 240.509 256.126C240.821 256.091 241.049 256.032 241.191 255.95C241.336 255.869 241.409 255.727 241.409 255.524V255.482C241.409 254.956 241.265 254.548 240.978 254.256C240.694 253.965 240.262 253.82 239.683 253.82C239.083 253.82 238.613 253.951 238.272 254.214C237.931 254.477 237.691 254.757 237.553 255.055L236.359 254.629C236.572 254.132 236.857 253.745 237.212 253.468C237.57 253.187 237.961 252.992 238.384 252.882C238.81 252.768 239.229 252.712 239.641 252.712C239.903 252.712 240.205 252.744 240.546 252.808C240.891 252.868 241.223 252.994 241.542 253.186C241.865 253.377 242.134 253.667 242.347 254.054C242.56 254.441 242.666 254.96 242.666 255.609V261H241.409V259.892H241.345C241.26 260.07 241.118 260.26 240.919 260.462C240.72 260.664 240.456 260.837 240.125 260.979C239.795 261.121 239.392 261.192 238.916 261.192ZM239.108 260.062C239.605 260.062 240.024 259.965 240.365 259.77C240.71 259.574 240.969 259.322 241.143 259.013C241.32 258.704 241.409 258.379 241.409 258.038V256.888C241.356 256.952 241.239 257.01 241.058 257.064C240.88 257.113 240.674 257.158 240.44 257.197C240.209 257.232 239.983 257.264 239.763 257.293C239.547 257.317 239.371 257.339 239.236 257.357C238.909 257.399 238.604 257.468 238.32 257.564C238.039 257.657 237.812 257.797 237.638 257.985C237.467 258.17 237.382 258.422 237.382 258.741C237.382 259.178 237.544 259.509 237.867 259.732C238.194 259.952 238.607 260.062 239.108 260.062ZM249.967 257.655V252.818H251.224V261H249.967V259.615H249.882C249.69 260.031 249.392 260.384 248.987 260.675C248.582 260.963 248.071 261.107 247.453 261.107C246.941 261.107 246.487 260.995 246.089 260.771C245.691 260.544 245.379 260.203 245.152 259.748C244.924 259.29 244.811 258.713 244.811 258.017V252.818H246.068V257.932C246.068 258.528 246.235 259.004 246.569 259.359C246.906 259.714 247.336 259.892 247.858 259.892C248.17 259.892 248.488 259.812 248.811 259.652C249.138 259.493 249.411 259.248 249.631 258.917C249.855 258.587 249.967 258.166 249.967 257.655ZM254.314 252.818L256.274 256.163L258.235 252.818H259.683L257.041 256.909L259.683 261H258.235L256.274 257.825L254.314 261H252.865L255.465 256.909L252.865 252.818H254.314ZM265.396 264.068V252.818H266.61V254.118H266.76C266.852 253.976 266.98 253.795 267.143 253.575C267.31 253.351 267.548 253.152 267.857 252.978C268.169 252.8 268.592 252.712 269.125 252.712C269.813 252.712 270.421 252.884 270.946 253.228C271.472 253.573 271.882 254.061 272.177 254.693C272.472 255.325 272.619 256.071 272.619 256.93C272.619 257.797 272.472 258.548 272.177 259.184C271.882 259.816 271.474 260.306 270.952 260.654C270.43 260.998 269.828 261.17 269.146 261.17C268.62 261.17 268.2 261.083 267.883 260.909C267.567 260.732 267.324 260.531 267.154 260.308C266.983 260.08 266.852 259.892 266.76 259.743H266.653V264.068H265.396ZM266.632 256.909C266.632 257.527 266.722 258.072 266.903 258.544C267.084 259.013 267.349 259.381 267.697 259.647C268.045 259.91 268.471 260.041 268.975 260.041C269.501 260.041 269.94 259.903 270.291 259.626C270.646 259.345 270.913 258.969 271.09 258.496C271.271 258.021 271.362 257.491 271.362 256.909C271.362 256.334 271.273 255.815 271.095 255.354C270.921 254.888 270.657 254.521 270.302 254.251C269.95 253.978 269.508 253.841 268.975 253.841C268.464 253.841 268.034 253.971 267.686 254.23C267.338 254.485 267.076 254.844 266.898 255.306C266.72 255.764 266.632 256.298 266.632 256.909ZM279.543 257.655V252.818H280.8V261H279.543V259.615H279.458C279.266 260.031 278.967 260.384 278.563 260.675C278.158 260.963 277.646 261.107 277.029 261.107C276.517 261.107 276.063 260.995 275.665 260.771C275.267 260.544 274.955 260.203 274.727 259.748C274.5 259.29 274.386 258.713 274.386 258.017V252.818H275.644V257.932C275.644 258.528 275.811 259.004 276.144 259.359C276.482 259.714 276.911 259.892 277.433 259.892C277.746 259.892 278.064 259.812 278.387 259.652C278.714 259.493 278.987 259.248 279.207 258.917C279.431 258.587 279.543 258.166 279.543 257.655ZM283.123 261V250.091H284.38V254.118H284.486C284.579 253.976 284.707 253.795 284.87 253.575C285.037 253.351 285.275 253.152 285.584 252.978C285.896 252.8 286.319 252.712 286.851 252.712C287.54 252.712 288.148 252.884 288.673 253.228C289.199 253.573 289.609 254.061 289.904 254.693C290.198 255.325 290.346 256.071 290.346 256.93C290.346 257.797 290.198 258.548 289.904 259.184C289.609 259.816 289.201 260.306 288.679 260.654C288.157 260.998 287.555 261.17 286.873 261.17C286.347 261.17 285.926 261.083 285.61 260.909C285.294 260.732 285.051 260.531 284.881 260.308C284.71 260.08 284.579 259.892 284.486 259.743H284.337V261H283.123ZM284.359 256.909C284.359 257.527 284.449 258.072 284.63 258.544C284.811 259.013 285.076 259.381 285.424 259.647C285.772 259.91 286.198 260.041 286.702 260.041C287.228 260.041 287.666 259.903 288.018 259.626C288.373 259.345 288.639 258.969 288.817 258.496C288.998 258.021 289.089 257.491 289.089 256.909C289.089 256.334 289 255.815 288.822 255.354C288.648 254.888 288.384 254.521 288.029 254.251C287.677 253.978 287.235 253.841 286.702 253.841C286.191 253.841 285.761 253.971 285.413 254.23C285.065 254.485 284.802 254.844 284.625 255.306C284.447 255.764 284.359 256.298 284.359 256.909ZM293.376 250.091V261H292.119V250.091H293.376ZM295.528 261V252.818H296.785V261H295.528ZM296.168 251.455C295.922 251.455 295.711 251.371 295.534 251.204C295.36 251.037 295.273 250.837 295.273 250.602C295.273 250.368 295.36 250.167 295.534 250C295.711 249.833 295.922 249.75 296.168 249.75C296.413 249.75 296.622 249.833 296.796 250C296.974 250.167 297.062 250.368 297.062 250.602C297.062 250.837 296.974 251.037 296.796 251.204C296.622 251.371 296.413 251.455 296.168 251.455ZM302.262 261.17C301.495 261.17 300.834 260.989 300.28 260.627C299.726 260.265 299.3 259.766 299.002 259.13C298.703 258.495 298.554 257.768 298.554 256.952C298.554 256.121 298.707 255.387 299.012 254.752C299.321 254.113 299.751 253.614 300.301 253.255C300.855 252.893 301.502 252.712 302.24 252.712C302.816 252.712 303.334 252.818 303.796 253.031C304.257 253.244 304.636 253.543 304.93 253.926C305.225 254.31 305.408 254.757 305.479 255.268H304.222C304.126 254.896 303.913 254.565 303.583 254.278C303.256 253.987 302.816 253.841 302.262 253.841C301.772 253.841 301.342 253.969 300.973 254.224C300.607 254.477 300.321 254.833 300.115 255.295C299.913 255.753 299.811 256.291 299.811 256.909C299.811 257.541 299.911 258.092 300.11 258.56C300.312 259.029 300.596 259.393 300.962 259.652C301.331 259.912 301.765 260.041 302.262 260.041C302.588 260.041 302.885 259.984 303.151 259.871C303.418 259.757 303.643 259.594 303.828 259.381C304.012 259.168 304.144 258.912 304.222 258.614H305.479C305.408 259.097 305.232 259.532 304.952 259.919C304.675 260.302 304.307 260.608 303.849 260.835C303.395 261.059 302.865 261.17 302.262 261.17ZM309.574 261.192C309.056 261.192 308.585 261.094 308.163 260.899C307.74 260.7 307.405 260.414 307.156 260.041C306.908 259.665 306.783 259.21 306.783 258.678C306.783 258.209 306.876 257.829 307.06 257.538C307.245 257.243 307.492 257.012 307.801 256.845C308.11 256.678 308.451 256.554 308.823 256.472C309.2 256.387 309.578 256.32 309.958 256.27C310.455 256.206 310.858 256.158 311.167 256.126C311.48 256.091 311.707 256.032 311.849 255.95C311.995 255.869 312.067 255.727 312.067 255.524V255.482C312.067 254.956 311.924 254.548 311.636 254.256C311.352 253.965 310.92 253.82 310.341 253.82C309.741 253.82 309.271 253.951 308.93 254.214C308.589 254.477 308.349 254.757 308.211 255.055L307.018 254.629C307.231 254.132 307.515 253.745 307.87 253.468C308.229 253.187 308.619 252.992 309.042 252.882C309.468 252.768 309.887 252.712 310.299 252.712C310.562 252.712 310.864 252.744 311.204 252.808C311.549 252.868 311.881 252.994 312.201 253.186C312.524 253.377 312.792 253.667 313.005 254.054C313.218 254.441 313.324 254.96 313.324 255.609V261H312.067V259.892H312.003C311.918 260.07 311.776 260.26 311.577 260.462C311.378 260.664 311.114 260.837 310.784 260.979C310.453 261.121 310.05 261.192 309.574 261.192ZM309.766 260.062C310.263 260.062 310.682 259.965 311.023 259.77C311.368 259.574 311.627 259.322 311.801 259.013C311.979 258.704 312.067 258.379 312.067 258.038V256.888C312.014 256.952 311.897 257.01 311.716 257.064C311.538 257.113 311.332 257.158 311.098 257.197C310.867 257.232 310.642 257.264 310.421 257.293C310.205 257.317 310.029 257.339 309.894 257.357C309.567 257.399 309.262 257.468 308.978 257.564C308.697 257.657 308.47 257.797 308.296 257.985C308.126 258.17 308.04 258.422 308.04 258.741C308.04 259.178 308.202 259.509 308.525 259.732C308.852 259.952 309.265 260.062 309.766 260.062ZM319.027 252.818V253.884H314.787V252.818H319.027ZM316.023 250.858H317.28V258.656C317.28 259.011 317.331 259.278 317.434 259.455C317.541 259.629 317.676 259.746 317.839 259.807C318.006 259.864 318.182 259.892 318.367 259.892C318.505 259.892 318.619 259.885 318.708 259.871C318.796 259.853 318.867 259.839 318.921 259.828L319.176 260.957C319.091 260.989 318.972 261.021 318.819 261.053C318.667 261.089 318.473 261.107 318.239 261.107C317.884 261.107 317.536 261.03 317.195 260.877C316.857 260.725 316.577 260.492 316.353 260.18C316.133 259.867 316.023 259.473 316.023 258.997V250.858ZM320.768 261V252.818H322.025V261H320.768ZM321.407 251.455C321.162 251.455 320.951 251.371 320.773 251.204C320.599 251.037 320.512 250.837 320.512 250.602C320.512 250.368 320.599 250.167 320.773 250C320.951 249.833 321.162 249.75 321.407 249.75C321.652 249.75 321.862 249.833 322.036 250C322.213 250.167 322.302 250.368 322.302 250.602C322.302 250.837 322.213 251.037 322.036 251.204C321.862 251.371 321.652 251.455 321.407 251.455ZM327.502 261.17C326.763 261.17 326.115 260.995 325.557 260.643C325.003 260.292 324.57 259.8 324.258 259.168C323.949 258.536 323.794 257.797 323.794 256.952C323.794 256.099 323.949 255.355 324.258 254.72C324.57 254.084 325.003 253.591 325.557 253.239C326.115 252.887 326.763 252.712 327.502 252.712C328.24 252.712 328.887 252.887 329.441 253.239C329.998 253.591 330.431 254.084 330.74 254.72C331.053 255.355 331.209 256.099 331.209 256.952C331.209 257.797 331.053 258.536 330.74 259.168C330.431 259.8 329.998 260.292 329.441 260.643C328.887 260.995 328.24 261.17 327.502 261.17ZM327.502 260.041C328.063 260.041 328.524 259.897 328.887 259.61C329.249 259.322 329.517 258.944 329.691 258.475C329.865 258.006 329.952 257.499 329.952 256.952C329.952 256.405 329.865 255.895 329.691 255.423C329.517 254.951 329.249 254.569 328.887 254.278C328.524 253.987 328.063 253.841 327.502 253.841C326.941 253.841 326.479 253.987 326.117 254.278C325.754 254.569 325.486 254.951 325.312 255.423C325.138 255.895 325.051 256.405 325.051 256.952C325.051 257.499 325.138 258.006 325.312 258.475C325.486 258.944 325.754 259.322 326.117 259.61C326.479 259.897 326.941 260.041 327.502 260.041ZM334.235 256.078V261H332.978V252.818H334.192V254.097H334.299C334.491 253.681 334.782 253.347 335.173 253.095C335.563 252.839 336.067 252.712 336.685 252.712C337.239 252.712 337.724 252.825 338.139 253.053C338.555 253.276 338.878 253.617 339.109 254.075C339.34 254.53 339.455 255.105 339.455 255.801V261H338.198V255.886C338.198 255.244 338.031 254.743 337.697 254.384C337.364 254.022 336.905 253.841 336.323 253.841C335.922 253.841 335.563 253.928 335.247 254.102C334.935 254.276 334.688 254.53 334.507 254.864C334.326 255.197 334.235 255.602 334.235 256.078ZM347.398 254.651L346.269 254.97C346.197 254.782 346.093 254.599 345.954 254.422C345.819 254.24 345.635 254.091 345.4 253.974C345.166 253.857 344.866 253.798 344.5 253.798C343.999 253.798 343.582 253.914 343.248 254.145C342.918 254.372 342.753 254.661 342.753 255.013C342.753 255.325 342.867 255.572 343.094 255.753C343.321 255.934 343.676 256.085 344.159 256.206L345.374 256.504C346.105 256.682 346.65 256.953 347.009 257.319C347.368 257.681 347.547 258.148 347.547 258.72C347.547 259.189 347.412 259.608 347.142 259.977C346.876 260.347 346.503 260.638 346.023 260.851C345.544 261.064 344.987 261.17 344.351 261.17C343.516 261.17 342.826 260.989 342.279 260.627C341.732 260.265 341.386 259.736 341.24 259.04L342.433 258.741C342.547 259.182 342.762 259.512 343.078 259.732C343.397 259.952 343.815 260.062 344.33 260.062C344.916 260.062 345.381 259.938 345.725 259.69C346.073 259.437 346.247 259.136 346.247 258.784C346.247 258.5 346.148 258.262 345.949 258.07C345.75 257.875 345.445 257.729 345.033 257.634L343.669 257.314C342.92 257.136 342.369 256.861 342.018 256.488C341.67 256.112 341.496 255.641 341.496 255.077C341.496 254.615 341.625 254.207 341.885 253.852C342.147 253.496 342.504 253.218 342.955 253.015C343.41 252.813 343.925 252.712 344.5 252.712C345.31 252.712 345.945 252.889 346.407 253.244C346.872 253.599 347.202 254.068 347.398 254.651ZM354.615 256.078V261H353.358V252.818H354.572V254.097H354.679C354.871 253.681 355.162 253.347 355.553 253.095C355.943 252.839 356.447 252.712 357.065 252.712C357.619 252.712 358.104 252.825 358.52 253.053C358.935 253.276 359.258 253.617 359.489 254.075C359.72 254.53 359.835 255.105 359.835 255.801V261H358.578V255.886C358.578 255.244 358.411 254.743 358.077 254.384C357.744 254.022 357.286 253.841 356.703 253.841C356.302 253.841 355.943 253.928 355.627 254.102C355.315 254.276 355.068 254.53 354.887 254.864C354.706 255.197 354.615 255.602 354.615 256.078ZM367.139 257.655V252.818H368.396V261H367.139V259.615H367.053C366.862 260.031 366.563 260.384 366.159 260.675C365.754 260.963 365.242 261.107 364.624 261.107C364.113 261.107 363.659 260.995 363.261 260.771C362.863 260.544 362.551 260.203 362.323 259.748C362.096 259.29 361.982 258.713 361.982 258.017V252.818H363.24V257.932C363.24 258.528 363.406 259.004 363.74 259.359C364.078 259.714 364.507 259.892 365.029 259.892C365.342 259.892 365.66 259.812 365.983 259.652C366.309 259.493 366.583 259.248 366.803 258.917C367.027 258.587 367.139 258.166 367.139 257.655ZM370.548 261V252.818H371.763V254.097H371.869C372.04 253.66 372.315 253.321 372.695 253.079C373.075 252.834 373.531 252.712 374.064 252.712C374.604 252.712 375.053 252.834 375.411 253.079C375.774 253.321 376.056 253.66 376.258 254.097H376.344C376.553 253.674 376.867 253.338 377.286 253.09C377.706 252.838 378.208 252.712 378.794 252.712C379.525 252.712 380.124 252.941 380.589 253.399C381.054 253.853 381.287 254.562 381.287 255.524V261H380.03V255.524C380.03 254.92 379.865 254.489 379.534 254.23C379.204 253.971 378.815 253.841 378.368 253.841C377.793 253.841 377.347 254.015 377.031 254.363C376.715 254.707 376.557 255.144 376.557 255.673V261H375.278V255.396C375.278 254.931 375.127 254.556 374.826 254.272C374.524 253.985 374.135 253.841 373.659 253.841C373.332 253.841 373.027 253.928 372.743 254.102C372.462 254.276 372.235 254.517 372.061 254.826C371.891 255.132 371.805 255.485 371.805 255.886V261H370.548ZM386.866 261.17C386.077 261.17 385.397 260.996 384.826 260.648C384.257 260.297 383.819 259.807 383.51 259.178C383.205 258.546 383.052 257.811 383.052 256.973C383.052 256.135 383.205 255.396 383.51 254.757C383.819 254.114 384.249 253.614 384.799 253.255C385.353 252.893 385.999 252.712 386.738 252.712C387.164 252.712 387.585 252.783 388 252.925C388.416 253.067 388.794 253.298 389.135 253.617C389.476 253.933 389.747 254.352 389.95 254.874C390.152 255.396 390.254 256.039 390.254 256.803V257.335H383.947V256.249H388.975C388.975 255.787 388.883 255.375 388.698 255.013C388.517 254.651 388.258 254.365 387.92 254.155C387.587 253.946 387.192 253.841 386.738 253.841C386.237 253.841 385.804 253.965 385.438 254.214C385.076 254.459 384.797 254.778 384.602 255.173C384.407 255.567 384.309 255.989 384.309 256.44V257.165C384.309 257.783 384.415 258.306 384.629 258.736C384.845 259.162 385.145 259.487 385.529 259.711C385.912 259.931 386.358 260.041 386.866 260.041C387.196 260.041 387.494 259.995 387.761 259.903C388.03 259.807 388.263 259.665 388.458 259.477C388.654 259.285 388.805 259.047 388.911 258.763L390.126 259.104C389.998 259.516 389.783 259.878 389.481 260.19C389.179 260.499 388.806 260.741 388.363 260.915C387.919 261.085 387.42 261.17 386.866 261.17ZM386.099 251.71L387.398 249.239H388.869L387.207 251.71H386.099ZM392.016 261V252.818H393.23V254.054H393.316C393.465 253.649 393.735 253.321 394.125 253.069C394.516 252.816 394.956 252.69 395.446 252.69C395.539 252.69 395.654 252.692 395.792 252.696C395.931 252.699 396.036 252.705 396.107 252.712V253.99C396.064 253.979 395.966 253.963 395.814 253.942C395.665 253.917 395.507 253.905 395.34 253.905C394.942 253.905 394.587 253.988 394.274 254.155C393.965 254.319 393.72 254.546 393.539 254.837C393.362 255.125 393.273 255.453 393.273 255.822V261H392.016ZM397.447 261V252.818H398.704V261H397.447ZM398.086 251.455C397.841 251.455 397.63 251.371 397.452 251.204C397.278 251.037 397.191 250.837 397.191 250.602C397.191 250.368 397.278 250.167 397.452 250C397.63 249.833 397.841 249.75 398.086 249.75C398.331 249.75 398.541 249.833 398.715 250C398.892 250.167 398.981 250.368 398.981 250.602C398.981 250.837 398.892 251.037 398.715 251.204C398.541 251.371 398.331 251.455 398.086 251.455ZM406.439 264.068V259.743H406.332C406.24 259.892 406.109 260.08 405.938 260.308C405.768 260.531 405.524 260.732 405.208 260.909C404.892 261.083 404.471 261.17 403.946 261.17C403.264 261.17 402.662 260.998 402.14 260.654C401.618 260.306 401.21 259.816 400.915 259.184C400.62 258.548 400.473 257.797 400.473 256.93C400.473 256.071 400.62 255.325 400.915 254.693C401.21 254.061 401.62 253.573 402.146 253.228C402.671 252.884 403.278 252.712 403.967 252.712C404.5 252.712 404.921 252.8 405.23 252.978C405.542 253.152 405.78 253.351 405.943 253.575C406.11 253.795 406.24 253.976 406.332 254.118H406.481V252.818H407.696V264.068H406.439ZM404.116 260.041C404.621 260.041 405.047 259.91 405.395 259.647C405.743 259.381 406.007 259.013 406.188 258.544C406.37 258.072 406.46 257.527 406.46 256.909C406.46 256.298 406.371 255.764 406.194 255.306C406.016 254.844 405.753 254.485 405.405 254.23C405.057 253.971 404.628 253.841 404.116 253.841C403.584 253.841 403.14 253.978 402.785 254.251C402.433 254.521 402.169 254.888 401.991 255.354C401.817 255.815 401.73 256.334 401.73 256.909C401.73 257.491 401.819 258.021 401.996 258.496C402.177 258.969 402.444 259.345 402.795 259.626C403.15 259.903 403.591 260.041 404.116 260.041ZM415.003 257.655V252.818H416.26V261H415.003V259.615H414.918C414.726 260.031 414.428 260.384 414.023 260.675C413.618 260.963 413.107 261.107 412.489 261.107C411.978 261.107 411.523 260.995 411.125 260.771C410.728 260.544 410.415 260.203 410.188 259.748C409.961 259.29 409.847 258.713 409.847 258.017V252.818H411.104V257.932C411.104 258.528 411.271 259.004 411.605 259.359C411.942 259.714 412.372 259.892 412.894 259.892C413.206 259.892 413.524 259.812 413.847 259.652C414.174 259.493 414.448 259.248 414.668 258.917C414.891 258.587 415.003 258.166 415.003 257.655ZM421.843 261.17C421.055 261.17 420.375 260.996 419.803 260.648C419.235 260.297 418.796 259.807 418.487 259.178C418.182 258.546 418.029 257.811 418.029 256.973C418.029 256.135 418.182 255.396 418.487 254.757C418.796 254.114 419.226 253.614 419.777 253.255C420.33 252.893 420.977 252.712 421.715 252.712C422.142 252.712 422.562 252.783 422.978 252.925C423.393 253.067 423.772 253.298 424.112 253.617C424.453 253.933 424.725 254.352 424.927 254.874C425.13 255.396 425.231 256.039 425.231 256.803V257.335H418.924V256.249H423.953C423.953 255.787 423.86 255.375 423.676 255.013C423.495 254.651 423.235 254.365 422.898 254.155C422.564 253.946 422.17 253.841 421.715 253.841C421.215 253.841 420.781 253.965 420.416 254.214C420.053 254.459 419.775 254.778 419.579 255.173C419.384 255.567 419.286 255.989 419.286 256.44V257.165C419.286 257.783 419.393 258.306 419.606 258.736C419.823 259.162 420.123 259.487 420.506 259.711C420.89 259.931 421.335 260.041 421.843 260.041C422.174 260.041 422.472 259.995 422.738 259.903C423.008 259.807 423.241 259.665 423.436 259.477C423.631 259.285 423.782 259.047 423.889 258.763L425.103 259.104C424.975 259.516 424.761 259.878 424.459 260.19C424.157 260.499 423.784 260.741 423.34 260.915C422.896 261.085 422.397 261.17 421.843 261.17ZM432.789 254.651L431.66 254.97C431.589 254.782 431.484 254.599 431.345 254.422C431.21 254.24 431.026 254.091 430.791 253.974C430.557 253.857 430.257 253.798 429.891 253.798C429.39 253.798 428.973 253.914 428.639 254.145C428.309 254.372 428.144 254.661 428.144 255.013C428.144 255.325 428.258 255.572 428.485 255.753C428.712 255.934 429.067 256.085 429.55 256.206L430.765 256.504C431.496 256.682 432.041 256.953 432.4 257.319C432.759 257.681 432.938 258.148 432.938 258.72C432.938 259.189 432.803 259.608 432.533 259.977C432.267 260.347 431.894 260.638 431.415 260.851C430.935 261.064 430.378 261.17 429.742 261.17C428.907 261.17 428.217 260.989 427.67 260.627C427.123 260.265 426.777 259.736 426.631 259.04L427.824 258.741C427.938 259.182 428.153 259.512 428.469 259.732C428.788 259.952 429.206 260.062 429.721 260.062C430.307 260.062 430.772 259.938 431.116 259.69C431.464 259.437 431.638 259.136 431.638 258.784C431.638 258.5 431.539 258.262 431.34 258.07C431.141 257.875 430.836 257.729 430.424 257.634L429.06 257.314C428.311 257.136 427.76 256.861 427.409 256.488C427.061 256.112 426.887 255.641 426.887 255.077C426.887 254.615 427.016 254.207 427.276 253.852C427.538 253.496 427.895 253.218 428.346 253.015C428.801 252.813 429.316 252.712 429.891 252.712C430.701 252.712 431.336 252.889 431.798 253.244C432.263 253.599 432.593 254.068 432.789 254.651Z" fill="white"/>
<g opacity="0.9">
<mask id="mask0_704_8142" style="mask-type:alpha" maskUnits="userSpaceOnUse" x="22" y="0" width="326" height="304">
<rect x="22" y="8.14868" width="317.807" height="295.738" transform="rotate(-1.46923 22 8.14868)" fill="#D9D9D9"/>
</mask>
<g mask="url(#mask0_704_8142)">
<path d="M259.936 61.8732C231.571 30.5254 191.914 11.7298 149.69 9.62108C107.466 7.5124 66.1343 22.2634 34.7865 50.6291" stroke="white" stroke-width="0.4"/>
<path d="M32.365 59.7673C44.3336 117.805 77.925 165.392 125.75 192.062C173.574 218.732 242.032 222.177 287.38 201.978" stroke="white" stroke-width="0.4"/>
<path d="M255.44 65.9252C227.917 105.803 219.312 151.398 231.516 192.679C243.72 233.961 275.734 267.547 320.515 286.05" stroke="white" stroke-width="0.4"/>
<path d="M255.125 57.07C228.348 57.7568 202.941 69.0523 184.493 88.4716C166.045 107.891 156.067 133.843 156.754 160.62" stroke="white" stroke-width="0.4"/>
<path d="M283.353 208.171C300.044 187.223 307.729 160.501 304.718 133.886C301.707 107.271 288.247 82.9415 267.298 66.2506" stroke="white" stroke-width="0.4"/>
<path d="M155.685 173.193C164.739 206.109 186.937 236.563 217.397 257.857C247.857 279.15 284.083 289.539 318.106 286.737" stroke="#177150" stroke-opacity="0.5" stroke-width="0.4"/>
<path d="M156.301 162.663C158.93 128.314 147.871 97.068 125.557 75.7997C103.244 54.5314 71.5039 44.9828 37.3198 49.2544" stroke="#177150" stroke-opacity="0.5" stroke-width="0.4"/>
<path d="M32.1426 48.7459C32.8752 79.759 45.8952 109.883 68.3383 132.491C90.7815 155.099 122.012 172.172 153.019 173.132" stroke="#177150" stroke-opacity="0.5" stroke-width="0.4"/>
<path d="M287.485 198.986C273.702 177.034 251.763 161.456 226.495 155.68C201.226 149.904 174.698 154.402 152.746 168.184" stroke="#177150" stroke-opacity="0.5" stroke-width="0.4"/>
<path d="M155.196 168.861C167.778 188.301 188.081 202.85 211.64 209.306C235.199 215.763 259.437 211.798 281.881 204.599" stroke="#177150" stroke-opacity="0.5" stroke-width="0.4"/>
<path d="M159.738 173.675C188.388 172.94 215.572 160.854 235.311 140.076C255.049 119.298 265.726 91.5302 264.991 62.8807" stroke="white" stroke-width="0.4"/>
<path d="M32.0826 59.9606C39.4813 127.53 73.4187 189.392 126.429 231.939C179.439 274.486 247.18 294.232 314.749 286.833" stroke="white" stroke-width="0.4"/>
<path d="M318.789 278.763C312.051 211.125 278.72 148.934 226.128 105.871C173.537 62.8077 105.992 42.4005 38.3538 49.1384" stroke="#177150" stroke-opacity="0.5" stroke-width="0.4"/>
<path d="M319.13 279.808C340.089 236.22 349.027 197.356 338.645 158.435C327.24 115.677 305.268 87.771 265.046 64.8392" stroke="white" stroke-width="0.4"/>
<circle cx="31.8082" cy="52.052" r="7.22449" transform="rotate(-1.46923 31.8082 52.052)" fill="white" stroke="white"/>
<circle cx="261.229" cy="61.2397" r="7.22449" transform="rotate(-1.46923 261.229 61.2397)" fill="white" stroke="white"/>
<circle cx="286.412" cy="203.7" r="7.22449" transform="rotate(-1.46923 286.412 203.7)" fill="white" stroke="white"/>
<circle cx="156.234" cy="169.186" r="7.22449" transform="rotate(-1.46923 156.234 169.186)" fill="white" stroke="white"/>
<circle cx="319.718" cy="285.703" r="7.22449" transform="rotate(-1.46923 319.718 285.703)" fill="#E8F1ED" stroke="white"/>
</g>
</g>
<path d="M49.3699 182.17C42.7444 182.556 37.1482 187.895 37.0195 195.163V200.502C37.1482 207.514 42.8731 213.303 50.0132 213.303C57.1532 213.303 62.8138 209.653 62.8138 202.513L62.6208 202.32H57.4748L57.2819 202.513C57.2819 206.63 54.13 207.771 50.0132 207.771C45.832 207.771 42.4228 204.426 42.4228 200.309V195.163C42.4228 190.982 45.832 187.637 50.0132 187.637C54.13 187.637 57.4748 189.317 57.4748 193.498L57.6678 193.691H62.8138L63.0068 193.498C63.0068 186.294 57.1532 182.17 50.0132 182.17H49.3699Z" fill="white"/>
<path d="M82.3776 182.17C75.3019 182.17 69.4483 187.959 69.4483 195.163V200.502C69.5126 207.578 75.3662 213.303 82.3776 213.303C89.5177 213.303 95.3712 207.578 95.4999 200.502V195.163C95.4999 187.959 89.582 182.17 82.3776 182.17ZM89.9679 200.502C89.8393 204.491 86.4944 207.771 82.3776 207.771C78.3252 207.771 74.9159 204.426 74.9159 200.309V195.163C74.9159 190.982 78.3252 187.702 82.3776 187.702C86.5587 187.702 89.9679 190.982 89.9679 195.163V200.502Z" fill="white"/>
<path d="M108.437 182.17H102.905V200.502C103.033 207.578 108.758 213.303 115.898 213.303C123.038 213.303 128.763 207.578 128.892 200.502V200.309V182.17H123.36V200.309C123.36 204.426 120.08 207.771 115.898 207.771C111.717 207.771 108.437 204.426 108.437 200.309V182.17Z" fill="white"/>
<path d="M142.684 182.17H137.281V226.168H142.684V210.923C144.807 212.402 147.444 213.303 150.275 213.303C157.415 213.303 163.268 207.514 163.268 200.309V195.163C163.268 187.959 157.415 182.17 150.275 182.17C147.444 182.17 144.807 183.07 142.684 184.614V182.17ZM150.275 187.702C154.391 187.702 157.736 190.982 157.736 195.163V200.502C157.672 204.491 154.327 207.771 150.275 207.771C146.093 207.771 142.684 204.426 142.684 200.309V195.163C142.684 190.982 146.093 187.702 150.275 187.702Z" fill="white"/>
<path d="M182.681 182.17C175.476 182.17 169.816 187.959 169.687 194.97V200.502C169.816 207.449 175.476 213.174 182.488 213.303H195.674V207.771H182.488C178.5 207.707 175.283 204.426 175.219 200.502H195.674V195.163C195.674 187.959 189.885 182.17 182.681 182.17ZM182.681 187.637C186.798 187.637 190.078 190.918 190.142 194.97H175.219C175.283 190.918 178.564 187.637 182.681 187.637Z" fill="white"/>
<path d="M208.608 182.17H203.141V213.303H208.608V195.163C208.608 191.047 211.824 187.766 215.941 187.702H221.409V182.17H215.941C213.175 182.234 210.667 183.07 208.608 184.55V182.17Z" fill="white"/>
<path d="M232.123 182.17H226.591V213.303H232.123V182.17Z" fill="white"/>
<path d="M246.019 182.17H240.487V194.52V195.163V213.303H246.019V195.163C246.019 190.982 249.364 187.702 253.481 187.702C257.598 187.702 260.942 190.918 261.071 194.97V195.163V213.303H266.474V195.163V194.97C266.346 187.895 260.621 182.17 253.481 182.17C250.715 182.17 248.142 183.07 246.019 184.55V182.17Z" fill="white"/>
<path d="M286.249 195.614C281.424 195.614 277.436 199.602 277.436 204.491C277.436 209.379 281.424 213.303 286.249 213.303C291.137 213.303 295.126 209.379 295.126 204.491C295.126 199.602 291.137 195.614 286.249 195.614ZM286.249 201.146C288.05 201.146 289.594 202.689 289.594 204.491C289.594 206.292 288.05 207.771 286.249 207.771C284.448 207.771 282.904 206.292 282.904 204.491C282.904 202.689 284.448 201.146 286.249 201.146Z" fill="white"/>
<path d="M318 182.17C310.924 182.17 305.071 187.959 305.071 195.163V200.502C305.135 207.578 310.989 213.303 318 213.303C325.14 213.303 330.994 207.578 331.122 200.502V195.163C331.122 187.959 325.205 182.17 318 182.17ZM325.59 200.502C325.462 204.491 322.117 207.771 318 207.771C313.948 207.771 310.538 204.426 310.538 200.309V195.163C310.538 190.982 313.948 187.702 318 187.702C322.181 187.702 325.59 190.982 325.59 195.163V200.502Z" fill="white"/>
<path d="M343.866 182.17H338.399V213.303H343.866V195.163C343.866 191.047 347.083 187.766 351.199 187.702H356.667V182.17H351.199C348.433 182.234 345.925 183.07 343.866 184.55V182.17Z" fill="white"/>
<path d="M374.007 182.105C365.773 182.105 361.013 188.023 361.013 195.099V200.438C361.142 207.449 366.866 213.239 374.007 213.239C376.772 213.239 379.41 212.338 381.468 210.859V213.367C381.404 217.355 378.059 220.636 374.007 220.636C369.954 220.636 366.416 217.484 366.416 212.981H361.013C361.013 220.314 366.802 226.168 374.007 226.168C381.211 226.168 387 220.314 387 213.174V182.17H381.468V184.485C379.41 183.006 376.772 182.105 374.007 182.105ZM374.007 187.573C378.123 187.573 381.468 190.918 381.468 195.099V200.245C381.468 204.362 378.123 207.707 374.007 207.707C369.825 207.707 366.416 204.362 366.416 200.245V194.906C366.545 190.854 369.89 187.573 374.007 187.573Z" fill="white"/>
</svg>