<?xml version="1.0" encoding="UTF-8"?>
<svg id="Calque_1" xmlns="http://www.w3.org/2000/svg" width="270.309900283813477" height="193.580638867211746" viewBox="0 0 270.309900283813477 193.580638867211746"><defs><style>.cls-1{fill:#fff;}.cls-2{fill:#e1000f;}.cls-3{fill:gray;}.cls-4{fill:#000091;}.cls-4,.cls-5{fill-rule:evenodd;}</style></defs><rect class="cls-1" x="20" y="20" width="55" height="20"/><path class="cls-4" d="M42.737800598144531,37.640899658203125c.214698791503906-.214698791503906,.431400299072266-.445198059082031,.646800994873047-.676498413085938,.384899139404297-.457801818847656,.805999755859375-.887702941894531,1.25579833984375-1.286502838134766,.130199432373047-.118099212646484,.267601013183594-.227798461914062,.411598205566406-.328598022460938,.018901824951172-.018901824951172,.028400421142578-.04730224609375,.037803649902344-.075599670410156,.0093994140625-.028400421142578,.018898010253906-.05670166015625,.037799835205078-.075599670410156-.094402313232422,.037799835205078-.170001983642578,.094497680664062-.245601654052734,.151100158691406-.075599670410156,.056697845458984-.151199340820312,.113399505615234-.245700836181641,.151199340820312-.037799835205078,0-.075599670410156-.037700653076172-.037799835205078-.07550048828125l.403800964355469-.302898406982422c-.00830078125,.000499725341797-.017101287841797,.000499725341797-.025901794433594,.000499725341797-.037696838378906,0-.037696838378906-.037700653076172-.037696838378906-.075599670410156-.487300872802734-.074901580810547-.862899780273438,.258899688720703-1.200901031494141,.559196472167969l-.008602142333984,.007701873779297c-.050399780273438,.025299072265625-.100799560546875,0-.139999389648438-.019599914550781-.019500732421875-.009799957275391-.036300659179688-.018199920654297-.048900604248047-.018199920654297-.297100067138672,.099098205566406-.552700042724609,.281200408935547-.810199737548828,.464698791503906h-.000099182128906c-.233898162841797,.166702270507812-.469398498535156,.334499359130859-.739101409912109,.442401885986328v-.075599670410156c-.093997955322266,.031299591064453-.186897277832031,.073200225830078-.279998779296875,.115200042724609-.131599426269531,.059398651123047-.263698577880859,.118999481201172-.400299072265625,.149299621582031-.255802154541016,.056800842285156-.490200042724609,.049598693847656-.71929931640625,.042499542236328h-.000400543212891c-.07550048828125-.002399444580078-.150402069091797-.00469970703125-.225299835205078-.00469970703125-.462100982666016,.056198120117188-.920902252197266,.137897491455078-1.374099731445312,.244697570800781l-.019802093505859,.004901885986328-.008998870849609,.002201080322266-.010700225830078,.002799987792969c-.245201110839844,.066097259521484-.481597900390625,.161300659179688-.704200744628906,.283599853515625-.008800506591797,.00469970703125-.017398834228516,.009799957275391-.025798797607422,.014999389648438-.018798828125,.023597717285156-.037300109863281,.046199798583984-.054698944091797,.065399169921875-.071300506591797,.091098785400391-.1593017578125,.167800903320312-.259201049804688,.226100921630859-.164299011230469,.083599090576172-.307498931884766,.211200714111328-.449699401855469,.337799072265625-.058700561523438,.052299499511719-.117198944091797,.104499816894531-.177001953125,.153301239013672-.017799377441406,.012397766113281-.038898468017578,.019100189208984-.060600280761719,.019199371337891-.062297821044922,.059799194335938-.124298095703125,.119800567626953-.186397552490234,.179798126220703h0v.000102996826172h-.000099182128906v.000099182128906c-.139801025390625,.135101318359375-.27960205078125,.270401000976562-.422203063964844,.402599334716797-.035999298095703,.016700744628906-.076297760009766,.021499633789062-.115299224853516,.013801574707031,.010398864746094-.0155029296875,.017799377441406-.027400970458984,.025001525878906-.039402008056641,.03179931640625-.053398132324219,.064098358154297-.106498718261719,.096797943115234-.159400939941406,.036602020263672-.059097290039062,.073902130126953-.117599487304688,.112102508544922-.175498962402344,.051498413085938-.078201293945312,.104499816894531-.155498504638672,.160900115966797-.230098724365234,.013099670410156-.014202117919922,.012496948242188-.036201477050781-.001399993896484-.049602508544922-.014202117919922-.013500213623047-.033203125-.020599365234375-.052803039550781-.019798278808594,.193302154541016-.180801391601562,.406101226806641-.339599609375,.634403228759766-.473400115966797-.025199890136719,.002300262451172-.061901092529297-.017898559570312-.042800903320312-.044498443603516,.01409912109375-.019599914550781,.026397705078125-.039901733398438,.038600921630859-.060302734375,.008697509765625-.014297485351562,.017299652099609-.028598785400391,.026599884033203-.042697906494141,.004299163818359-.011199951171875,.008197784423828-.022499084472656,.012100219726562-.033699035644531-.005901336669922-.006500244140625-.011802673339844-.012500762939453-.0177001953125-.018600463867188l-.010902404785156-.011199951171875c-.062198638916016,.036899566650391-.121601104736328,.078399658203125-.177600860595703,.124099731445312-.027397155761719,.024700164794922-.052997589111328,.057197570800781-.079196929931641,.090499877929688h0c-.060199737548828,.07659912109375-.123600006103516,.157199859619141-.219200134277344,.156097412109375-.019401550292969-.000297546386719-.038700103759766-.003097534179688-.057300567626953-.008197784423828-.013999938964844-.001899719238281-.027500152587891-.006500244140625-.039699554443359-.013500213623047l.004898071289062-.008701324462891,.005599975585938-.010597229003906,.005500793457031-.009803771972656,.018001556396484-.032497406005859,.009696960449219-.017501831054688,.00830078125-.015098571777344,.014499664306641-.026199340820312c.009002685546875-.016002655029297,.0177001953125-.031700134277344,.026802062988281-.047901153564453l.007598876953125-.013298034667969,.004100799560547-.006999969482422,.008098602294922-.013900756835938c.011299133300781-.019500732421875,.022602081298828-.038799285888672,.034000396728516-.058200836181641l.000301361083984-.000598907470703,.014499664306641-.024600982666016,.023300170898438-.04010009765625,.016597747802734-.028499603271484,.000202178955078-.000202178955078,.000099182128906-.000297546386719,.000099182128906-.000202178955078h.000099182128906l.011402130126953-.019699096679688,.011699676513672-.019798278808594c.007801055908203-.012401580810547,.008998870849609-.027702331542969,.003398895263672-.041202545166016-.005699157714844-.013397216796875-.017498016357422-.023300170898438-.03179931640625-.026397705078125,.070301055908203-.091701507568359,.158298492431641-.168399810791016,.258800506591797-.225502014160156h-.011402130126953c.099601745605469-.050197601318359,.199203491210938-.107700347900391,.298801422119141-.165298461914062l.000099182128906-.000099182128906,.000301361083984-.000102996826172c.044898986816406-.025997161865234,.089900970458984-.051998138427734,.134799957275391-.077297210693359,.013999938964844-.01190185546875,.027599334716797-.023902893066406,.041301727294922-.035800933837891l.021198272705078-.018199920654297c-.212699890136719,.0718994140625-.415000915527344,.171699523925781-.601600646972656,.296699523925781-.02239990234375,.008800506591797-.043701171875,.020401000976562-.063301086425781,.034500122070312-.035499572753906,.007701873779297-.072196960449219-.00579833984375-.09429931640625-.034500122070312-.006099700927734-.007999420166016-.009300231933594-.017799377441406-.009098052978516-.027801513671875,.022098541259766-.043998718261719,.069797515869141-.075298309326172,.120700836181641-.108596801757812,.0364990234375-.023902893066406,.074596405029297-.048900604248047,.106197357177734-.080402374267578,.037601470947266,0,.075401306152344,0,.075401306152344,.037799835205078,.750499725341797-.586299896240234,1.675399780273438-.721397399902344,2.603500366210938-.856899261474609,.567600250244141-.082798004150391,1.136497497558594-.165901184082031,1.667198181152344-.352500915527344l.340099334716797-.226699829101562c.097202301025391-.038898468017578,.184402465820312-.107799530029297,.277000427246094-.180900573730469,.087501525878906-.069099426269531,.179702758789062-.141998291015625,.289802551269531-.197097778320312,.305397033691406-.209602355957031,.531700134277344-.515701293945312,.642498016357422-.869102478027344-.003997802734375-.028697967529297-.017200469970703-.0552978515625-.037700653076172-.075698852539062-.474998474121094,.512100219726562-1.038200378417969,.934600830078125-1.662899017333984,1.247200012207031-.572299957275391,.299800872802734-1.18389892578125,.344100952148438-1.792301177978516,.388099670410156-.235298156738281,.017002105712891-.470199584960938,.034000396728516-.702098846435547,.065799713134766,.037899017333984-.07550048828125,.113498687744141-.07550048828125,.188999176025391-.07550048828125,0-.089797973632812,.04730224609375-.132198333740234,.104499816894531-.183399200439453,.015102386474609-.013500213623047,.030902862548828-.027599334716797,.046699523925781-.043399810791016h.113502502441406c.018798828125,0,.0281982421875-.018898010253906,.03759765625-.037799835205078,.009502410888672-.018898010253906,.018901824951172-.037799835205078,.037799835205078-.037799835205078,.075603485107422,0,.189102172851562-.037799835205078,.151302337646484-.037799835205078-.057601928710938-.076801300048828-.144401550292969-.046398162841797-.240699768066406-.012599945068359-.093299865722656,.032600402832031-.195400238037109,.068401336669922-.288402557373047,.012599945068359,.036502838134766-.0364990234375,.046501159667969-.081901550292969,.055702209472656-.123298645019531,.009700775146484-.044200897216797,.018501281738281-.083900451660156,.057598114013672-.103401184082031h.151203155517578c.007896423339844-.057300567626953,.034500122070312-.110500335693359,.075599670410156-.151199340820312,.336700439453125-.202098846435547,.660099029541016-.37750244140625,.978099822998047-.549900054931641,.217399597167969-.117900848388672,.432300567626953-.234401702880859,.647296905517578-.357200622558594-.043998718261719,0-.082199096679688,.016998291015625-.119197845458984,.033500671386719-.058498382568359,.026100158691406-.113700866699219,.050701141357422-.183101654052734,.004398345947266,.037799835205078,0,.037799835205078-.028400421142578,.037799835205078-.056697845458984,0-.028400421142578,0-.056800842285156,.037799835205078-.056800842285156,.237903594970703-.064800262451172,.451000213623047-.166801452636719,.667701721191406-.270599365234375,.161998748779297-.077499389648438,.326000213623047-.155899047851562,.503799438476562-.220600128173828-.051799774169922,0-.099300384521484,.013401031494141-.145298004150391,.026298522949219-.088100433349609,.024799346923828-.171100616455078,.048202514648438-.270401000976562-.026298522949219,.025100708007812-.012599945068359,.046100616455078-.029399871826172,.067100524902344-.046199798583984,.041999816894531-.033599853515625,.083999633789062-.06719970703125,.159599304199219-.06719970703125v-.113399505615234c0-.037799835205078,.037899017333984-.037799835205078,.075698852539062-.037799835205078-.028697967529297-.004001617431641-.0552978515625-.017200469970703-.075698852539062-.037803649902344,.019599914550781-.038997650146484,.059299468994141-.047798156738281,.103500366210938-.057598114013672,.041400909423828-.009201049804688,.086799621582031-.019199371337891,.123298645019531-.055698394775391-.037799835205078,0-.113399505615234,0-.113399505615234-.037799835205078,.113399505615234-.151203155517578,.302299499511719-.189102172851562,.491401672363281-.226802825927734-.019001007080078-.037799835205078-.056800842285156-.037799835205078-.089900970458984-.037799835205078-.033000946044922,0-.0614013671875,0-.0614013671875-.037799835205078s.037799835205078-.037799835205078,.075599670410156-.037799835205078h-.075599670410156c-.058597564697266-.029300689697266-.048999786376953-.081298828125-.041797637939453-.120800018310547h0c.002098083496094-.011501312255859,.003997802734375-.021900177001953,.003997802734375-.030300140380859,.151199340820312-.176399230957031,.20159912109375-.386398315429688,.251899719238281-.59630012512207,.025199890136719-.104999542236328,.050399780273438-.209999084472656,.088199615478516-.310798645019531-.037799835205078,0-.075599670410156,0-.075599670410156-.037799835205078-.366798400878906,.403598785400391-.947498321533203,.557798385620117-1.499599456787109,.704500198364258l-.049800872802734,.013198852539062h-.188899993896484c-.209400177001953,.082199096679688-.444297790527344,.068401336669922-.642597198486328-.037799835205078-.091503143310547-.045799255371094-.155300140380859-.105400085449219-.224903106689453-.170398712158203-.045398712158203-.042499542236328-.093299865722656-.087202072143555-.152896881103516-.132001876831055-.295600891113281-.188699722290039-.612800598144531-.341098785400391-.944900512695312-.453800201416016-.938400268554688-.306798934936523-1.923202514648438-.447399139404297-2.909999847412109-.415599822998047,.271598815917969-.148199081420898,.561599731445312-.207799911499023,.854999542236328-.268098831176758,.15570068359375-.032001495361328,.312400817871094-.064201354980469,.467800140380859-.109901428222656,.093898773193359-.027599334716797,.187099456787109-.056098937988281,.279697418212891-.08439826965332,.541202545166016-.165300369262695,1.066802978515625-.325799942016602,1.647602081298828-.293600082397461-.076801300048828-.025600433349609-.171001434326172-.016500473022461-.259101867675781-.007900238037109-.041797637939453,.003999710083008-.082298278808594,.007900238037109-.118797302246094,.007900238037109-.425601959228516-.030401229858398-.851299285888672,.061498641967773-1.296901702880859,.157699584960938-.108200073242188,.023399353027344-.217597961425781,.046998977661133-.328498840332031,.06920051574707-.188800811767578,.037698745727539-.368099212646484,.094398498535156-.547500610351562,.150999069213867-.179599761962891,.056699752807617-.359199523925781,.113399505615234-.54840087890625,.151199340820312-.08709716796875,.02910041809082-.157497406005859,.080400466918945-.226200103759766,.130500793457031-.110000610351562,.080299377441406-.215599060058594,.157400131225586-.378597259521484,.134000778198242v-.113300323486328c.377998352050781-.453901290893555,.831497192382812-.906999588012695,1.436199188232422-.944801330566406,.574897766113281-.095798492431641,1.122898101806641-.029600143432617,1.689498901367188,.038801193237305h.000301361083984c.10369873046875,.01249885559082,.208000183105469,.02509880065918,.313297271728516,.036800384521484,.484500885009766,.051498413085938,.964302062988281,.139898300170898,1.435401916503906,.264499664306641,.103900909423828,0,.162097930908203,.091299057006836,.218498229980469,.179800033569336,.046302795410156,.072599411010742,.091400146484375,.143400192260742,.159603118896484,.160400390625,.090599060058594,.03019905090332,.181396484375,.036298751831055,.272098541259766,.042299270629883,.136100769042969,.009099960327148,.272201538085938,.018100738525391,.408000946044922,.108798980712891,0-.025199890136719-.004199981689453-.050399780273438-.008399963378906-.075498580932617-.008399963378906-.050399780273438-.016799926757812-.100801467895508,.008399963378906-.151201248168945,.085300445556641-.085399627685547,.182697296142578-.062299728393555,.278499603271484-.03959846496582,.073997497558594,.017499923706055,.147098541259766,.034698486328125,.212898254394531,.001798629760742,.205101013183594-.128198623657227,.010101318359375-.326000213623047-.183700561523438-.522600173950195-.091796875-.093099594116211-.183399200439453-.185998916625977-.231998443603516-.271099090576172,.004001617431641-.028600692749023,.017200469970703-.055200576782227,.037700653076172-.075599670410156,.090599060058594,.079299926757812,.174400329589844,.161998748779297,.257499694824219,.243999481201172,.194297790527344,.191600799560547,.384899139404297,.379499435424805,.649497985839844,.511899948120117,.189002990722656,.07550048828125,.642501831054688,.188999176025391,.566902160644531-.037700653076172-.132400512695312-.291500091552734-.357799530029297-.545799255371094-.584800720214844-.802000045776367-.096900939941406-.109298706054688-.194000244140625-.218898773193359-.284400939941406-.331899642944336v-.150600433349609c-.0552978515625,0-.070098876953125-.020299911499023-.088897705078125-.0458984375-.006900787353516-.009401321411133-.014301300048828-.019599914550781-.024402618408203-.029701232910156v-.151100158691406c-.095100402832031-.04749870300293-.115398406982422-.124898910522461-.136199951171875-.203998565673828-.012298583984375-.046701431274414-.024700164794922-.093999862670898-.052799224853516-.136100769042969-.063198089599609-.105300903320312-.067699432373047-.233999252319336-.072399139404297-.366600036621094-.003700256347656-.105499267578125-.007499694824219-.213399887084961-.041000366210938-.313800811767578-.068199157714844-.209499359130859-.118698120117188-.424398422241211-.151298522949219-.642398834228516-.044403076171875-.252099990844727-.094600677490234-.492500305175781-.143699645996094-.728099822998047h-.000102996826172v-.000101089477539h0c-.076099395751953-.364999771118164-.149898529052734-.718399047851562-.196197509765625-1.085800170898438-.058200836181641-.552700042724609,.219699859619141-1.01609992980957,.505897521972656-1.493398666381836,.085502624511719-.142499923706055,.171802520751953-.286300659179688,.25-.434000015258789,.264499664306641-.453901290893555,.566802978515625-.907100677490234,1.058101654052734-1.209400177001953,.113201141357422-.452600479125977,.414199829101562-.829401016235352,.715198516845703-1.206199645996094l.00250244140625-.003101348876953c.301799774169922-.368900299072266,.803298950195312-.593599319458008,1.166599273681641-.755998611450195,.32769775390625-.145500183105469,.662899017333984-.273500442504883,1.004199981689453-.38330078125H20v19.999401092529297h18.368198394775391c.501300811767578-.36090087890625,1.002101898193359-.589801788330078,1.599403381347656-.862800598144531,.260097503662109-.118900299072266,.538398742675781-.246101379394531,.842998504638672-.396202087402344,.058498382568359-.028797149658203,.126197814941406-.061496734619141,.200599670410156-.097599029541016l.000701904296875-.000297546386719,.000999450683594-.000503540039062,.000400543212891-.000198364257812c.530597686767578-.256801605224609,1.402698516845703-.678901672363281,1.724498748779297-1.000900268554688Zm-6.000598907470703-2.745098114013672c.026496887207031-.132602691650391,.164497375488281-.172100067138672,.296897888183594-.210102081298828,.056400299072266-.016098022460938,.111701965332031-.031898498535156,.156902313232422-.054500579833984l.018096923828125-.009300231933594,.020401000976562-.010898590087891,.000099182128906-.000099182128906c.072101593017578-.038600921630859,.162399291992188-.087001800537109,.226001739501953-.055301666259766,.042800903320312,.064201354980469,.097698211669922,.079902648925781,.1510009765625,.095199584960938,.040798187255859,.011699676513672,.080799102783203,.023200988769531,.113597869873047,.055999755859375-.136501312255859,.136302947998047-.300201416015625,.149700164794922-.466499328613281,.163299560546875-.110401153564453,.009101867675781-.222000122070312,.018203735351562-.327499389648438,.063503265380859-.018402099609375,0-.041202545166016,.002197265625-.064701080322266,.004497528076172-.073200225830078,.007102966308594-.152900695800781,.014900207519531-.124298095703125-.04229736328125Zm-4.421802520751953-2.796703338623047c-.339399337768555,.680301666259766-.744499206542969,1.325801849365234-1.209299087524414,1.927402496337891,.003900527954102,.028697967529297,.017200469970703,.0552978515625,.037799835205078,.075698852539062,.907098770141602-1.020500183105469,1.738500595092773-1.889698028564453,2.909601211547852-2.607799530029297,.028999328613281-.014400482177734,.019100189208984-.001199722290039,.004398345947266,.018499374389648-.023597717285156,.031801223754883-.059799194335938,.080400466918945,.033401489257812,.057100296020508,.392799377441406-.090599060058594,.568199157714844-.422800064086914,.738597869873047-.745500564575195,.042701721191406-.080999374389648,.085102081298828-.161298751831055,.130599975585938-.237098693847656,.175701141357422-.285499572753906,.428001403808594-.468799591064453,.682601928710938-.653900146484375,.183597564697266-.133501052856445,.368499755859375-.267900466918945,.526798248291016-.441999435424805,.005100250244141,.041500091552734-.008800506591797,.083198547363281-.037799835205078,.113298416137695,.030200958251953,.02910041809082,.0718994140625,.043001174926758,.113399505615234,.037799835205078,.065902709960938-.049299240112305,.138801574707031-.069999694824219,.209503173828125-.090099334716797,.091999053955078-.026100158691406,.1802978515625-.051198959350586,.244400024414062-.136600494384766-.313400268554688-.125499725341797-.660503387451172-.138898849487305-.982700347900391-.037899017333984-.793701171875,.378000259399414-1.473800659179688,.982700347900391-2.116401672363281,1.663000106811523-.385700225830078,.40839958190918-.793598175048828,.793600082397461-1.284900665283203,1.058097839355469Zm1.851799011230469-.340097427368164c-.029697418212891,.067499160766602-.083599090576172,.12139892578125-.151096343994141,.151199340820312-.037803649902344,0-.075603485107422,0-.075603485107422-.037799835205078,.033901214599609-.158700942993164,.148700714111328-.287900924682617,.302402496337891-.340200424194336,.037799835205078-.000099182128906,.037799835205078,.037799835205078,.037799835205078,.075599670410156-.019401550292969,.038900375366211-.039901733398438,.059900283813477-.059902191162109,.080301284790039-.018798828125,.019298553466797-.037197113037109,.03809928894043-.053600311279297,.070899963378906Zm1.825302124023438,5.679899215698242c.030498504638672-.027999877929688-.002601623535156-.048900604248047-.049900054931641-.058498382568359,.038799285888672-.029502868652344,.070499420166016-.067100524902344,.092998504638672-.110301971435547,.030902862548828-.074199676513672-.168899536132812-.056400299072266-.199996948242188-.034801483154297-.030502319335938,.024303436279297-.05780029296875,.052501678466797-.081203460693359,.083702087402344-.049396514892578,.053199768066406-.101898193359375,.103401184082031-.157096862792969,.150501251220703-.041500091552734,.037998199462891-.081802368164062,.077098846435547-.122100830078125,.116100311279297-.051700592041016,.050197601318359-.103401184082031,.100299835205078-.157299041748047,.147796630859375-.063602447509766,.055900573730469,.144199371337891,.085201263427734,.188999176025391,.045402526855469,.048297882080078-.042800903320312,.094799041748047-.08740234375,.140998840332031-.1322021484375,.019599914550781-.000797271728516,.039100646972656-.003398895263672,.058200836181641-.007900238037109,.108600616455078-.045398712158203,.206298828125-.113498687744141,.286399841308594-.199798583984375Zm-.643402099609375-.474498748779297l-.044498443603516,.031398773193359c-.126701354980469,.089401245117188-.25360107421875,.178901672363281-.387001037597656,.256401062011719-.119800567626953,.069499969482422-.243698120117188,.126598358154297-.368000030517578,.183998107910156-.043498992919922,.020000457763672-.08709716796875,.04010009765625-.130496978759766,.060802459716797-.001201629638672-.003303527832031-.002902984619141-.006401062011719-.004901885986328-.009201049804688-.014400482177734-.020198822021484-.041400909423828-.026699066162109-.063301086425781-.015201568603516-.138999938964844,.079200744628906-.266799926757812,.176601409912109-.379997253417969,.289600372314453-.017601013183594,.016700744628906-.035202026367188,.033699035644531-.052803039550781,.050899505615234-.023899078369141,.023502349853516-.041797637939453,.041301727294922-.059700012207031,.059299468994141l-.006298065185547,.006301879882812c-.000598907470703,.000598907470703-.000900268554688,.001300811767578-.001201629638672,.001899719238281l-.0010986328125,.001598358154297c-.026901245117188,.026702880859375-.052700042724609,.053703308105469-.082298278808594,.088401794433594-.013603210449219,.020298004150391-.03070068359375,.038200378417969-.050403594970703,.052700042724609-.02349853515625,.015598297119141-.088497161865234,.015300750732422-.082496643066406-.028301239013672v-.007400512695312l-.002700805664062,.001502990722656c-.021400451660156,.011199951171875-.042800903320312,.022499084472656-.064399719238281,.03289794921875-.019599914550781,.009201049804688-.037101745605469,.019500732421875-.054901123046875,.029998779296875l-.004100799560547,.002403259277344c-.00830078125-.003200531005859-.017200469970703-.004501342773438-.026100158691406-.003803253173828-.009799957275391,.000102996826172-.019298553466797,.003303527832031-.027198791503906,.009101867675781-.046199798583984,.036201477050781-.091899871826172,.074798583984375-.136501312255859,.115200042724609-.079399108886719,.071498870849609-.152797698974609,.149501800537109-.21929931640625,.233100891113281l-.010799407958984,.013999938964844-.011299133300781,.014598846435547c-.00360107421875,.005001068115234-.008102416992188,.010601043701172-.012001037597656,.015701293945312l-.003700256347656,.004600524902344-.005599975585938,.007999420166016-.010898590087891,.015998840332031-.009101867675781,.013599395751953c-.009998321533203,.010402679443359-.020900726318359,.015602111816406-.032497406005859,.017200469970703l-.006301879882812-.009201049804688c-.003101348876953-.004398345947266-.006198883056641-.008800506591797-.008899688720703-.013397216796875l-.006301879882812-.010700225830078-.004299163818359-.007602691650391c-.011497497558594-.019496917724609-.022197723388672-.039699554443359-.032299041748047-.060497283935547l-.0010986328125-.002300262451172-.004302978515625-.008800506591797-.004600524902344-.009899139404297c.040901184082031-.044002532958984,.080402374267578-.089500427246094,.118602752685547-.136100769042969l.007598876953125-.009101867675781c.013301849365234-.016197204589844,.026298522949219-.032299041748047,.039299011230469-.048500061035156l.063301086425781-.080898284912109c.004600524902344-.006198883056641,.009101867675781-.012001037597656,.013698577880859-.017799377441406l.009403228759766-.012100219726562c.041500091552734-.05419921875,.081199645996094-.106800079345703,.118198394775391-.159599304199219l.002799987792969-.004100799560547,.006599426269531-.009799957275391c.003200531005859-.004600524902344,.006301879882812-.009300231933594,.009700775146484-.013999938964844,.018100738525391-.026699066162109,.035499572753906-.053699493408203,.051799774169922-.081199645996094,.014701843261719-.024700164794922,.028499603271484-.049800872802734,.041301727294922-.075401306152344l.003097534179688-.005599975585938,.003902435302734-.007801055908203c.0010986328125-.002197265625,.002098083496094-.004497528076172,.002998352050781-.006797790527344,.0010986328125-.002399444580078,.002098083496094-.004901885986328,.003200531005859-.007301330566406,.013298034667969-.028499603271484,.025299072265625-.05780029296875,.035900115966797-.088100433349609l.003398895263672-.009799957275391,.002101898193359-.006198883056641c.002197265625-.006099700927734,.004398345947266-.012298583984375,.006298065185547-.018600463867188,.004299163818359-.013599395751953,.008201599121094-.027599334716797,.01190185546875-.041698455810547,.000698089599609-.003101348876953,.001197814941406-.006202697753906,.002098083496094-.009201049804688l.003299713134766-.013198852539062v-.000102996826172c.003501892089844-.013797760009766,.006999969482422-.027599334716797,.009799957275391-.042098999023438,.001602172851562-.008800506591797,0-.017799377441406-.004600524902344-.025398254394531,.0426025390625-.073101043701172,.092800140380859-.141502380371094,.149803161621094-.2041015625-.002700805664062,.001701354980469-.005599975585938,.003299713134766-.008502960205078,.004798889160156h0c-.002998352050781,.001602172851562-.006000518798828,.003299713134766-.008800506591797,.005100250244141-.030097961425781,.019401550292969-.054599761962891,.042999267578125-.079097747802734,.066699981689453-.019401550292969,.018901824951172-.038902282714844,.037700653076172-.061199188232422,.054401397705078-.041202545166016,.03070068359375-.117000579833984-.020198822021484-.068302154541016-.05670166015625,.030200958251953-.024097442626953,.05889892578125-.050098419189453,.085899353027344-.077899932861328,.063800811767578-.074600219726562,.128101348876953-.138698577880859,.196903228759766-.197898864746094l.016197204589844-.011699676513672c.036800384521484-.026699066162109,.069400787353516-.050399780273438,.099899291992188-.076999664306641,.003803253173828-.003299713134766,.007301330566406-.006801605224609,.011100769042969-.010200500488281l.005401611328125-.004898071289062c.025798797607422-.033702850341797,.054000854492188-.065502166748047,.084499359130859-.095001220703125l.001598358154297-.001602172851562c.000701904296875-.000797271728516,.001399993896484-.001499176025391,.002300262451172-.002098083496094,.221099853515625-.213401794433594,.534603118896484-.290599822998047,.853900909423828-.369098663330078,.202999114990234-.050003051757812,.408401489257812-.100601196289062,.593799591064453-.187103271484375,.105201721191406-.042098999023438,.222202301025391-.025596618652344,.337902069091797-.009197235107422,.091899871826172,.013099670410156,.182998657226562,.025997161865234,.266597747802734,.009197235107422,.118602752685547-.0115966796875,.237701416015625,.015003204345703,.340202331542969,.075702667236328-.26190185546875,.142597198486328-.508701324462891,.29949951171875-.75,.452999114990234-.071300506591797,.045398712158203-.142002105712891,.090400695800781-.212600708007812,.134601593017578l-.009502410888672,.006599426269531Zm.632102966308594-2.711101531982422h.302398681640625c-.02130126953125,.042701721191406-.078800201416016,.049201965332031-.118000030517578,.053699493408203-.030200958251953,.003398895263672-.04949951171875,.005599975585938-.033100128173828,.022102355957031,.113498687744141,.11309814453125,.340198516845703,.075397491455078,.491298675537109-.000202178955078,.114803314208984-.064598083496094,.247100830078125-.091098785400391,.377902984619141-.075599670410156,.037799835205078,0,.037799835205078-.075599670410156,.037799835205078-.113300323486328,.097499847412109,.031002044677734,.199996948242188,.043899536132812,.302200317382812,.037700653076172,.907096862792969-.188999176025391,1.776397705078125-.377899169921875,2.607799530029297-.793701171875-.839000701904297-.645298004150391-1.870899200439453-.932498931884766-2.883899688720703-1.214397430419922h0c-.17340087890625-.048202514648438-.346202850341797-.096302032470703-.517501831054688-.146102905273438,.037799835205078,0,.075599670410156,.012599945068359,.113399505615234,.025199890136719,.075599670410156,.025199890136719,.151199340820312,.050399780273438,.226802825927734-.025199890136719-.102802276611328-.082199096679688-.216903686523438-.097297668457031-.330001831054688-.112298965454102-.094600677490234-.01249885559082-.1885986328125-.024900436401367-.274700164794922-.07659912109375,.008499145507812,0,.018901824951172,.001899719238281,.030399322509766,.003999710083008,.039501190185547,.007299423217773,.091499328613281,.016799926757812,.120800018310547-.041799545288086-.201499938964844-.100700378417969-.402999877929688-.134300231933594-.604499816894531-.167900085449219h0c-.100799560546875-.016799926757812-.201698303222656-.033700942993164-.302600860595703-.058900833129883,.181102752685547-.032600402832031,.310302734375-.194000244140625,.302402496337891-.377899169921875,0-.037700653076172-.075599670410156-.037700653076172-.113399505615234-.037700653076172-.453502655029297,.226699829101562-.755901336669922,.642400741577148-.944801330566406,1.133701324462891,.168800354003906,.096500396728516,.352901458740234,.085197448730469,.532798767089844,.074298858642578,.102100372314453-.006198883056641,.202899932861328-.012401580810547,.298702239990234,.001300811767578-.084201812744141,.083900451660156-.209602355957031,.105697631835938-.330402374267578,.126697540283203-.042400360107422,.007400512695312-.084197998046875,.014602661132812-.123497009277344,.024501800537109-.116001129150391,.028900146484375-.226802825927734,.113300323486328-.189002990722656,.188899993896484,.020599365234375,.028598785400391,.051300048828125,.048099517822266,.085899353027344,.054698944091797-.089298248291016,.023502349853516-.1708984375,.069801330566406-.23699951171875,.134300231933594,.108200073242188,.081001281738281,.216300964355469,.065601348876953,.324302673339844,.050102233886719,.043197631835938-.006103515625,.086299896240234-.012302398681641,.129497528076172-.012302398681641,0,.050399780273438,.033599853515625,.06719970703125,.067302703857422,.083999633789062h0c.016799926757812,.008399963378906,.033599853515625,.016799926757812,.046199798583984,.029399871826172-.165203094482422,.060199737548828-.300701141357422,.182102203369141-.378002166748047,.340000152587891-.045398712158203,.113502502441406-.131599426269531,.186000823974609-.217700958251953,.258602142333984h0c-.057498931884766,.04840087890625-.114898681640625,.096698760986328-.160198211669922,.157199859619141v.113300323486328c-.128501892089844,.1156005859375-.261299133300781,.217998504638672-.392398834228516,.319297790527344h0c-.255001068115234,.196800231933594-.504001617431641,.388900756835938-.703601837158203,.663402557373047,.037700653076172,0,.037700653076172,.037799835205078,.037700653076172,.075496673583984-.034198760986328,.051403045654297-.083900451660156,.087303161621094-.131599426269531,.121700286865234-.057601928710938,.041500091552734-.112201690673828,.080802917480469-.132999420166016,.142803192138672,0,.037899017333984,0,.075698852539062,.037899017333984,.075698852539062,.237701416015625-.079200744628906,.444198608398438-.210300445556641,.646697998046875-.338901519775391,.184001922607422-.116798400878906,.364803314208984-.231597900390625,.562702178955078-.303497314453125,.161598205566406-.040500640869141,.301498413085938-.113201141357422,.437198638916016-.183803558349609,.118202209472656-.061397552490234,.233200073242188-.121196746826172,.356399536132812-.156398773193359,.094402313232422-.018898010253906,.198402404785156-.047199249267578,.302303314208984-.075599670410156h0c.103996276855469-.028301239013672,.207897186279297-.056697845458984,.302398681640625-.075599670410156,0,.037799835205078,0,.075599670410156,.037700653076172,.075599670410156Zm1.743099212646484,3.331298828125c.002998352050781-.002197265625,.006000518798828-.004596710205078,.008998870849609-.006999969482422l.006702423095703-.005397796630859c.054698944091797-.038600921630859,.105499267578125-.088001251220703,.150997161865234-.146999359130859-.003097534179688-.001003265380859-.006198883056641-.002101898193359-.009300231933594-.003402709960938-.002899169921875-.0010986328125-.005699157714844-.002498626708984-.008499145507812-.003898620605469-.050399780273438,.051601409912109-.099399566650391,.107101440429688-.148899078369141,.166698455810547Zm7.372200012207031-2.479999542236328l-.078498840332031,.058700561523438c.043399810791016-.001998901367188,.078498840332031-.01300048828125,.078498840332031-.058700561523438Z"/><path class="cls-2" d="M74.999298095703125,20h-21.513698577880859c.071601867675781,.023500442504883,.140102386474609,.055400848388672,.204200744628906,.094999313354492,.174697875976562,.093700408935547,.401100158691406,.214601516723633,.542800903320312,.288900375366211,.289897918701172,.133501052856445,.538799285888672,.342300415039062,.720600128173828,.60460090637207,.075599670410156,.113399505615234,.188999176025391,.340198516845703,.113399505615234,.491399765014648-.075599670410156,.188899993896484-.113399505615234,.491300582885742-.302299499511719,.566900253295898-.226802825927734,.113300323486328-.529201507568359,.113300323486328-.793701171875,.075498580932617-.153800964355469-.006599426269531-.306201934814453-.031999588012695-.453899383544922-.075498580932617,.566799163818359,.226699829101562,1.095897674560547,.491298675537109,1.473899841308594,1.02039909362793,.037799835205078,.075599670410156,.188899993896484,.113300323486328,.340198516845703,.113300323486328,.037799835205078,0,.037799835205078,.075599670410156,.037799835205078,.113399505615234-.075698852539062,.075700759887695-.151298522949219,.113401412963867-.113498687744141,.226699829101562h.113498687744141c.188899993896484-.075599670410156,.151100158691406-.453800201416016,.415702819824219-.340099334716797,.192897796630859,.118900299072266,.259197235107422,.367799758911133,.151096343994141,.566900253295898-.141696929931641,.136999130249023-.293399810791016,.263299942016602-.45379638671875,.377899169921875-.037799835205078,.084100723266602-.037799835205078,.180400848388672,0,.26460075378418,.094596862792969,.136098861694336,.15899658203125,.290800094604492,.188899993896484,.453800201416016,.113498687744141,.264499664306641,.151199340820312,.566900253295898,.264598846435547,.831399917602539,.151199340820312,.566900253295898,.302299499511719,1.133800506591797,.264499664306641,1.700698852539062,0,.302400588989258-.151199340820312,.566900253295898-.037799835205078,.869300842285156,.075599670410156,.302299499511719,.264499664306641,.52910041809082,.415798187255859,.793600082397461,.1510009765625,.226699829101562,.302303314208984,.377899169921875,.415702819824219,.604700088500977,.226596832275391,.377899169921875,.642398834228516,.755800247192383,.453899383544922,1.209299087524414-.113399505615234,.264501571655273-.529102325439453,.226800918579102-.793601989746094,.378000259399414-.226799011230469,.188899993896484-.037799835205078,.491201400756836,.07550048828125,.680200576782227,.188999176025391,.340198516845703-.226799011230469,.566898345947266-.491298675537109,.680301666259766,.075599670410156,.113296508789062,.226799011230469,.075496673583984,.264499664306641,.151096343994141,.037799835205078,.189002990722656,.226799011230469,.302402496337891,.113498687744141,.491302490234375-.151199340820312,.226799011230469-.604698181152344,.340198516845703-.377998352050781,.6802978515625,.151199340820312,.264602661132812,.052799224853516,.558403015136719-.037700653076172,.831501007080078-.113399505615234,.340099334716797-.415699005126953,.491199493408203-.680301666259766,.566902160644531-.232898712158203,.068897247314453-.478797912597656,.081798553466797-.717697143554688,.037696838378906-.069000244140625-.041797637939453-.146400451660156-.067699432373047-.226699829101562-.075496673583984-.642601013183594-.075702667236328-1.285102844238281-.264602661132812-1.927501678466797-.264602661132812-.182098388671875,.027702331542969-.359901428222656,.078502655029297-.529098510742188,.151100158691406-.164600372314453,.120700836181641-.317699432373047,.256099700927734-.457599639892578,.404701232910156l-.004402160644531,.00469970703125c-.028400421142578,.030200958251953-.055599212646484,.060798645019531-.0823974609375,.091598510742188-.016502380371094,.019100189208984-.032600402832031,.038600921630859-.048702239990234,.058002471923828-.010898590087891,.012897491455078-.021598815917969,.025897979736328-.032199859619141,.038997650146484-.109699249267578,.137702941894531-.209098815917969,.283302307128906-.297500610351562,.435600280761719-.005599975585938,.009601593017578-.011299133300781,.019199371337891-.016700744628906,.028900146484375-.009899139404297,.017501831054688-.019496917724609,.035202026367188-.029197692871094,.052799224853516-.118900299072266,.220703125-.214801788330078,.4530029296875-.286201477050781,.693401336669922-.256900787353516,.865398406982422-.144599914550781,1.608001708984375,.035800933837891,1.788200378417969,.050201416015625,.050201416015625,1.247398376464844,.4197998046875,2.081298828125,.790798187255859,.307601928710938,.129199981689453,.605701446533203,.280002593994141,.892002105712891,.451301574707031h21.126296997070312V20Z"/><path class="cls-3" d="M54.765098571777344,27.295999526977539c.151302337646484,.037799835205078,.377902984619141,.037799835205078,.377902984619141,.113300323486328-.07550048828125,.302299499511719-.529201507568359,.377901077270508-.755901336669922,.680400848388672h-.113101959228516c-.113296508789062,.075599670410156-.075496673583984,.264499664306641-.188899993896484,.264499664306641-.114398956298828-.025100708007812-.233898162841797-.011800765991211-.340099334716797,.037799835205078,.151199340820312,.151100158691406,.340099334716797,.264699935913086,.566799163818359,.226699829101562,.065101623535156,.022600173950195,.110000610351562,.082500457763672,.1134033203125,.151399612426758,.028999328613281-.002799987792969,.055999755859375-.016300201416016,.075599670410156-.037899017333984,.037899017333984,0,.075698852539062,0,.075698852539062,.037899017333984v.151100158691406c-.113498687744141,.151100158691406-.302501678466797,.07550048828125-.453800201416016,.113399505615234,.284801483154297,.075601577758789,.584400177001953,.075601577758789,.869098663330078,0,.226902008056641-.075599670410156,0-.453899383544922,.151302337646484-.642599105834961-.07550048828125,0,0-.113399505615234-.07550048828125-.113399505615234,.07550048828125-.07550048828125,.151100158691406-.188899993896484,.226699829101562-.226699829101562,.089801788330078,.002399444580078,.174900054931641-.040201187133789,.226799011230469-.113401412963867,0-.075498580932617-.151100158691406-.113300323486328-.113399505615234-.18910026550293,.226699829101562-.150899887084961,.415599822998047-.377799987792969,.340198516845703-.604598999023438-.037899017333984-.113300323486328-.340198516845703-.113300323486328-.529197692871094-.188899993896484-.189102172851562-.075599670410156-.415802001953125,0-.642398834228516,.037799835205078-.189102172851562,0-.378101348876953,.113399505615234-.567001342773438,.151100158691406-.257400512695312,.087900161743164-.499599456787109,.215400695800781-.717700958251953,.377899169921875,.270599365234375-.097799301147461,.548702239990234-.173599243164062,.831501007080078-.226699829101562,.226398468017578,0,.418899536132812-.05579948425293,.641998291015625,0Z"/><path class="cls-5" d="M70.998001098632812,164.708531777689132l-1.860000610351562,1.700004577636719h-.479995727539062l1.099998474121094-1.94000244140625h1.239997863769531v.239997863769531Zm-1.339996337890625,6.580001831054688h-.400001525878906c-.5,.600006103515625-1.05999755859375,1.080001831054688-1.599998474121094,1.080001831054688-.560005187988281,0-.840003967285156-.339996337890625-.840003967285156-1.080001831054688,0-.299995422363281,.040000915527344-.6199951171875,.099998474121094-.900001525878906l3.260002136230469-1.079994201660156c.639999389648438-1.520004272460938-.120002746582031-2.180000305175781-1.019996643066406-2.180000305175781-1.540000915527344,0-3.300003051757812,2.699996948242188-3.300003051757812,4.859992980957031,0,1.020004272460938,.480003356933594,1.580001831054688,1.239997863769531,1.580001831054688,.8800048828125-.020004272460938,1.800003051757812-.8800048828125,2.560005187988281-2.279998779296875Zm-1.120002746582031-3.279998779296875c.44000244140625,0,.819999694824219,.339996337890625,.620002746582031,1.120002746582031l-2.020004272460938,.540000915527344c.319999694824219-.960006713867188,.919998168945312-1.660003662109375,1.400001525878906-1.660003662109375Zm-6.360000610351562,.040000915527344h1.080001831054688l-1.720001220703125,4.719993591308594c-.159999847412109,.400009155273438,.060001373291016,.800003051757812,.479999542236328,.800003051757812,1.219997406005859,0,2.680004119873047-1.039993286132812,3.240001678466797-2.520004272460938h-.300003051757812c-.439994812011719,.620010375976562-1.400001525878906,1.300003051757812-2.119998931884766,1.420013427734375l1.579998016357422-4.420005798339844h1.620002746582031l.199996948242188-.680000305175781h-1.579994201660156l.599998474121094-1.699996948242188h-.620002746582031l-1.1199951171875,1.699996948242188-1.340003967285156,.180000305175781v.5Zm-1.5-.900001525878906c.220001220703125,0,.520000457763672,.239997863769531,.380001068115234,.680000305175781l-1.939998626708984,4.700004577636719c.5-.080001831054688,1.019996643066406-.55999755859375,1.319999694824219-1h.319999694824219c-.460002899169922,1.17999267578125-1.5,2.039993286132812-2.400001525878906,2.039993286132812-.220001220703125,0-.540000915527344-.239990234375-.380001068115234-.67999267578125l1.800003051757812-4.700004577636719c-.5,.080001831054688-1.020000457763672,.55999755859375-1.320003509521484,1h-.299999237060547c.460002899169922-1.199996948242188,1.580001831054688-2.040000915527344,2.520000457763672-2.040000915527344Zm.560001373291016-1.199996948242188c.399997711181641,0,.739997863769531-.319999694824219,.739997863769531-.740005493164062,0-.399993896484375-.340000152587891-.739997863769531-.739997863769531-.739997863769531-.420001983642578,0-.740001678466797,.340003967285156-.740001678466797,.739997863769531,0,.400001525878906,.340000152587891,.740005493164062,.740001678466797,.740005493164062Zm-8.740001678466797,3.899993896484375c.44000244140625-.959999084472656,.280002593994141-1.399993896484375,0-1.399993896484375-.239997863769531,0-.520000457763672,.259994506835938-.799999237060547,.739997863769531h-.299999237060547c.459999084472656-1.019996643066406,1.05999755859375-2.040000915527344,1.720001220703125-2.040000915527344,.55999755859375,0,.759998321533203,.55999755859375,.759998321533203,1.180000305175781v.879997253417969c.090999603271484-.105995178222656,.179500579833984-.209999084472656,.265998840332031-.310997009277344h.000099182128906c.844902038574219-.991996765136719,1.490001678466797-1.749000549316406,2.233901977539062-1.749000549316406,.579998016357422,0,.880001068115234,.360000610351562,.880001068115234,.900001525878906,0,.319999694824219-.100002288818359,.720001220703125-.319999694824219,1.139999389648438l-1.659999847412109,3.340003967285156c.5-.080001831054688,1.019996643066406-.55999755859375,1.319999694824219-1h.299999237060547c-.459999084472656,1.199996948242188-1.580001831054688,2.039993286132812-2.520000457763672,2.039993286132812-.420001983642578,0-.659999847412109-.44000244140625-.479999542236328-.800003051757812l1.919998168945312-3.699996948242188c.220001220703125-.419998168945312,.260002136230469-.699996948242188-.079998016357422-.699996948242188-.459999084472656,0-1.540000915527344,.760002136230469-2.119998931884766,1.459999084472656l-1.260002136230469,3.319999694824219c-.139999389648438,.339996337890625-.279998779296875,.419998168945312-.599998474121094,.419998168945312-.520000457763672,0-.780002593994141-.339996337890625-.540000915527344-.8800048828125l1.279998779296875-2.839996337890625Zm-1.299999237060547-1.279998779296875c.220001220703125-.759994506835938,.099998474121094-1.439994812011719-.479999542236328-1.439994812011719-.723300933837891,0-.949798583984375,.477996826171875-1.650798797607422,1.95599365234375l-.049201965332031,.10400390625v-.879997253417969c0-.620002746582031-.200000762939453-1.180000305175781-.759998321533203-1.180000305175781-.659999847412109,0-1.260002136230469,1.019996643066406-1.720001220703125,2.040000915527344h.299999237060547c.319999694824219-.460006713867188,.619998931884766-.740005493164062,.860000610351562-.740005493164062,.279998779296875,0,.439998626708984,.44000244140625,0,1.400001525878906l-1.279998779296875,2.840003967285156c-.240001678466797,.539993286132812,.020000457763672,.879989624023438,.539997100830078,.879989624023438,.320003509521484,0,.460002899169922-.079986572265625,.600002288818359-.419998168945312l1.259998321533203-3.319992065429688c.360000610351562-.44000244140625,.680000305175781-.819999694824219,1.080001831054688-1.240005493164062h1.299999237060547Zm-6.319999694824219,.560005187988281c.200000762939453-.780006408691406-.180000305175781-1.120002746582031-.619998931884766-1.120002746582031-.479999542236328,0-1.080001831054688,.699996948242188-1.400001525878906,1.660003662109375l2.020000457763672-.540000915527344Zm.5,2.159996032714844h-.400001525878906c-.5,.600006103515625-1.05999755859375,1.080001831054688-1.599998474121094,1.080001831054688-.560001373291016,0-.840000152587891-.339996337890625-.840000152587891-1.080001831054688,0-.299995422363281,.040000915527344-.6199951171875,.099998474121094-.900001525878906l3.260002136230469-1.079994201660156c.639999389648438-1.520004272460938-.119998931884766-2.180000305175781-1.020000457763672-2.180000305175781-1.540000915527344,0-3.299999237060547,2.699996948242188-3.299999237060547,4.859992980957031,0,1.020004272460938,.479999542236328,1.580001831054688,1.239997863769531,1.580001831054688,.880001068115234-.020004272460938,1.800003051757812-.8800048828125,2.560001373291016-2.279998779296875Zm-6.400001525878906-3.239997863769531h-1.079998016357422v-.5l1.340000152587891-.180000305175781,1.119998931884766-1.699996948242188h.619998931884766l-.599998474121094,1.699996948242188h1.579998016357422l-.199996948242188,.680000305175781h-1.620002746582031l-1.579998016357422,4.420005798339844c.720001220703125-.120010375976562,1.680000305175781-.800003051757812,2.119998931884766-1.420013427734375h.299999237060547c-.55999755859375,1.480010986328125-2.020000457763672,2.520004272460938-3.239997863769531,2.520004272460938-.420001983642578,0-.639999389648438-.399993896484375-.479999542236328-.800003051757812l1.719997406005859-4.719993591308594Zm-6.799999237060547,3.659996032714844c0-1.459999084472656,1.619998931884766-3.419998168945312,2.520000457763672-3.419998168945312,.200000762939453,0,.400001525878906,.020004272460938,.560001373291016,.080001831054688l-.94000244140625,2.519996643066406c-.539997100830078,.659996032714844-1.379997253417969,1.459999084472656-1.779998779296875,1.459999084472656-.220001220703125,0-.360000610351562-.199996948242188-.360000610351562-.639999389648438Zm4.459999084472656-4.879997253417969l.5,.040000915527344-1.739997863769531,4c-.420001983642578,.960006713867188-.240001678466797,1.399993896484375,0,1.399993896484375,.239997863769531,0,.540000915527344-.279998779296875,.860000610351562-.739990234375h.299999237060547c-.459999084472656,1.019989013671875-1.060001373291016,2.039993286132812-1.720001220703125,2.039993286132812-.55999755859375,0-.899997711181641-.599990844726562-.799999237060547-1.67999267578125l.040000915527344-.3800048828125-.108901977539062,.151992797851562c-.716400146484375,1.00201416015625-1.364700317382812,1.908004760742188-2.031097412109375,1.908004760742188-.580001831054688,0-.880001068115234-.360000610351562-.880001068115234-.899993896484375,0-2.32000732421875,2.540000915527344-5.280006408691406,4.919998168945312-5.280006408691406h.100002288818359l.55999755859375-.55999755859375Zm-4.579998016357422,1.739997863769531c.220001220703125-.759994506835938,.099998474121094-1.439994812011719-.479999542236328-1.439994812011719-.723300933837891,0-.949800491333008,.477996826171875-1.650800704956055,1.95599365234375l-.049200057983398,.10400390625v-.879997253417969c0-.620002746582031-.200000762939453-1.180000305175781-.760000228881836-1.180000305175781-.659999847412109,0-1.260000228881836,1.019996643066406-1.719999313354492,2.040000915527344h.299999237060547c.319999694824219-.460006713867188,.620000839233398-.740005493164062,.840000152587891-.740005493164062,.280000686645508,0,.440000534057617,.44000244140625,0,1.400001525878906l-1.280000686645508,2.859992980957031c-.239999771118164,.540008544921875,.020000457763672,.8800048828125,.540000915527344,.8800048828125,.319999694824219,0,.459999084472656-.080001831054688,.600000381469727-.419998168945312l1.260000228881836-3.319999694824219c.35999870300293-.44000244140625,.679998397827148-.819999694824219,1.079999923706055-1.239997863769531h1.319999694824219v-.020004272460938Zm-8.239999771118164,4.400009155273438l-.120000839233398,.360000610351562h-4.659999847412109l.120000839233398-.3800048828125c1.439998626708984-.260009765625,1.679998397827148-.3800048828125,2.279998779296875-2l1.30000114440918-3.480003356933594c.579999923706055-1.620002746582031,.459999084472656-1.739997863769531-.80000114440918-2l.120000839233398-.360000610351562h6.059999465942383l-.360000610351562,1.94000244140625h-.439998626708984c0-1.160003662109375-.120000839233398-1.459999084472656-1.220001220703125-1.459999084472656h-.279998779296875c-1.079999923706055,0-1.220001220703125,.159996032714844-1.520000457763672,1l-.860000610351562,2.339996337890625h1.260000228881836c.840000152587891,0,1.159999847412109-.519996643066406,1.540000915527344-1.199996948242188h.439998626708984l-1.039999008178711,2.839996337890625h-.440000534057617c.100000381469727-.860000610351562,.100000381469727-1.199996948242188-.680000305175781-1.199996948242188h-1.260000228881836l-.579999923706055,1.599998474121094c-.626998901367188,1.665000915527344-.447799682617188,1.698997497558594,1.045101165771484,1.982002258300781,.031099319458008,.005996704101562,.062700271606445,.011993408203125,.094900131225586,.01800537109375Z"/><path class="cls-5" d="M27.77800178527832,149.40853635532585l-1.860000610351562,1.339996337890625v.020004272460938h-.479999542236328l1.100000381469727-1.599998474121094h1.239999771118164v.239997863769531Zm13.000001907348633,9.379997253417969l2.979999542236328-7.919998168945312-.100002288818359-.120002746582031-2.05999755859375,.240005493164062v.239997863769531l.399997711181641,.299995422363281c.341499328613281,.266006469726562,.251102447509766,.51300048828125-.032299041748047,1.28900146484375l-.047698974609375,.131004333496094-2.280002593994141,6.079994201660156c-.180000305175781,.360000610351562,.060001373291016,.800003051757812,.480003356933594,.800003051757812,.939998626708984,0,1.939998626708984-.860000610351562,2.399997711181641-2.040000915527344h-.299999237060547c-.319999694824219,.44000244140625-.959999084472656,.919998168945312-1.439998626708984,1Zm13.659999847412109-6.099998474121094l1.859996795654297-1.699996948242188v-.240005493164062h-1.239997863769531l-1.100002288818359,1.94000244140625h.480003356933594Zm.119998931884766,4.860000610351562h.399997711181641c-.739997863769531,1.419998168945312-1.659999847412109,2.279998779296875-2.539997100830078,2.279998779296875-.760002136230469,0-1.240001678466797-.55999755859375-1.240001678466797-1.580001831054688,0-2.159996032714844,1.760002136230469-4.860000610351562,3.299999237060547-4.860000610351562,.880001068115234,0,1.659999847412109,.660003662109375,1.020000457763672,2.180000305175781l-3.279998779296875,1.080001831054688c-.060001373291016,.279998779296875-.099998474121094,.599998474121094-.099998474121094,.900001525878906,0,.739997863769531,.279998779296875,1.080001831054688,.839996337890625,1.080001831054688,.540000915527344,0,1.100002288818359-.480003356933594,1.600002288818359-1.080001831054688Zm-.100002288818359-2.160003662109375c.200000762939453-.759994506835938-.179996490478516-1.099998474121094-.619998931884766-1.099998474121094-.459999084472656,0-1.05999755859375,.700004577636719-1.399997711181641,1.639999389648438l2.019996643066406-.540000915527344Zm-5.879997253417969-1.05999755859375h-1.080001831054688v-.5l1.340000152587891-.180000305175781,1.119998931884766-1.699996948242188h.620002746582031l-.600002288818359,1.699996948242188h1.580001831054688l-.200000762939453,.680000305175781h-1.619998931884766l-1.580001831054688,4.419998168945312c.720001220703125-.1199951171875,1.680000305175781-.799995422363281,2.120002746582031-1.419998168945312h.299999237060547c-.560001373291016,1.480003356933594-2.020000457763672,2.519996643066406-3.240001678466797,2.519996643066406-.419998168945312,0-.639999389648438-.399993896484375-.479999542236328-.799995422363281l1.720001220703125-4.720001220703125Zm-2.200000762939453-.239997863769531c.119998931884766-.44000244140625-.159999847412109-.680000305175781-.400001525878906-.680000305175781-.939998626708984,0-2.05999755859375,.860000610351562-2.520000457763672,2.040000915527344h.300003051757812c.299999237060547-.44000244140625,.819999694824219-.920005798339844,1.319999694824219-1l-1.799999237060547,4.699996948242188c-.159999847412109,.44000244140625,.159999847412109,.680000305175781,.379997253417969,.680000305175781,.900001525878906,0,1.94000244140625-.860000610351562,2.400001525878906-2.040000915527344h-.299999237060547c-.300003051757812,.44000244140625-.819999694824219,.919998168945312-1.319999694824219,1l1.939998626708984-4.699996948242188Zm.919998168945312-2.599998474121094c0,.399993896484375-.340000152587891,.739997863769531-.739997863769531,.739997863769531-.400001525878906,0-.740001678466797-.340003967285156-.740001678466797-.739997863769531,0-.400001525878906,.319999694824219-.740005493164062,.740001678466797-.740005493164062,.399997711181641,0,.739997863769531,.340003967285156,.739997863769531,.740005493164062Zm-10.099998474121094,3.079994201660156c-.900001525878906,0-2.520000457763672,1.959999084472656-2.520000457763672,3.420005798339844,0,.439994812011719,.139999389648438,.639999389648438,.380001068115234,.639999389648438,.380001068115234,0,1.220001220703125-.800003051757812,1.759998321533203-1.459999084472656l.94000244140625-2.520004272460938c-.180000305175781-.05999755859375-.360000610351562-.080001831054688-.560001373291016-.080001831054688Zm2.439998626708984-1.419998168945312l-.5-.040000915527344-.55999755859375,.560005187988281h-.100002288818359c-2.379997253417969,0-4.919998168945312,2.959999084472656-4.919998168945312,5.279998779296875,0,.540000915527344,.299999237060547,.899993896484375,.880001068115234,.899993896484375,.666397094726562,0,1.314697265625-.905998229980469,2.031097412109375-1.907997131347656l.108901977539062-.152000427246094-.040000915527344,.3800048828125c-.099998474121094,1.079994201660156,.240001678466797,1.67999267578125,.799999237060547,1.67999267578125,.659999847412109,0,1.260002136230469-1.019996643066406,1.720001220703125-2.039993286132812h-.299999237060547c-.319999694824219,.459999084472656-.620002746582031,.739997863769531-.860000610351562,.739997863769531-.240001678466797,0-.420001983642578-.44000244140625,0-1.400001525878906l1.739997863769531-4Zm-10.079998016357422,6.480003356933594c-.860000610351562,.339996337890625-1.460000991821289,.739997863769531-1.460000991821289,1.360000610351562,0,.579994201660156,.540000915527344,.819999694824219,1.659999847412109,.819999694824219,1.500001907348633,0,2.320001602172852-.44000244140625,2.320001602172852-1.020004272460938,0-.260002136230469-.340000152587891-.379997253417969-1.240001678466797-.680000305175781-.579999923706055-.180000305175781-1-.339996337890625-1.279998779296875-.479995727539062Zm1-2.459999084472656c-.399999618530273,0-.540000915527344-.340003967285156-.540000915527344-.700004577636719,0-1.159996032714844,.560001373291016-2.599998474121094,1.459999084472656-2.599998474121094,.400001525878906,0,.540000915527344,.339996337890625,.540000915527344,.699996948242188-.020000457763672,1.180000305175781-.579998016357422,2.600006103515625-1.459999084472656,2.600006103515625Zm.759998321533203,1.879997253417969c1.100002288818359,.339996337890625,1.780002593994141,.599998474121094,1.780002593994141,1.360000610351562,0,.979995727539062-1.800003051757812,2.139999389648438-3.980001449584961,2.1199951171875-1.260000228881836,0-2.340000152587891-.339996337890625-2.340000152587891-1.159996032714844,0-.779998779296875,.719999313354492-1.419998168945312,2.479999542236328-1.94000244140625-.239999771118164-.159996032714844-.340000152587891-.360000610351562-.340000152587891-.639999389648438,0-.479995727539062,.440000534057617-.860000610351562,1.200000762939453-1.220001220703125-.739999771118164-.099998474121094-1.219999313354492-.659996032714844-1.219999313354492-1.479995727539062,0-1.260002136230469,1.039999008178711-2.700004577636719,2.680000305175781-2.700004577636719,.340000152587891,0,.639999389648438,.080001831054688,.879997253417969,.240005493164062h1.800003051757812l-.200000762939453,.680000305175781h-1.060001373291016c.060001373291016,.180000305175781,.100002288818359,.379997253417969,.100002288818359,.599998474121094,0,1.220001220703125-.979999542236328,2.6199951171875-2.540000915527344,2.699996948242188-.399999618530273,.220001220703125-.600000381469727,.520004272460938-.600000381469727,.760002136230469,0,.281997680664062,.327199935913086,.377998352050781,1.050199508666992,.588996887207031h.000301361083984c.096099853515625,.027999877929688,.199199676513672,.058006286621094,.309497833251953,.09100341796875Zm-6.339998245239258-3.419998168945312c.779998779296875,0,.799999237060547,.339996337890625,.680000305175781,1.199996948242188h.439998626708984l1.040000915527344-2.839996337890625h-.440000534057617c-.379999160766602,.680000305175781-.700000762939453,1.199996948242188-1.539999008178711,1.199996948242188h-1.720001220703125l.840000152587891-2.340003967285156c.30000114440918-.839996337890625,.440000534057617-1,1.520000457763672-1h.760000228881836c1.100000381469727,0,1.219999313354492,.300003051757812,1.219999313354492,1.460006713867188h.440000534057617l.360000610351562-1.94000244140625h-6.520000457763672l-.120000839233398,.360000610351562c1.260000228881836,.260002136230469,1.380001068115234,.379997253417969,.80000114440918,2l-1.30000114440918,3.5c-.600000381469727,1.6199951171875-.840000152587891,1.739997863769531-2.299999237060547,2l-.100000381469727,.379997253417969h7.239999771118164l1.30000114440918-2.05999755859375h-.5c-.840000152587891,.819999694824219-1.680000305175781,1.580001831054688-3.320001602172852,1.580001831054688-1.803899765014648,0-1.771699905395508-.088005065917969-1.230499267578125-1.575004577636719,.034799575805664-.096000671386719,.071800231933594-.196998596191406,.110500335693359-.305000305175781l.600000381469727-1.599998474121094h1.739999771118164v-.019996643066406Z"/><path class="cls-5" d="M30.958002090454102,138.488538186380538c.399999618530273,0,.739999771118164-.340003967285156,.739999771118164-.740005493164062s-.340000152587891-.739997863769531-.739999771118164-.739997863769531c-.420000076293945,0-.739999771118164,.339996337890625-.739999771118164,.739997863769531,0,.420005798339844,.319999694824219,.740005493164062,.739999771118164,.740005493164062Zm1.739999771118164,7.599998474121094c1.560001373291016,.019996643066406,4.180000305175781-2.860000610351562,4.180000305175781-5.080001831054688,0-.959999084472656-.240001678466797-1.319999694824219-.920001983642578-1.319999694824219-.839996337890625,0-1.619998931884766,.900001525878906-2.399997711181641,1.980003356933594l1.680000305175781-4.5-.100002288818359-.140007019042969-2.05999755859375,.240005493164062v.239997863769531l.399997711181641,.300003051757812c.348300933837891,.270896911621094,.247303009033203,.541793823242188-.049400329589844,1.337799072265625l-.030597686767578,.082199096679688-1.819999694824219,4.760002136230469c-.159999847412109,.399993896484375-.340000152587891,.879997253417969-.340000152587891,1,0,.55999755859375,.759998321533203,1.099998474121094,1.459999084472656,1.099998474121094Zm21.520000457763672-7.120002746582031l1.860000610351562-1.699996948242188v-.240005493164062h-1.240001678466797l-1.099998474121094,1.94000244140625h.479999542236328Zm.119998931884766,4.860000610351562h.400001525878906c-.760002136230469,1.419998168945312-1.680000305175781,2.279998779296875-2.560001373291016,2.260002136230469-.759998321533203,0-1.239997863769531-.540000915527344-1.239997863769531-1.560005187988281,0-2.159996032714844,1.759998321533203-4.859992980957031,3.299999237060547-4.859992980957031,.880001068115234,0,1.659999847412109,.659996032714844,1.020000457763672,2.17999267578125l-3.260002136230469,1.080001831054688c-.05999755859375,.279998779296875-.099998474121094,.599998474121094-.099998474121094,.900001525878906,0,.739997863769531,.279998779296875,1.080001831054688,.840000152587891,1.080001831054688,.540000915527344,0,1.099998474121094-.480003356933594,1.599998474121094-1.080001831054688Zm-.099998474121094-2.159996032714844c.200000762939453-.760002136230469-.180000305175781-1.100006103515625-.619998931884766-1.100006103515625-.480003356933594,0-1.080001831054688,.700004577636719-1.400001525878906,1.639999389648438l2.020000457763672-.539993286132812Zm-5.900001525878906-1.060005187988281h-1.079998016357422v-.5l1.340000152587891-.180000305175781,1.119998931884766-1.699996948242188h.619998931884766l-.599998474121094,1.699996948242188h1.579998016357422l-.199996948242188,.680000305175781h-1.620002746582031l-1.579998016357422,4.419998168945312c.719997406005859-.1199951171875,1.680000305175781-.799995422363281,2.119998931884766-1.419998168945312h.299999237060547c-.55999755859375,1.480003356933594-2.020000457763672,2.520004272460938-3.239997863769531,2.520004272460938-.420001983642578,0-.640003204345703-.400001525878906-.479999542236328-.800003051757812l1.719997406005859-4.720001220703125Zm-1.639999389648438,.520004272460938c.220001220703125-.760002136230469,.099998474121094-1.44000244140625-.479999542236328-1.44000244140625-.723300933837891,0-.949798583984375,.477699279785156-1.650798797607422,1.956199645996094l-.049201965332031,.103797912597656v-.879997253417969c0-.620002746582031-.200000762939453-1.180000305175781-.759998321533203-1.180000305175781-.659999847412109,0-1.260002136230469,1.019996643066406-1.720001220703125,2.040000915527344h.299999237060547c.319999694824219-.459999084472656,.619998931884766-.739997863769531,.840000152587891-.739997863769531,.279998779296875,0,.44000244140625,.439994812011719,0,1.399993896484375l-1.279998779296875,2.840003967285156c-.240001678466797,.540000915527344,.020000457763672,.879997253417969,.540000915527344,.879997253417969,.319999694824219,0,.459999084472656-.080001831054688,.599998474121094-.419998168945312l1.259998321533203-3.319999694824219c.360000610351562-.44000244140625,.680000305175781-.819999694824219,1.080001831054688-1.239997863769531h1.319999694824219Zm-6.340000152587891,.540000915527344c.200000762939453-.760002136230469-.180000305175781-1.100006103515625-.619998931884766-1.100006103515625-.479999542236328,0-1.060001373291016,.700004577636719-1.400001525878906,1.639999389648438l2.020000457763672-.539993286132812Zm.5,2.159996032714844h-.400001525878906c-.5,.599998474121094-1.05999755859375,1.080001831054688-1.599998474121094,1.080001831054688-.560001373291016,0-.840000152587891-.340003967285156-.840000152587891-1.080001831054688,0-.300003051757812,.040000915527344-.620002746582031,.100002288818359-.900001525878906l3.259998321533203-1.080001831054688c.639999389648438-1.519996643066406-.119998931884766-2.17999267578125-1.020000457763672-2.17999267578125-1.540000915527344,0-3.299999237060547,2.699996948242188-3.299999237060547,4.859992980957031,0,1.020004272460938,.479999542236328,1.560005187988281,1.239997863769531,1.560005187988281,.880001068115234,.019996643066406,1.800003051757812-.840003967285156,2.560001373291016-2.260002136230469Zm-8.400001525878906,.760002136230469c0,.259994506835938,.460002899169922,.55999755859375,.780002593994141,.55999755859375,1.299999237060547,0,2.520000457763672-2.339996337890625,2.5-3.639999389648438,0-.44000244140625-.220001220703125-.620002746582031-.520000457763672-.620002746582031-.479999542236328,0-1.360000610351562,.720001220703125-1.920001983642578,1.400001525878906l-.519996643066406,1.400001525878906c-.180000305175781,.459999084472656-.320003509521484,.819999694824219-.320003509521484,.900001525878906Zm-2.099998474121094-4.900001525878906c.239999771118164,0,.520000457763672,.239997863769531,.399999618530273,.680000305175781l-1.920000076293945,4.699996948242188c.5-.079994201660156,1.020000457763672-.55999755859375,1.320001602172852-1h.299999237060547c-.460000991821289,1.180000305175781-1.5,2.040000915527344-2.399999618530273,2.040000915527344-.239999771118164,0-.560001373291016-.239997863769531-.399999618530273-.680000305175781l1.799999237060547-4.699996948242188c-.5,.080001831054688-1.020000457763672,.55999755859375-1.319999694824219,1h-.30000114440918c.460000991821289-1.180000305175781,1.579999923706055-2.040000915527344,2.520000457763672-2.040000915527344Zm-8.299999237060547-2.080001831054688h4.299999237060547l-.119998931884766,.3800048828125c-1.460000991821289,.259994506835938-1.700000762939453,.379997253417969-2.30000114440918,2l-1.279998779296875,3.519996643066406c-.620000839233398,1.680000305175781-.460000991821289,1.879997253417969,.639999389648438,1.879997253417969,1.358999252319336,0,2.250200271606445-.987998962402344,3.028299331665039-1.849998474121094,.05780029296875-.063995361328125,.114999771118164-.127998352050781,.171699523925781-.19000244140625h.5l-1.419998168945312,2.520004272460938h-6.540000915527344l.120000839233398-.360000610351562c1.439998626708984-.260002136230469,1.679998397827148-.379997253417969,2.279998779296875-2l1.30000114440918-3.540000915527344c.579999923706055-1.620002746582031,.459999084472656-1.739997863769531-.80000114440918-2l.120000839233398-.360000610351562Z"/><path class="cls-1" d="M55.973648466313534,95.629806518554688c2.600000381469727,0,4.479999542236328,1.919998168945312,4.479999542236328,4.419998168945312,0,2.480003356933594-1.879999160766602,4.419998168945312-4.479999542236328,4.419998168945312h-2.700000762939453v-8.839996337890625h2.700000762939453Z"/><g><path d="M20.0556640625,51.00048828125h3.54052734375l3.4208984375,5.880859375,3.4208984375-5.880859375h3.54052734375v14.0029296875h-2.8408203125v-10.0419921875l-3.12060546875,5.2412109375h-2.00048828125l-3.12060546875-5.2412109375v10.0419921875h-2.84033203125v-14.0029296875Z"/><path d="M38.17529296875,51.00048828125h2.84033203125v14.0029296875h-2.84033203125v-14.0029296875Z"/><path d="M45.2353515625,51.00048828125h3.640625l6.26123046875,10.1220703125v-10.1220703125h2.8408203125v14.0029296875h-3.640625l-6.26171875-10.1220703125v10.1220703125h-2.84033203125v-14.0029296875Z"/><path d="M62.19482421875,51.00048828125h2.84033203125v14.0029296875h-2.84033203125v-14.0029296875Z"/><path d="M70.05517578125,61.16259765625c.83984375,1.080078125,1.9599609375,1.720703125,3.1005859375,1.720703125,1.1201171875,0,1.80029296875-.6005859375,1.80029296875-1.6005859375,0-2.5810546875-6.361328125-1.880859375-6.361328125-6.62109375,0-2.220703125,1.84033203125-4.0615234375,4.52099609375-4.0615234375,2.10009765625,0,3.70068359375,.9404296875,4.90087890625,2.3603515625l-2.08056640625,1.880859375c-.81982421875-1.060546875-1.740234375-1.7607421875-2.80029296875-1.7607421875-1.00048828125,0-1.66064453125,.640625-1.66064453125,1.48046875,0,2.541015625,6.361328125,1.8203125,6.361328125,6.62109375-.0400390625,2.640625-2.080078125,4.2216796875-4.66064453125,4.2216796875-2.36083984375,0-3.94091796875-.8603515625-5.18115234375-2.3408203125l2.060546875-1.900390625Z"/><path d="M79.57470703125,51.00048828125h11.482421875v2.580078125h-4.32080078125v11.4228515625h-2.8408203125v-11.4228515625h-4.32080078125v-2.580078125Z"/><path d="M93.85498046875,51.00048828125h8.16162109375v2.3603515625h-5.3212890625v3.3212890625h4.521484375v2.3603515625h-4.521484375v3.6005859375h5.3212890625v2.3603515625h-8.16162109375v-14.0029296875Zm.23974609375-3.90087890625h2.9208984375l2.26025390625,2.70068359375h-2.6005859375l-2.58056640625-2.70068359375Z"/><path d="M105.615234375,51.00048828125h4.28125c3.080078125,0,4.98046875,1.580078125,4.98046875,4.1806640625,0,1.7001953125-.8203125,2.9609375-2.2607421875,3.62109375l4.3818359375,6.201171875h-3.3408203125l-3.7412109375-5.6611328125h-1.4609375v5.6611328125h-2.83984375v-14.0029296875Zm2.83984375,2.3603515625v3.62109375h1.6005859375c1.2001953125,0,1.900390625-.7001953125,1.900390625-1.8408203125,0-1.0595703125-.7001953125-1.7802734375-1.900390625-1.7802734375h-1.6005859375Z"/><path d="M119.0947265625,51.00048828125h8.162109375v2.3603515625h-5.3212890625v3.3212890625h4.5205078125v2.3603515625h-4.5205078125v3.6005859375h5.3212890625v2.3603515625h-8.162109375v-14.0029296875Z"/><path d="M20.0556640625,71.70068359375h5.5009765625c4.44091796875,0,7.44189453125,3.220703125,7.44189453125,7.00048828125,0,3.78125-3.0009765625,7.001953125-7.44189453125,7.001953125h-5.5009765625v-14.00244140625Zm2.84033203125,2.580078125v8.84228515625h2.70068359375c2.6005859375,0,4.48095703125-1.9404296875,4.48095703125-4.421875,0-2.5-1.88037109375-4.42041015625-4.48095703125-4.42041015625h-2.70068359375Z"/><path d="M36.03564453125,71.70068359375h8.16162109375v2.3603515625h-5.3212890625v3.31982421875h4.52099609375v2.361328125h-4.52099609375v3.6005859375h5.3212890625v2.3603515625h-8.16162109375v-14.00244140625Z"/><path d="M53.294921875,71.70068359375h2.84033203125v11.42236328125h5.3212890625v2.580078125h-8.16162109375v-14.00244140625Z"/><path d="M61.15478515625,77.4609375l1.80078125-5.76025390625h2.88037109375l-2.3203125,5.76025390625h-2.36083984375Z"/><path d="M68.35498046875,71.70068359375h8.16162109375v2.3603515625h-5.3212890625v3.31982421875h4.52099609375v2.361328125h-4.52099609375v3.6005859375h5.3212890625v2.3603515625h-8.16162109375v-14.00244140625Z"/><path d="M80.11474609375,71.70068359375h3.640625l6.26123046875,10.12158203125v-10.12158203125h2.8408203125v14.00244140625h-3.640625l-6.26171875-10.12158203125v10.12158203125h-2.84033203125v-14.00244140625Z"/><path d="M97.875,81.8623046875c.83984375,1.080078125,1.9599609375,1.720703125,3.1005859375,1.720703125,1.1201171875,0,1.80078125-.6005859375,1.80078125-1.6005859375,0-2.5810546875-6.36181640625-1.880859375-6.36181640625-6.62060546875,0-2.220703125,1.84033203125-4.0615234375,4.52099609375-4.0615234375,2.1005859375,0,3.701171875,.9404296875,4.9013671875,2.3603515625l-2.0810546875,1.880859375c-.8193359375-1.060546875-1.740234375-1.7607421875-2.7998046875-1.7607421875-1.0009765625,0-1.6611328125,.640625-1.6611328125,1.48046875,0,2.54052734375,6.361328125,1.81982421875,6.361328125,6.62060546875-.0400390625,2.640625-2.080078125,4.2216796875-4.66015625,4.2216796875-2.361328125,0-3.94140625-.8603515625-5.181640625-2.3408203125l2.060546875-1.900390625Z"/><path d="M108.9345703125,71.70068359375h8.162109375v2.3603515625h-5.3212890625v3.31982421875h4.521484375v2.361328125h-4.521484375v3.6005859375h5.3212890625v2.3603515625h-8.162109375v-14.00244140625Z"/><path d="M120.6953125,71.70068359375h2.8408203125v14.00244140625h-2.8408203125v-14.00244140625Z"/><path d="M137.45703125,82.22265625v-2.4404296875h-3.560546875v-2.4208984375h6.4013671875v5.880859375c-1.30078125,1.7412109375-3.4814453125,2.861328125-6.1015625,2.861328125-4.541015625,0-7.6416015625-3.4013671875-7.6416015625-7.40234375,0-3.99951171875,3.0205078125-7.40087890625,7.44140625-7.40087890625,2.541015625,0,4.62109375,1.140625,5.9013671875,2.8408203125l-2.240234375,1.740234375c-.80078125-1.1396484375-2.060546875-1.919921875-3.6611328125-1.919921875-2.640625,0-4.5205078125,2.06005859375-4.5205078125,4.73974609375,0,2.6806640625,1.9794921875,4.7412109375,4.720703125,4.7412109375,1.3203125,0,2.4599609375-.4599609375,3.2607421875-1.2197265625Z"/><path d="M143.7548828125,71.70068359375h3.640625l6.26171875,10.12158203125v-10.12158203125h2.83984375v14.00244140625h-3.640625l-6.2607421875-10.12158203125v10.12158203125h-2.8408203125v-14.00244140625Z"/><path d="M160.71484375,71.70068359375h8.162109375v2.3603515625h-5.3212890625v3.31982421875h4.5205078125v2.361328125h-4.5205078125v3.6005859375h5.3212890625v2.3603515625h-8.162109375v-14.00244140625Z"/><path d="M172.474609375,71.70068359375h3.541015625l3.419921875,5.88037109375,3.4208984375-5.88037109375h3.541015625v14.00244140625h-2.8408203125v-10.04150390625l-3.1201171875,5.24072265625h-2.0009765625l-3.1201171875-5.24072265625v10.04150390625h-2.8408203125v-14.00244140625Z"/><path d="M190.59375,71.70068359375h8.162109375v2.3603515625h-5.3212890625v3.31982421875h4.5205078125v2.361328125h-4.5205078125v3.6005859375h5.3212890625v2.3603515625h-8.162109375v-14.00244140625Z"/><path d="M202.353515625,71.70068359375h3.640625l6.26171875,10.12158203125v-10.12158203125h2.83984375v14.00244140625h-3.640625l-6.2607421875-10.12158203125v10.12158203125h-2.8408203125v-14.00244140625Z"/><path d="M217.873046875,71.70068359375h11.482421875v2.580078125h-4.3212890625v11.42236328125h-2.83984375v-11.42236328125h-4.3212890625v-2.580078125Z"/><path d="M20.85595703125,102.5625c.83984375,1.080078125,1.9599609375,1.720703125,3.1005859375,1.720703125,1.1201171875,0,1.80029296875-.6005859375,1.80029296875-1.6005859375,0-2.5810546875-6.361328125-1.880859375-6.361328125-6.62109375,0-2.220703125,1.84033203125-4.0615234375,4.52099609375-4.0615234375,2.10009765625,0,3.70068359375,.9404296875,4.90087890625,2.3603515625l-2.08056640625,1.880859375c-.81982421875-1.060546875-1.740234375-1.7607421875-2.80029296875-1.7607421875-1.00048828125,0-1.66064453125,.640625-1.66064453125,1.48046875,0,2.541015625,6.361328125,1.8203125,6.361328125,6.62109375-.0400390625,2.640625-2.080078125,4.2216796875-4.66064453125,4.2216796875-2.36083984375,0-3.94091796875-.8603515625-5.18115234375-2.3408203125l2.060546875-1.900390625Z"/><path d="M40.01708984375,92.400390625h2.8408203125v8.521484375c0,3.6806640625-2.16064453125,5.8818359375-5.68115234375,5.8818359375-3.5009765625,0-5.66162109375-2.201171875-5.66162109375-5.8818359375v-8.521484375h2.8408203125v8.76171875c0,1.880859375,1.06005859375,2.98046875,2.8408203125,2.98046875,1.740234375,0,2.8203125-1.099609375,2.8203125-2.98046875v-8.76171875Z"/><path d="M46.67529296875,92.400390625h4.62109375c3.08056640625,0,4.9609375,1.580078125,4.9609375,4.1806640625,0,2.5810546875-1.88037109375,4.1611328125-4.9609375,4.1611328125h-1.78076171875v5.6611328125h-2.84033203125v-14.0029296875Zm2.84033203125,2.3603515625v3.62109375h1.900390625c1.20068359375,0,1.92041015625-.7001953125,1.92041015625-1.8408203125,0-1.0595703125-.7197265625-1.7802734375-1.92041015625-1.7802734375h-1.900390625Z"/><path d="M58.89501953125,92.400390625h8.16162109375v2.3603515625h-5.3212890625v3.3212890625h4.52099609375v2.3603515625h-4.52099609375v3.6005859375h5.3212890625v2.3603515625h-8.16162109375v-14.0029296875Zm2.76025390625-1.2001953125l2.2607421875-2.701171875h2.92041015625l-2.6005859375,2.701171875h-2.58056640625Z"/><path d="M70.65478515625,92.400390625h4.28076171875c3.08056640625,0,4.98095703125,1.580078125,4.98095703125,4.1806640625,0,1.7001953125-.81982421875,2.9609375-2.26025390625,3.62109375l4.380859375,6.201171875h-3.3408203125l-3.74072265625-5.6611328125h-1.46044921875v5.6611328125h-2.84033203125v-14.0029296875Zm2.84033203125,2.3603515625v3.62109375h1.6005859375c1.2001953125,0,1.900390625-.7001953125,1.900390625-1.8408203125,0-1.0595703125-.7001953125-1.7802734375-1.900390625-1.7802734375h-1.6005859375Z"/><path d="M84.134765625,92.400390625h2.84033203125v14.0029296875h-2.84033203125v-14.0029296875Z"/><path d="M91.19482421875,92.400390625h8.16162109375v2.3603515625h-5.3212890625v3.3212890625h4.52099609375v2.3603515625h-4.52099609375v3.6005859375h5.3212890625v2.3603515625h-8.16162109375v-14.0029296875Z"/><path d="M111.13671875,92.400390625h2.83984375v8.521484375c0,3.6806640625-2.16015625,5.8818359375-5.6806640625,5.8818359375-3.5009765625,0-5.662109375-2.201171875-5.662109375-5.8818359375v-8.521484375h2.8408203125v8.76171875c0,1.880859375,1.060546875,2.98046875,2.8408203125,2.98046875,1.740234375,0,2.8212890625-1.099609375,2.8212890625-2.98046875v-8.76171875Z"/><path d="M117.794921875,92.400390625h4.28125c3.080078125,0,4.98046875,1.580078125,4.98046875,4.1806640625,0,1.7001953125-.8203125,2.9609375-2.2607421875,3.62109375l4.3818359375,6.201171875h-3.3408203125l-3.7412109375-5.6611328125h-1.4599609375v5.6611328125h-2.8408203125v-14.0029296875Zm2.8408203125,2.3603515625v3.62109375h1.599609375c1.2001953125,0,1.900390625-.7001953125,1.900390625-1.8408203125,0-1.0595703125-.7001953125-1.7802734375-1.900390625-1.7802734375h-1.599609375Z"/><path d="M20.0556640625,113.099609375h8.16162109375v2.3603515625h-5.3212890625v3.3212890625h4.52099609375v2.3603515625h-4.52099609375v3.6005859375h5.3212890625v2.3603515625h-8.16162109375v-14.0029296875Z"/><path d="M30.67529296875,113.099609375h11.482421875v2.580078125h-4.32080078125v11.4228515625h-2.8408203125v-11.4228515625h-4.32080078125v-2.580078125Z"/><path d="M50.455078125,113.099609375h5.5009765625c4.44091796875,0,7.44189453125,3.220703125,7.44189453125,7.0009765625,0,3.78125-3.0009765625,7.001953125-7.44189453125,7.001953125h-5.5009765625v-14.0029296875Zm2.84033203125,2.580078125v8.8427734375h2.70068359375c2.6005859375,0,4.48095703125-1.9404296875,4.48095703125-4.421875,0-2.5-1.88037109375-4.4208984375-4.48095703125-4.4208984375h-2.70068359375Z"/><path d="M66.43505859375,113.099609375h8.16162109375v2.3603515625h-5.3212890625v3.3212890625h4.52099609375v2.3603515625h-4.52099609375v3.6005859375h5.3212890625v2.3603515625h-8.16162109375v-14.0029296875Z"/><path d="M83.69482421875,113.099609375h2.84033203125v11.4228515625h5.3212890625v2.580078125h-8.16162109375v-14.0029296875Z"/><path d="M98.794921875,113.099609375h3.720703125l5.3017578125,14.0029296875h-3.0205078125l-1.3408203125-3.640625h-5.60107421875l-1.34033203125,3.640625h-3.0205078125l5.30078125-14.0029296875Zm3.78125,7.94140625l-1.9208984375-5.2607421875-1.92041015625,5.2607421875h3.84130859375Z"/><path d="M115.7744140625,113.099609375h4.28125c3.080078125,0,4.98046875,1.580078125,4.98046875,4.1806640625,0,1.7001953125-.8203125,2.9609375-2.2607421875,3.62109375l4.380859375,6.201171875h-3.33984375l-3.7412109375-5.6611328125h-1.4599609375v5.6611328125h-2.8408203125v-14.0029296875Zm2.8408203125,2.3603515625v3.62109375h1.599609375c1.2001953125,0,1.900390625-.7001953125,1.900390625-1.8408203125,0-1.0595703125-.7001953125-1.7802734375-1.900390625-1.7802734375h-1.599609375Z"/><path d="M129.25390625,113.099609375h8.162109375v2.3603515625h-5.3212890625v3.3212890625h4.5205078125v2.3603515625h-4.5205078125v3.6005859375h5.3212890625v2.3603515625h-8.162109375v-14.0029296875Z"/><path d="M150.5966796875,122.921875l2.240234375,1.7197265625c-1.2802734375,1.7412109375-3.3603515625,2.861328125-5.9013671875,2.861328125-4.4208984375,0-7.44140625-3.4013671875-7.44140625-7.40234375,0-4,3.0205078125-7.4013671875,7.44140625-7.4013671875,2.541015625,0,4.62109375,1.140625,5.9013671875,2.8408203125l-2.240234375,1.740234375c-.80078125-1.1396484375-2.060546875-1.919921875-3.6611328125-1.919921875-2.640625,0-4.5205078125,2.060546875-4.5205078125,4.740234375,0,2.6806640625,1.8798828125,4.7412109375,4.5205078125,4.7412109375,1.6005859375,0,2.8603515625-.7802734375,3.6611328125-1.919921875Z"/><path d="M155.59375,113.099609375h2.8408203125v5.5810546875h7.0615234375v-5.5810546875h2.83984375v14.0029296875h-2.83984375v-5.8408203125h-7.0615234375v5.8408203125h-2.8408203125v-14.0029296875Z"/><path d="M172.5537109375,113.099609375h8.162109375v2.3603515625h-5.3212890625v3.3212890625h4.5205078125v2.3603515625h-4.5205078125v3.6005859375h5.3212890625v2.3603515625h-8.162109375v-14.0029296875Z"/><path d="M184.3134765625,113.099609375h4.28125c3.080078125,0,4.98046875,1.580078125,4.98046875,4.1806640625,0,1.7001953125-.8203125,2.9609375-2.2607421875,3.62109375l4.380859375,6.201171875h-3.33984375l-3.7412109375-5.6611328125h-1.4599609375v5.6611328125h-2.8408203125v-14.0029296875Zm2.8408203125,2.3603515625v3.62109375h1.599609375c1.2001953125,0,1.900390625-.7001953125,1.900390625-1.8408203125,0-1.0595703125-.7001953125-1.7802734375-1.900390625-1.7802734375h-1.599609375Z"/><path d="M207.4765625,122.921875l2.240234375,1.7197265625c-1.2802734375,1.7412109375-3.3603515625,2.861328125-5.9013671875,2.861328125-4.4208984375,0-7.44140625-3.4013671875-7.44140625-7.40234375,0-4,3.0205078125-7.4013671875,7.44140625-7.4013671875,2.541015625,0,4.62109375,1.140625,5.9013671875,2.8408203125l-2.240234375,1.740234375c-.80078125-1.1396484375-2.060546875-1.919921875-3.6611328125-1.919921875-2.640625,0-4.5205078125,2.060546875-4.5205078125,4.740234375,0,2.6806640625,1.8798828125,4.7412109375,4.5205078125,4.7412109375,1.6005859375,0,2.8603515625-.7802734375,3.6611328125-1.919921875Z"/><path d="M212.4736328125,113.099609375h2.8408203125v5.5810546875h7.0615234375v-5.5810546875h2.83984375v14.0029296875h-2.83984375v-5.8408203125h-7.0615234375v5.8408203125h-2.8408203125v-14.0029296875Z"/><path d="M229.43359375,113.099609375h8.162109375v2.3603515625h-5.3212890625v3.3212890625h4.5205078125v2.3603515625h-4.5205078125v3.6005859375h5.3212890625v2.3603515625h-8.162109375v-14.0029296875Z"/></g></svg>