<svg id="Calque_1" data-name="Calque 1" xmlns="http://www.w3.org/2000/svg" viewBox="0 0 1200 267.9"><path d="M624.15,76.69v47.82c0,12.21-6.36,19.74-17.9,19.74-11.7,0-18.06-7.53-18.06-19.74V76.69h-21.4v46.82c0,25.25,14.55,40.8,39.3,40.8s39.46-15.55,39.46-40.8V76.69ZM494.22,142.07c-22.07,0-37.79-17.22-37.79-39.63s15.72-39.63,37.79-39.63c21.91,0,37.62,17.22,37.62,39.63s-15.71,39.63-37.62,39.63m0-101.5c-37,0-62.2,28.43-62.2,61.87s25.24,61.87,62.2,61.87c36.79,0,62-28.43,62-61.87s-25.25-61.87-62-61.87" transform="translate(0 -34.22)"/><polygon points="673.64 42.47 695.55 102.67 717.29 42.47 740.19 42.47 709.43 126.75 681.5 126.75 650.9 42.47 673.64 42.47"/><path d="M889,75c-9.53,0-16.72,4.35-22.24,10V76.69H845.54V161h21.23V107a23,23,0,0,1,20.24-11,36.56,36.56,0,0,1,9.36,1.17V76.19A23.35,23.35,0,0,0,889,75m-82.6,86h21.24V76.69H806.41Zm10.7-126.75a13.88,13.88,0,1,0,0,27.76,13.88,13.88,0,0,0,0-27.76M767.28,85.05V76.69H746.05V161h21.23V107a23,23,0,0,1,20.24-11,36.56,36.56,0,0,1,9.36,1.17V76.19A23.4,23.4,0,0,0,789.52,75c-9.53,0-16.72,4.35-22.24,10" transform="translate(0 -34.22)"/><rect x="437.53" y="139.07" width="21.24" height="125.41"/><path d="M1090.34,228.46c11.7,0,18.06,8.53,18.39,17.06h-38.79c2.34-11,9.53-17.06,20.4-17.06m25.58,44.48c-4.51,6-12.54,10-21.74,10-13.21,0-22.9-6.36-24.91-22.08h59a56.41,56.41,0,0,0,1.33-12c0-22.07-15.38-37.79-38.79-37.79-27.59,0-43.31,20.57-43.31,45.49,0,24.58,16.89,45.48,46.82,45.48,15.89,0,28.93-6.52,36.79-17.06Zm-103,9c-14.22,0-24.42-10.53-24.42-25.41,0-14.72,10.2-25.42,24.08-25.42,8.7,0,15.39,3.84,19.4,9.7l16.55-12.71c-7.86-10.37-20.23-17.06-35.61-17.06-29.1,0-46.49,20.91-46.49,45.49S983.82,302,1012.92,302c15.38,0,27.75-6.69,35.61-17.06L1032,272.27a22.5,22.5,0,0,1-19.06,9.7m-89.8-70.9a34.21,34.21,0,0,0-24.91,10v-6.69H877v84.27h21.24v-55c3.17-5.35,8.86-12.54,19.56-12.54,10.37,0,16.72,7,16.72,18.23v49.32H955.9V248.53c0-24.92-14.55-37.46-32.78-37.46m-98.66,17.39c11.71,0,18.06,8.53,18.4,17.06h-38.8c2.34-11,9.54-17.06,20.4-17.06M828.31,283c-13.21,0-22.91-6.36-24.92-22.08h59a55.69,55.69,0,0,0,1.34-12c0-22.07-15.38-37.79-38.79-37.79-27.59,0-43.31,20.57-43.31,45.49,0,24.58,16.89,45.48,46.82,45.48,15.88,0,28.93-6.52,36.79-17.06l-15.22-12c-4.52,6-12.54,10-21.74,10m-79.76,15.71h21.24V214.42H748.55Zm10.7-126.75a13.88,13.88,0,0,0,0,27.76,13.88,13.88,0,0,0,0-27.76m-55,59.2c8.69,0,15.38,3.84,19.4,9.7l16.55-12.71c-7.86-10.37-20.23-17.06-35.62-17.06-29.09,0-46.48,20.91-46.48,45.49S675.48,302,704.57,302c15.39,0,27.76-6.69,35.62-17.06l-16.55-12.71a22.53,22.53,0,0,1-19.07,9.7c-14.21,0-24.41-10.53-24.41-25.41,0-14.72,10.2-25.42,24.08-25.42m-82.27-3c6.52,0,12,4.35,16.39,9.7l14-12.38c-6-8.19-17.72-14.38-30.6-14.38-17.55,0-30.1,11.21-30.1,26.09,0,29.6,40.3,24.08,40.3,38.79,0,5-3.51,9-10.36,9-8,0-14.22-4.68-19.4-11.2l-14,12.71C596.22,296,606.92,302,622,302c15.89,0,30.1-9.7,30.43-27.43,0-29.09-40.3-24.07-40.3-38.45,0-4.35,3.18-8,9.87-8m-96.31,45c-4.18,6.69-11.21,11.2-20.91,11.2-7.19,0-11.7-3.68-11.7-9.36,0-5.18,3.68-8.86,12.54-10.37l20.07-3.34Zm-15.72-62c-15.39,0-27.76,6.36-35.29,16.72l15.56,11.88c4.51-6.19,10.87-10,19.06-10,9.7,0,16.39,5.69,16.39,14.55v2.18L499.9,250.7C481.84,253.71,472,263.24,472,276c0,15.55,11.54,25.25,28.43,25.25,9.86,0,19.89-4.18,25.25-10.7v8.19h21.23V244.18c0-18.56-12.54-33.11-36.95-33.11" transform="translate(0 -34.22)"/><polygon points="1175.35 226.31 1196.53 226.31 1197.27 139.01 1176.1 139.01 1175.35 226.31"/><path d="M1186.4,274.59a13.77,13.77,0,1,0,0,27.53,13.77,13.77,0,0,0,0-27.53" transform="translate(0 -34.22)"/><path d="M96.05,183.94a53.37,53.37,0,1,1,53.27-53.36,53.49,53.49,0,0,1-53.27,53.36m96.05-53.36c0-52.81-42.94-95.8-95.82-96.05h-.46C42.94,34.78,0,77.77,0,130.58s42.94,95.79,95.82,96h.46c52.88-.25,95.82-43.24,95.82-96" transform="translate(0 -34.22)"/><path d="M288.17,183.93h-.37a53.37,53.37,0,0,1,0-106.73h.37V34.53h-.6a96,96,0,0,0,0,192.09h.6Z" transform="translate(0 -34.22)"/><path d="M288.24,258.85h.37a53.37,53.37,0,0,0,0-106.73h-.37V109.46h.6a96,96,0,0,1,0,192.09h-.6Z" transform="translate(0 -34.22)"/></svg>